SplineFontDB: 3.2
FontName: EtheirysTomestone
FullName: Etheirys Tomestone
FamilyName: Etheirys Tomestone
Weight: Book
Copyright: Original (c) Square Enix. 
Version: 1.01
ItalicAngle: 0
UnderlinePosition: -442
UnderlineWidth: 150
Ascent: 1638
Descent: 410
InvalidEm: 0
sfntRevision: 0x00010000
LayerCount: 2
Layer: 0 1 "Back" 1
Layer: 1 1 "Fore" 0
XUID: [1021 893 -1223954049 15745]
StyleMap: 0x0040
FSType: 8
OS2Version: 3
OS2_WeightWidthSlopeOnly: 0
OS2_UseTypoMetrics: 0
CreationTime: 1272898488
ModificationTime: 1668826688
PfmFamily: 17
TTFWeight: 400
TTFWidth: 5
LineGap: 0
VLineGap: 0
Panose: 2 0 5 0 0 0 0 0 0 0
OS2TypoAscent: 1445
OS2TypoAOffset: 0
OS2TypoDescent: -423
OS2TypoDOffset: 0
OS2TypoLinegap: 205
OS2WinAscent: 1844
OS2WinAOffset: 0
OS2WinDescent: 749
OS2WinDOffset: 0
HheadAscent: 1844
HheadAOffset: 0
HheadDescent: -749
HheadDOffset: 0
OS2SubXSize: 1434
OS2SubYSize: 1331
OS2SubXOff: 0
OS2SubYOff: 283
OS2SupXSize: 1434
OS2SupYSize: 1331
OS2SupXOff: 0
OS2SupYOff: 977
OS2StrikeYSize: 102
OS2StrikeYPos: 530
OS2CapHeight: 1434
OS2XHeight: 1024
OS2Vendor: 'FF  '
OS2CodePages: 20000111.41000000
OS2UnicodeRanges: 800000a7.5000004a.00000000.00000000
Lookup: 4 0 1 "'liga' Standard Ligatures lookup 0" { "'liga' Standard Ligatures lookup 0 subtable"  } ['liga' ('DFLT' <'dflt' > 'hani' <'dflt' > 'kana' <'dflt' > 'latn' <'dflt' > ) ]
MarkAttachClasses: 1
DEI: 91125
ShortTable: maxp 16
  1
  0
  432
  188
  5
  260
  6
  0
  0
  0
  0
  0
  0
  0
  2
  1
EndShort
LangName: 1033 "Original +AKkA Square Enix. " "" "Regular" "" "" "Version 1.00" "" "" "" "Myranda/Bwin" "Eorzea Font from Final Fantasy XIV. Font originally created by Square Enix. Many thanks to www.eorzeapedia.com and www.ffxivmaps.com for reference materials.+AAoA-Hingashi Script glyphs from Mumu (ff14moo.moo.jp)"
LangName: 1027 "" "" "Normal"
LangName: 1029 "" "" "oby+AQ0A-ejn+AOkA"
LangName: 1030 "" "" "normal"
LangName: 1031 "" "" "Standard"
LangName: 1032 "" "" "+A5oDsQO9A78DvQO5A7oDrAAA"

StartChar: .notdef
Encoding: 65536 -1 0
Width: 1024
Flags: W
LayerCount: 2
Fore
SplineSet
100 0 m 1,0,-1
 100 1434 l 1,1,-1
 924 1434 l 1,2,-1
 924 0 l 1,3,-1
 100 0 l 1,0,-1
150 50 m 1,4,-1
 874 50 l 1,5,-1
 874 1384 l 1,6,-1
 150 1384 l 1,7,-1
 150 50 l 1,4,-1
325 1148 m 1,8,9
 356 1176 356 1176 383 1191 c 0,10,11
 436 1221 436 1221 495 1221 c 0,12,13
 587 1221 587 1221 643 1173.5 c 128,-1,14
 699 1126 699 1126 699 1046 c 0,15,16
 699 997 699 997 676 947.5 c 128,-1,17
 653 898 653 898 589 818 c 0,18,19
 526 738 526 738 490 686 c 128,-1,20
 454 634 454 634 454 587 c 0,21,22
 454 549 454 549 478 454 c 1,23,-1
 446 454 l 1,24,25
 411 551 411 551 411 602 c 0,26,27
 411 678 411 678 492.5 820 c 128,-1,28
 574 962 574 962 574 1037 c 0,29,30
 574 1094 574 1094 541 1127 c 128,-1,31
 508 1160 508 1160 450 1160 c 0,32,33
 412 1160 412 1160 381 1143 c 0,34,35
 355 1128 355 1128 325 1103 c 1,36,-1
 325 1148 l 1,8,9
389 334 m 2,37,-1
 446 392 l 2,38,39
 457 402 457 402 466 402 c 0,40,41
 476 402 476 402 488 391 c 2,42,-1
 544 331 l 2,43,44
 553 320 553 320 553 311 c 0,45,46
 553 300 553 300 543 289 c 2,47,-1
 487 227 l 2,48,49
 473 213 473 213 466 213 c 0,50,51
 455 213 455 213 446 223 c 2,52,-1
 385 294 l 2,53,54
 378 303 378 303 378 312 c 0,55,56
 378 322 378 322 389 334 c 2,37,-1
EndSplineSet
EndChar

StartChar: exclam
Encoding: 33 33 4
Width: 902
GlyphClass: 2
Flags: W
LayerCount: 2
Fore
SplineSet
320 1415 m 1,0,1
 383 1448 383 1448 410 1415 c 256,2,3
 437 1382 437 1382 456 1285 c 1,4,-1
 456 773 l 1,5,-1
 782 949 l 1,6,-1
 358 368 l 1,7,8
 344 359 344 359 324 355 c 0,9,10
 284 346 284 346 257 368 c 0,11,12
 213 404 213 404 205 453 c 1,13,-1
 205 1163 l 2,14,15
 206 1187 206 1187 180 1195 c 0,16,17
 130 1213 130 1213 0 1142 c 1,18,-1
 320 1415 l 1,0,1
205 152 m 1,19,-1
 342 10 l 1,20,-1
 467 144 l 1,21,-1
 342 278 l 1,22,-1
 205 152 l 1,19,-1
EndSplineSet
EndChar

StartChar: quotedbl
Encoding: 34 34 5
Width: 862
GlyphClass: 2
Flags: W
LayerCount: 2
Fore
SplineSet
114 1455 m 1,0,1
 238 1364 238 1364 238 1336 c 0,2,3
 238 1307 238 1307 114 1086 c 1,4,5
 417 1417 417 1417 417 1444 c 0,6,7
 417 1472 417 1472 255 1586 c 1,8,-1
 114 1455 l 1,0,1
444 1455 m 1,9,10
 568 1364 568 1364 568 1336 c 0,11,12
 568 1307 568 1307 444 1086 c 1,13,14
 747 1417 747 1417 747 1444 c 0,15,16
 747 1472 747 1472 585 1586 c 1,17,-1
 444 1455 l 1,9,10
EndSplineSet
EndChar

StartChar: numbersign
Encoding: 35 35 6
Width: 1336
GlyphClass: 2
Flags: W
LayerCount: 2
Fore
SplineSet
596 859 m 1,0,-1
 511 569 l 1,1,-1
 753 569 l 1,2,-1
 839 859 l 1,3,-1
 596 859 l 1,0,-1
673 1434 m 1,4,-1
 766 1434 l 1,5,-1
 625 957 l 1,6,-1
 867 957 l 1,7,-1
 1009 1434 l 1,8,-1
 1101 1434 l 1,9,-1
 960 957 l 1,10,-1
 1219 957 l 1,11,-1
 1190 860 l 1,12,-1
 931 860 l 1,13,-1
 848 570 l 1,14,-1
 1127 570 l 1,15,-1
 1097 472 l 1,16,-1
 817 472 l 1,17,-1
 677 0 l 1,18,-1
 585 0 l 1,19,-1
 724 472 l 1,20,-1
 484 472 l 1,21,-1
 342 0 l 1,22,-1
 250 0 l 1,23,-1
 390 472 l 1,24,-1
 117 472 l 1,25,-1
 147 570 l 1,26,-1
 418 570 l 1,27,-1
 504 860 l 1,28,-1
 209 860 l 1,29,-1
 238 957 l 1,30,-1
 533 957 l 1,31,-1
 673 1434 l 1,4,-1
EndSplineSet
EndChar

StartChar: dollar
Encoding: 36 36 7
Width: 1014
GlyphClass: 2
Flags: W
LayerCount: 2
Fore
SplineSet
577 1552 m 1,0,-1
 577 1450 l 1,1,2
 645 1442 645 1442 718 1415 c 0,3,4
 728 1409 728 1409 737 1409 c 0,5,6
 762 1409 762 1409 778 1454 c 1,7,-1
 828 1454 l 1,8,-1
 931 1172 l 1,9,-1
 882 1172 l 1,10,11
 822 1306 822 1306 714 1351 c 0,12,13
 640 1381 640 1381 577 1390 c 1,14,-1
 577 850 l 1,15,16
 818 757 818 757 899.5 667 c 128,-1,17
 981 577 981 577 981 403 c 0,18,19
 981 206 981 206 861.5 103 c 128,-1,20
 742 0 742 0 577 -17 c 1,21,-1
 577 -256 l 1,22,-1
 504 -256 l 1,23,-1
 504 -19 l 1,24,25
 316 -16 316 -16 238 19 c 0,26,27
 228 25 228 25 219 25 c 0,28,29
 194 25 194 25 178 -20 c 1,30,-1
 128 -20 l 1,31,-1
 128 311 l 1,32,-1
 177 311 l 1,33,34
 227 128 227 128 329.5 85 c 128,-1,35
 432 42 432 42 504 42 c 1,36,-1
 504 677 l 1,37,38
 290 744 290 744 205 830 c 0,39,40
 113 921 113 921 113 1079 c 0,41,42
 113 1245 113 1245 238 1350 c 0,43,44
 343 1438 343 1438 504 1452 c 1,45,-1
 504 1552 l 1,46,-1
 577 1552 l 1,0,-1
577 655 m 1,47,-1
 577 45 l 1,48,49
 702 62 702 62 788.5 141 c 128,-1,50
 875 220 875 220 875 360 c 0,51,52
 875 476 875 476 806 543 c 0,53,54
 744 602 744 602 577 655 c 1,47,-1
504 873 m 1,55,-1
 504 1393 l 1,56,57
 385 1388 385 1388 305 1321 c 0,58,59
 219 1248 219 1248 219 1139 c 0,60,61
 219 1041 219 1041 274 986 c 0,62,63
 326 932 326 932 504 873 c 1,55,-1
EndSplineSet
EndChar

StartChar: percent
Encoding: 37 37 8
Width: 1610
GlyphClass: 2
Flags: W
LayerCount: 2
Fore
SplineSet
449 1459 m 256,0,1
 547 1459 547 1459 639.5 1410 c 128,-1,2
 732 1361 732 1361 784 1270.5 c 128,-1,3
 836 1180 836 1180 836 1080 c 0,4,5
 836 981 836 981 785.5 891.5 c 128,-1,6
 735 802 735 802 642.5 751.5 c 128,-1,7
 550 701 550 701 449 701 c 0,8,9
 349 701 349 701 256.5 751.5 c 128,-1,10
 164 802 164 802 113 891.5 c 128,-1,11
 62 981 62 981 62 1080 c 0,12,13
 62 1180 62 1180 114 1270.5 c 128,-1,14
 166 1361 166 1361 258.5 1410 c 128,-1,15
 351 1459 351 1459 449 1459 c 256,0,1
206 1066 m 0,16,17
 219 974 219 974 261.5 892.5 c 128,-1,18
 304 811 304 811 368 768 c 0,19,20
 425 728 425 728 482 728 c 0,21,22
 489 728 489 728 495 729 c 0,23,24
 558 732 558 732 610 782 c 128,-1,25
 662 832 662 832 683 918 c 0,26,27
 696 972 696 972 696 1029 c 0,28,29
 696 1061 696 1061 692 1094 c 0,30,31
 680 1187 680 1187 636 1269.5 c 128,-1,32
 592 1352 592 1352 529 1394 c 0,33,34
 471 1432 471 1432 414 1432 c 2,35,-1
 403 1432 l 2,36,37
 342 1429 342 1429 290 1380 c 128,-1,38
 238 1331 238 1331 217 1245 c 0,39,40
 202 1187 202 1187 202 1128 c 0,41,42
 202 1097 202 1097 206 1066 c 0,16,17
297 -29 m 1,43,-1
 1237 1432 l 1,44,-1
 1321 1432 l 1,45,-1
 383 -29 l 1,46,-1
 297 -29 l 1,43,-1
1161 738 m 0,47,48
 1258 738 1258 738 1351 688.5 c 128,-1,49
 1444 639 1444 639 1496 548.5 c 128,-1,50
 1548 458 1548 458 1548 359 c 0,51,52
 1548 259 1548 259 1497.5 169.5 c 128,-1,53
 1447 80 1447 80 1354.5 30 c 128,-1,54
 1262 -20 1262 -20 1161 -20 c 256,55,56
 1060 -20 1060 -20 968 30 c 128,-1,57
 876 80 876 80 825 169.5 c 128,-1,58
 774 259 774 259 774 359 c 0,59,60
 774 458 774 458 826 548.5 c 128,-1,61
 878 639 878 639 970.5 688.5 c 128,-1,62
 1063 738 1063 738 1161 738 c 0,47,48
918 344 m 0,63,64
 931 252 931 252 973.5 170.5 c 128,-1,65
 1016 89 1016 89 1080 46 c 0,66,67
 1139 7 1139 7 1196 7 c 2,68,-1
 1207 7 l 2,69,70
 1270 10 1270 10 1322 60 c 128,-1,71
 1374 110 1374 110 1395 196 c 0,72,73
 1408 250 1408 250 1408 307 c 0,74,75
 1408 339 1408 339 1404 372 c 0,76,77
 1392 465 1392 465 1348 547.5 c 128,-1,78
 1304 630 1304 630 1241 672 c 0,79,80
 1183 710 1183 710 1126 710 c 2,81,-1
 1115 710 l 2,82,83
 1054 707 1054 707 1002 658 c 128,-1,84
 950 609 950 609 929 523 c 0,85,86
 914 465 914 465 914 406 c 0,87,88
 914 375 914 375 918 344 c 0,63,64
EndSplineSet
EndChar

StartChar: ampersand
Encoding: 38 38 9
Width: 1683
GlyphClass: 2
Flags: W
LayerCount: 2
Fore
SplineSet
1051 196 m 1,0,-1
 497 879 l 1,1,2
 379 879 379 879 317.5 793 c 128,-1,3
 256 707 256 707 256 589 c 0,4,5
 256 498 256 498 291.5 407.5 c 128,-1,6
 327 317 327 317 393 243 c 0,7,8
 465 160 465 160 558 116 c 128,-1,9
 651 72 651 72 752 72 c 0,10,11
 840 72 840 72 921 105.5 c 128,-1,12
 1002 139 1002 139 1051 196 c 1,0,-1
1394 0 m 2,13,14
 1338 0 1338 0 1255 25 c 128,-1,15
 1172 50 1172 50 1088 157 c 1,16,17
 1021 83 1021 83 913 33.5 c 128,-1,18
 805 -16 805 -16 672 -16 c 0,19,20
 443 -16 443 -16 297.5 134.5 c 128,-1,21
 152 285 152 285 152 520 c 0,22,23
 152 681 152 681 228 786.5 c 128,-1,24
 304 892 304 892 453 938 c 1,25,26
 411 999 411 999 390.5 1054 c 128,-1,27
 370 1109 370 1109 370 1165 c 0,28,29
 370 1270 370 1270 447 1362 c 128,-1,30
 524 1454 524 1454 629 1454 c 0,31,32
 697 1454 697 1454 771 1415 c 0,33,34
 780 1409 780 1409 789 1409 c 0,35,36
 812 1409 812 1409 827 1454 c 1,37,-1
 873 1454 l 1,38,-1
 969 1173 l 1,39,-1
 923 1173 l 1,40,41
 868 1306 868 1306 768 1351 c 0,42,43
 683 1388 683 1388 627 1388 c 0,44,45
 562 1388 562 1388 521 1342.5 c 128,-1,46
 480 1297 480 1297 480 1225 c 0,47,48
 480 1094 480 1094 582 958 c 1,49,-1
 1113 288 l 1,50,51
 1211 434 1211 434 1234 532 c 0,52,53
 1251 610 1251 610 1251 662 c 0,54,55
 1251 759 1251 759 1189 759 c 2,56,-1
 1099 759 l 1,57,-1
 1099 809 l 1,58,-1
 1542 809 l 1,59,-1
 1542 759 l 1,60,-1
 1452 759 l 2,61,62
 1357 759 1357 759 1307 532 c 0,63,64
 1276 400 1276 400 1152 240 c 1,65,66
 1261 104 1261 104 1400 104 c 2,67,-1
 1416 104 l 1,68,69
 1559 121 1559 121 1608 232 c 1,70,-1
 1657 231 l 1,71,-1
 1554 0 l 1,72,-1
 1394 0 l 2,13,14
EndSplineSet
EndChar

StartChar: quotesingle
Encoding: 39 39 10
Width: 549
GlyphClass: 2
Flags: W
LayerCount: 2
Fore
SplineSet
324 1594 m 1,0,1
 398 1586 398 1586 414 1563 c 0,2,3
 427 1545 427 1545 390 1440 c 0,4,5
 351 1331 351 1331 309 1277 c 0,6,7
 256 1211 256 1211 158 1132 c 0,8,9
 51 1045 51 1045 30 1066 c 2,10,-1
 0 1096 l 1,11,12
 32 1118 32 1118 68 1157 c 0,13,14
 140 1237 140 1237 158 1328 c 0,15,16
 173 1398 173 1398 184 1490 c 0,17,18
 192 1559 192 1559 204 1594 c 1,19,-1
 324 1594 l 1,0,1
EndSplineSet
EndChar

StartChar: parenleft
Encoding: 40 40 11
Width: 758
GlyphClass: 2
Flags: W
LayerCount: 2
Fore
SplineSet
252 601 m 0,0,1
 254 878 254 878 351.5 1131 c 128,-1,2
 449 1384 449 1384 620 1573 c 1,3,-1
 700 1573 l 1,4,5
 528 1331 528 1331 470 1135 c 0,6,7
 413 942 413 942 413 612 c 2,8,-1
 413 590 l 2,9,10
 413 260 413 260 470 68 c 0,11,12
 528 -128 528 -128 700 -370 c 1,13,-1
 620 -370 l 1,14,15
 449 -181 449 -181 351.5 71.5 c 128,-1,16
 254 324 254 324 252 601 c 0,0,1
EndSplineSet
EndChar

StartChar: parenright
Encoding: 41 41 12
Width: 758
GlyphClass: 2
Flags: W
LayerCount: 2
Fore
SplineSet
138 -370 m 1,0,-1
 58 -370 l 1,1,2
 230 -128 230 -128 288 68 c 0,3,4
 345 260 345 260 345 590 c 2,5,-1
 345 612 l 2,6,7
 345 942 345 942 288 1135 c 0,8,9
 230 1331 230 1331 58 1573 c 1,10,-1
 138 1573 l 1,11,12
 309 1384 309 1384 406.5 1131 c 128,-1,13
 504 878 504 878 506 601 c 0,14,15
 504 324 504 324 406.5 71.5 c 128,-1,16
 309 -181 309 -181 138 -370 c 1,0,-1
EndSplineSet
EndChar

StartChar: asterisk
Encoding: 42 42 13
Width: 1024
GlyphClass: 2
Flags: W
LayerCount: 2
Fore
SplineSet
498 1294 m 1,0,1
 494 1365 494 1365 461 1424 c 0,2,3
 424 1490 424 1490 424 1508 c 0,4,5
 424 1540 424 1540 447.5 1559.5 c 128,-1,6
 471 1579 471 1579 510 1579 c 0,7,8
 547 1579 547 1579 571.5 1561 c 128,-1,9
 596 1543 596 1543 596 1514 c 0,10,11
 596 1493 596 1493 560 1425 c 0,12,13
 527 1364 527 1364 523 1295 c 1,14,15
 589 1320 589 1320 636 1370 c 0,16,17
 687 1425 687 1425 705 1431 c 0,18,19
 716 1434 716 1434 726 1434 c 0,20,21
 744 1434 744 1434 761 1424 c 0,22,23
 787 1407 787 1407 799 1371 c 0,24,25
 805 1352 805 1352 805 1335 c 0,26,27
 805 1320 805 1320 801 1307 c 0,28,29
 791 1277 791 1277 763 1269 c 0,30,31
 757 1267 757 1267 744 1267 c 0,32,33
 719 1267 719 1267 668 1276 c 0,34,35
 640 1281 640 1281 613 1281 c 0,36,37
 572 1281 572 1281 532 1270 c 1,38,39
 576 1215 576 1215 637 1187 c 0,40,41
 705 1155 705 1155 716 1140 c 0,42,43
 729 1122 729 1122 729 1102 c 0,44,45
 729 1093 729 1093 727 1085 c 0,46,47
 719 1055 719 1055 688 1032 c 0,48,49
 659 1010 659 1010 629 1010 c 0,50,51
 628 1010 628 1010 628 1011 c 1,52,53
 597 1011 597 1011 580 1034 c 0,54,55
 568 1051 568 1051 558 1128 c 0,56,57
 548 1195 548 1195 511 1253 c 1,58,59
 473 1195 473 1195 465 1129 c 0,60,61
 456 1054 456 1054 445 1039 c 0,62,63
 426 1014 426 1014 396 1012 c 2,64,-1
 391 1012 l 2,65,66
 363 1012 363 1012 334 1033 c 0,67,68
 304 1054 304 1054 295 1084 c 0,69,70
 291 1094 291 1094 291 1104 c 0,71,72
 291 1121 291 1121 302 1136 c 0,73,74
 315 1153 315 1153 385 1187 c 0,75,76
 446 1216 446 1216 490 1269 c 1,77,78
 449 1280 449 1280 410 1280 c 0,79,80
 383 1280 383 1280 357 1275 c 0,81,82
 303 1264 303 1264 279 1264 c 0,83,84
 270 1264 270 1264 265 1266 c 0,85,86
 235 1275 235 1275 224 1304 c 0,87,88
 218 1317 218 1317 218 1333 c 0,89,90
 218 1350 218 1350 224 1369 c 0,91,92
 235 1404 235 1404 260 1422 c 0,93,94
 277 1434 277 1434 294 1434 c 0,95,96
 303 1434 303 1434 312 1431 c 0,97,98
 332 1425 332 1425 386 1369 c 0,99,100
 433 1320 433 1320 498 1294 c 1,0,1
EndSplineSet
EndChar

StartChar: plus
Encoding: 43 43 14
Width: 1014
GlyphClass: 2
Flags: W
LayerCount: 2
Fore
SplineSet
437 647 m 1,0,-1
 87 647 l 1,1,-1
 87 787 l 1,2,-1
 437 787 l 1,3,-1
 437 1156 l 1,4,-1
 438 1157 l 1,5,-1
 577 1157 l 1,6,-1
 577 787 l 1,7,-1
 926 787 l 1,8,-1
 927 786 l 1,9,-1
 927 647 l 1,10,-1
 577 647 l 1,11,-1
 577 277 l 1,12,-1
 437 277 l 1,13,-1
 437 647 l 1,0,-1
EndSplineSet
EndChar

StartChar: comma
Encoding: 44 44 15
Width: 557
GlyphClass: 2
Flags: W
LayerCount: 2
Fore
SplineSet
114 65 m 1,0,1
 236 -25 236 -25 236 -53 c 256,2,3
 236 -81 236 -81 114 -299 c 1,4,5
 412 27 412 27 412 54 c 256,6,7
 412 81 412 81 253 193 c 1,8,-1
 114 65 l 1,0,1
EndSplineSet
EndChar

StartChar: hyphen
Encoding: 45 45 16
AltUni2: 0000ad.ffffffff.0
Width: 1584
GlyphClass: 2
Flags: W
LayerCount: 2
Fore
SplineSet
1306 606 m 1,0,-1
 1472 802 l 1,1,-1
 288 802 l 1,2,-1
 112 606 l 1,3,-1
 1306 606 l 1,0,-1
EndSplineSet
EndChar

StartChar: period
Encoding: 46 46 17
Width: 557
GlyphClass: 2
Flags: W
LayerCount: 2
Fore
SplineSet
145 167 m 2,0,-1
 227 251 l 2,1,2
 242 265 242 265 256 265 c 0,3,4
 269 265 269 265 287 249 c 2,5,-1
 367 163 l 2,6,7
 379 147 379 147 379 134 c 0,8,9
 379 119 379 119 365 103 c 2,10,-1
 285 15 l 2,11,12
 265 -5 265 -5 256 -5 c 0,13,14
 240 -5 240 -5 227 9 c 2,15,-1
 139 110 l 2,16,17
 129 123 129 123 129 136 c 0,18,19
 129 151 129 151 145 167 c 2,0,-1
EndSplineSet
EndChar

StartChar: slash
Encoding: 47 47 18
Width: 569
GlyphClass: 2
Flags: W
LayerCount: 2
Fore
SplineSet
93 -50 m 1,0,-1
 13 -50 l 1,1,-1
 554 1434 l 1,2,-1
 634 1434 l 1,3,-1
 93 -50 l 1,0,-1
EndSplineSet
EndChar

StartChar: zero
Encoding: 48 48 19
Width: 1256
GlyphClass: 2
Flags: W
LayerCount: 2
Fore
SplineSet
935 1300 m 0,1,2
 1149 1121 1149 1121 1149 776 c 0,3,4
 1149 418 1149 418 936 197 c 0,5,6
 753 7 753 7 528 7 c 0,7,8
 317 7 317 7 167 157 c 0,9,10
 0 324 0 324 0 600 c 0,11,12
 0 925 0 925 141 1163 c 0,13,14
 302 1434 302 1434 575 1434 c 0,15,0
 774 1434 774 1434 935 1300 c 0,1,2
185 720 m 0,17,18
 185 593 185 593 252 474 c 1,19,20
 269 477 269 477 279 479 c 0,21,22
 373 498 373 498 419 558 c 0,23,24
 483 640 483 640 427 776 c 1,25,-1
 650 869 l 2,26,27
 664 876 664 876 681 873 c 0,28,29
 716 869 716 869 733 822 c 0,30,31
 757 759 757 759 721 672 c 0,32,33
 680 571 680 571 580 507 c 0,34,35
 481 443 481 443 337 361 c 1,36,37
 483 211 483 211 667 211 c 0,38,39
 780 211 780 211 868 323 c 0,40,41
 964 447 964 447 964 637 c 0,42,43
 964 833 964 833 798 1011 c 0,44,45
 637 1184 637 1184 473 1184 c 0,46,16
 185 1184 185 1184 185 720 c 0,17,18
EndSplineSet
EndChar

StartChar: one
Encoding: 49 49 20
Width: 1540
GlyphClass: 2
Flags: W
LayerCount: 2
Fore
SplineSet
368 315 m 2,0,1
 368 232 368 232 236 118 c 0,2,3
 110 9 110 9 0 17 c 1,4,5
 194 2 194 2 275 11 c 0,6,7
 344 18 344 18 438 57 c 1,8,9
 540 111 540 111 594 189 c 0,10,11
 620 228 620 228 627 256 c 1,12,-1
 629 1151 l 1,13,14
 641 1190 641 1190 673 1230 c 0,15,16
 736 1310 736 1310 835 1310 c 0,17,18
 953 1310 953 1310 1064 1203 c 0,19,20
 1173 1098 1173 1098 1203 962 c 1,21,22
 1362 1091 1362 1091 1432 1180 c 1,23,24
 1375 1244 1375 1244 1284 1308 c 0,25,26
 1103 1436 1103 1436 935 1436 c 0,27,28
 655 1436 655 1436 484 1293 c 0,29,30
 398 1222 398 1222 368 1151 c 1,31,-1
 368 315 l 2,0,1
EndSplineSet
EndChar

StartChar: two
Encoding: 50 50 21
Width: 1540
GlyphClass: 2
Flags: W
LayerCount: 2
Fore
SplineSet
483 1291 m 0,1,2
 397 1219 397 1219 367 1148 c 1,3,-1
 367 315 l 2,4,5
 367 229 367 229 236 117 c 0,6,7
 110 9 110 9 0 17 c 1,8,9
 194 2 194 2 274 11 c 0,10,11
 343 18 343 18 437 57 c 1,12,13
 539 111 539 111 592 188 c 0,14,15
 619 227 619 227 625 255 c 1,16,-1
 626 585 l 1,17,18
 773 605 773 605 891 672 c 0,19,20
 1055 764 1055 764 1116 917 c 1,21,-1
 1052 979 l 1,22,-1
 861 932 l 1,23,24
 820 790 820 790 626 633 c 1,25,-1
 628 1148 l 1,26,27
 640 1188 640 1188 671 1228 c 0,28,29
 734 1307 734 1307 834 1307 c 0,30,31
 951 1307 951 1307 1062 1200 c 0,32,33
 1171 1096 1171 1096 1201 960 c 1,34,35
 1360 1089 1360 1089 1429 1178 c 1,36,37
 1372 1242 1372 1242 1281 1306 c 0,38,39
 1100 1433 1100 1433 933 1433 c 0,40,0
 654 1433 654 1433 483 1291 c 0,1,2
EndSplineSet
EndChar

StartChar: three
Encoding: 51 51 22
Width: 1540
GlyphClass: 2
Flags: W
LayerCount: 2
Fore
SplineSet
484 1294 m 0,1,2
 398 1223 398 1223 368 1151 c 1,3,-1
 368 315 l 2,4,5
 368 232 368 232 236 118 c 0,6,7
 111 10 111 10 0 17 c 1,8,9
 195 2 195 2 275 11 c 0,10,11
 344 18 344 18 438 57 c 1,12,13
 559 121 559 121 610 215 c 1,14,15
 758 235 758 235 877 302 c 0,16,17
 1041 395 1041 395 1102 548 c 1,18,-1
 1038 610 l 1,19,-1
 846 563 l 1,20,21
 807 428 807 428 627 276 c 1,22,-1
 628 589 l 1,23,24
 766 611 766 611 877 674 c 0,25,26
 1041 767 1041 767 1102 920 c 1,27,-1
 1038 982 l 1,28,-1
 846 935 l 1,29,30
 807 800 807 800 628 649 c 1,31,-1
 630 1151 l 1,32,33
 641 1191 641 1191 673 1231 c 0,34,35
 736 1311 736 1311 836 1311 c 0,36,37
 954 1311 954 1311 1065 1204 c 0,38,39
 1174 1099 1174 1099 1204 962 c 1,40,41
 1363 1092 1363 1092 1433 1181 c 1,42,43
 1376 1245 1376 1245 1285 1309 c 0,44,45
 1103 1437 1103 1437 935 1437 c 0,46,0
 656 1437 656 1437 484 1294 c 0,1,2
EndSplineSet
EndChar

StartChar: four
Encoding: 52 52 23
Width: 1500
GlyphClass: 2
Flags: W
LayerCount: 2
Fore
SplineSet
86 656 m 1,0,1
 0 761 0 761 0 895 c 0,2,3
 0 992 0 992 50 1102 c 0,4,5
 97 1205 97 1205 164 1270 c 0,6,7
 337 1437 337 1437 496 1440 c 0,8,9
 586 1441 586 1441 685 1346 c 0,10,11
 735 1298 735 1298 766 1250 c 2,12,-1
 1398 244 l 1,13,-1
 1197 7 l 1,14,-1
 77 7 l 1,15,-1
 217 197 l 1,16,-1
 1082 196 l 1,17,18
 547 1080 547 1080 517 1135 c 0,19,20
 489 1186 489 1186 409 1216 c 0,21,22
 312 1252 312 1252 249 1183 c 0,23,24
 189 1117 189 1117 232 999 c 0,25,26
 254 941 254 941 287 895 c 1,27,-1
 86 656 l 1,0,1
EndSplineSet
EndChar

StartChar: five
Encoding: 53 53 24
Width: 1381
GlyphClass: 2
Flags: W
LayerCount: 2
Fore
SplineSet
988 300 m 1,1,-1
 988 1236 l 1,2,3
 957 1286 957 1286 886 1335 c 0,4,5
 743 1434 743 1434 539 1433 c 0,6,7
 336 1432 336 1432 167 1267 c 0,8,9
 83 1185 83 1185 39 1103 c 1,10,11
 102 1147 102 1147 188 1190 c 0,12,13
 360 1277 360 1277 478 1275 c 256,14,15
 596 1273 596 1273 681 1199 c 0,16,17
 724 1162 724 1162 744 1126 c 1,18,-1
 744 798 l 1,19,20
 521 686 521 686 354 583 c 0,21,22
 195 485 195 485 98 367 c 0,23,24
 0 248 0 248 0 152 c 0,25,26
 0 72 0 72 49 31 c 0,27,28
 73 11 73 11 97 6 c 1,29,-1
 455 108 l 1,30,31
 335 186 335 186 335 206 c 0,32,33
 335 247 335 247 339 260 c 0,34,35
 360 321 360 321 448 437 c 0,36,37
 556 577 556 577 744 704 c 1,38,-1
 744 268 l 1,39,40
 740 255 740 255 758 227 c 0,41,42
 793 173 793 173 900 102 c 0,43,44
 1072 -12 1072 -12 1274 8 c 1,45,46
 1193 73 1193 73 1095 134 c 0,47,0
 998 196 998 196 988 300 c 1,1,-1
EndSplineSet
EndChar

StartChar: six
Encoding: 54 54 25
Width: 1475
GlyphClass: 2
Flags: W
LayerCount: 2
Fore
SplineSet
1287 192 m 1,0,-1
 1131 7 l 1,1,-1
 0 7 l 1,2,-1
 670 1184 l 1,3,4
 712 1246 712 1246 780 1309 c 0,5,6
 916 1433 916 1433 1050 1433 c 0,7,8
 1200 1433 1200 1433 1287 1306 c 0,9,10
 1363 1195 1363 1195 1363 1037 c 0,11,12
 1363 982 1363 982 1340 918 c 1,13,-1
 1082 668 l 1,14,15
 1105 707 1105 707 1121 769 c 0,16,17
 1152 892 1152 892 1112 1004 c 0,18,19
 1078 1097 1078 1097 1029 1134 c 0,20,21
 993 1160 993 1160 941 1160 c 0,22,23
 814 1160 814 1160 737 1037 c 0,24,25
 655 907 655 907 243 192 c 1,26,-1
 1287 192 l 1,0,-1
EndSplineSet
EndChar

StartChar: seven
Encoding: 55 55 26
Width: 1483
GlyphClass: 2
Flags: W
LayerCount: 2
Fore
SplineSet
478 1141 m 2,0,1
 478 1232 478 1232 411 1284 c 0,2,3
 365 1319 365 1319 317 1313 c 0,4,5
 266 1307 266 1307 153 1248 c 2,6,-1
 0 1169 l 1,7,8
 134 1360 134 1360 287 1408 c 0,9,10
 387 1439 387 1439 473 1433 c 0,11,12
 513 1430 513 1430 602 1408 c 0,13,14
 678 1389 678 1389 726 1265 c 1,15,-1
 726 596 l 1,16,-1
 984 724 l 1,17,18
 1032 725 1032 725 1094 710 c 0,19,20
 1218 680 1218 680 1290 596 c 256,21,22
 1362 512 1362 512 1346 392 c 0,23,24
 1338 331 1338 331 1316 288 c 0,25,26
 1295 246 1295 246 1255 198 c 0,27,28
 1177 101 1177 101 1089 69 c 0,29,30
 949 17 949 17 846 35 c 0,31,32
 735 53 735 53 671 147 c 1,33,-1
 478 13 l 1,34,-1
 478 1141 l 2,0,1
734 364 m 0,36,37
 765 282 765 282 857 230 c 0,38,39
 924 191 924 191 1055 179 c 1,40,41
 1080 247 1080 247 1088 333 c 0,42,43
 1098 449 1098 449 1027 505 c 0,44,45
 978 544 978 544 903 548 c 0,46,47
 874 550 874 550 822 515 c 0,48,49
 771 477 771 477 721 435 c 1,50,35
 718 405 718 405 734 364 c 0,36,37
EndSplineSet
EndChar

StartChar: eight
Encoding: 56 56 27
Width: 1494
GlyphClass: 2
Flags: W
LayerCount: 2
Fore
SplineSet
724 436 m 1,0,1
 773 478 773 478 824 516 c 0,2,3
 877 551 877 551 906 550 c 0,4,5
 981 546 981 546 1030 507 c 0,6,7
 1101 450 1101 450 1091 334 c 0,8,9
 1083 248 1083 248 1058 180 c 1,10,11
 926 192 926 192 859 230 c 0,12,13
 767 283 767 283 736 365 c 0,14,15
 721 406 721 406 724 436 c 1,0,1
1097 712 m 0,17,18
 1035 727 1035 727 987 726 c 1,19,-1
 728 598 l 1,20,-1
 728 1269 l 1,21,22
 680 1393 680 1393 604 1412 c 0,23,24
 428 1456 428 1456 288 1412 c 0,25,26
 134 1364 134 1364 0 1173 c 1,27,-1
 153 1252 l 2,28,29
 267 1311 267 1311 317 1317 c 0,30,31
 366 1323 366 1323 412 1288 c 0,32,33
 479 1236 479 1236 479 1144 c 2,34,-1
 479 1049 l 1,35,36
 378 1080 378 1080 300 1062 c 0,37,38
 178 1033 178 1033 0 842 c 1,39,40
 262 959 262 959 370 955 c 0,41,42
 424 953 424 953 479 924 c 1,43,-1
 479 13 l 1,44,-1
 673 147 l 1,45,46
 738 53 738 53 848 35 c 0,47,48
 952 17 952 17 1093 69 c 0,49,50
 1233 121 1233 121 1320 289 c 0,51,52
 1342 332 1342 332 1350 393 c 0,53,54
 1366 514 1366 514 1294 598 c 256,55,16
 1222 682 1222 682 1097 712 c 0,17,18
EndSplineSet
EndChar

StartChar: nine
Encoding: 57 57 28
Width: 1494
GlyphClass: 2
Flags: W
LayerCount: 2
Fore
SplineSet
724 436 m 1,0,1
 773 478 773 478 824 516 c 0,2,3
 877 551 877 551 906 550 c 0,4,5
 981 546 981 546 1030 507 c 0,6,7
 1101 450 1101 450 1091 334 c 0,8,9
 1083 248 1083 248 1058 180 c 1,10,11
 926 192 926 192 859 230 c 0,12,13
 767 283 767 283 736 365 c 0,14,15
 721 406 721 406 724 436 c 1,0,1
1097 712 m 0,17,18
 1035 727 1035 727 987 726 c 1,19,-1
 728 598 l 1,20,-1
 728 1269 l 1,21,22
 680 1393 680 1393 604 1412 c 0,23,24
 428 1456 428 1456 288 1412 c 0,25,26
 134 1364 134 1364 0 1173 c 1,27,-1
 153 1252 l 2,28,29
 267 1311 267 1311 317 1317 c 0,30,31
 366 1323 366 1323 412 1288 c 0,32,33
 479 1236 479 1236 479 1144 c 2,34,-1
 479 1049 l 1,35,36
 378 1080 378 1080 300 1062 c 0,37,38
 178 1033 178 1033 0 842 c 1,39,40
 262 959 262 959 370 955 c 0,41,42
 424 953 424 953 479 924 c 1,43,-1
 479 706 l 1,44,45
 378 737 378 737 300 719 c 0,46,47
 178 690 178 690 0 499 c 1,48,49
 262 616 262 616 370 612 c 0,50,51
 424 610 424 610 479 581 c 1,52,-1
 479 13 l 1,53,-1
 673 147 l 1,54,55
 738 53 738 53 848 35 c 0,56,57
 952 17 952 17 1093 69 c 0,58,59
 1233 121 1233 121 1320 289 c 0,60,61
 1342 332 1342 332 1350 393 c 0,62,63
 1366 514 1366 514 1294 598 c 256,64,16
 1222 682 1222 682 1097 712 c 0,17,18
EndSplineSet
EndChar

StartChar: less
Encoding: 60 60 31
Width: 1014
GlyphClass: 2
Flags: W
LayerCount: 2
Fore
SplineSet
927 1074 m 1,0,-1
 302 715 l 1,1,-1
 927 360 l 1,2,-1
 927 193 l 1,3,-1
 87 674 l 1,4,-1
 87 757 l 1,5,-1
 927 1241 l 1,6,-1
 927 1074 l 1,0,-1
EndSplineSet
EndChar

StartChar: equal
Encoding: 61 61 32
Width: 1014
GlyphClass: 2
Flags: W
LayerCount: 2
Fore
SplineSet
87 631 m 1,0,-1
 927 631 l 1,1,-1
 927 491 l 1,2,-1
 87 491 l 1,3,-1
 87 631 l 1,0,-1
87 943 m 1,4,-1
 927 943 l 1,5,-1
 927 803 l 1,6,-1
 87 803 l 1,7,-1
 87 943 l 1,4,-1
EndSplineSet
EndChar

StartChar: greater
Encoding: 62 62 33
Width: 1014
GlyphClass: 2
Flags: W
LayerCount: 2
Fore
SplineSet
87 1241 m 1,0,-1
 927 757 l 1,1,-1
 927 674 l 1,2,-1
 87 193 l 1,3,-1
 87 360 l 1,4,-1
 712 715 l 1,5,-1
 87 1074 l 1,6,-1
 87 1241 l 1,0,-1
EndSplineSet
EndChar

StartChar: question
Encoding: 63 63 34
Width: 897
GlyphClass: 2
Flags: W
LayerCount: 2
Fore
SplineSet
645 577 m 1,0,1
 561 481 561 481 515 444 c 0,2,3
 415 364 415 364 312 364 c 0,4,5
 177 364 177 364 82 466 c 0,6,7
 0 553 0 553 0 642 c 0,8,9
 0 709 0 709 50 786 c 0,10,11
 92 850 92 850 140 884 c 0,12,13
 195 922 195 922 364 1040 c 0,14,15
 390 1061 390 1061 409 1090 c 0,16,17
 448 1148 448 1148 415 1190 c 0,18,19
 372 1243 372 1243 332 1242 c 0,20,21
 288 1241 288 1241 258 1174 c 1,22,23
 236 1216 236 1216 236 1254 c 0,24,25
 236 1277 236 1277 274 1303 c 2,26,27
 316 1330 l 0,28,29
 346 1349 346 1349 367 1366 c 0,30,31
 447 1426 447 1426 472 1426 c 0,32,33
 488 1426 488 1426 547 1398 c 0,34,35
 609 1368 609 1368 638 1343 c 0,36,37
 685 1303 685 1303 705 1247 c 0,38,39
 728 1183 728 1183 705 1155 c 0,40,41
 691 1139 691 1139 586 1063 c 0,42,43
 449 963 449 963 421 941 c 0,44,45
 274 827 274 827 274 699 c 0,46,47
 274 629 274 629 311 600 c 0,48,49
 343 575 343 575 408 575 c 0,50,51
 509 575 509 575 608 645 c 0,52,53
 654 678 654 678 790 757 c 1,54,-1
 645 577 l 1,0,1
344 297 m 0,55,56
 362 297 362 297 426 239 c 0,57,58
 488 182 488 182 488 173 c 0,59,60
 488 166 488 166 440 90 c 0,61,62
 391 11 391 11 377 7 c 1,63,64
 359 8 359 8 226 160 c 1,65,66
 336 297 336 297 344 297 c 0,55,56
EndSplineSet
EndChar

StartChar: at
Encoding: 64 64 35
Width: 2019
GlyphClass: 2
Flags: W
LayerCount: 2
Fore
SplineSet
972 622 m 1,0,1
 889 612 889 612 821 542 c 128,-1,2
 753 472 753 472 753 343 c 0,3,4
 753 236 753 236 817 149 c 128,-1,5
 881 62 881 62 1000 62 c 1,6,7
 1097 67 1097 67 1126 229 c 1,8,-1
 1126 705 l 1,9,10
 1072 642 1072 642 972 622 c 1,0,1
1360 29 m 0,11,12
 1297 30 1297 30 1259.5 47 c 128,-1,13
 1222 64 1222 64 1198 101 c 1,14,15
 1169 64 1169 64 1116 36.5 c 128,-1,16
 1063 9 1063 9 983 9 c 0,17,18
 839 9 839 9 726.5 109.5 c 128,-1,19
 614 210 614 210 614 343 c 0,20,21
 615 430 615 430 667 509.5 c 128,-1,22
 719 589 719 589 799.5 624.5 c 128,-1,23
 880 660 880 660 973 674 c 1,24,25
 1040 690 1040 690 1083 716.5 c 128,-1,26
 1126 743 1126 743 1126 791 c 0,27,28
 1124 860 1124 860 1085 916 c 128,-1,29
 1046 972 1046 972 956 972 c 0,30,31
 884 972 884 972 834.5 913 c 128,-1,32
 785 854 785 854 784 788 c 1,33,-1
 739 788 l 1,34,-1
 739 947 l 2,35,36
 739 967 739 967 811 987 c 0,37,38
 884 1007 884 1007 989 1007 c 0,39,40
 1098 1005 1098 1005 1182.5 942.5 c 128,-1,41
 1267 880 1267 880 1267 785 c 2,42,-1
 1267 196 l 2,43,44
 1267 79 1267 79 1361 79 c 1,45,46
 1546 114 1546 114 1628 270.5 c 128,-1,47
 1710 427 1710 427 1710 653 c 1,48,49
 1690 988 1690 988 1478 1193 c 0,50,51
 1281 1381 1281 1381 998 1381 c 0,52,53
 793 1381 793 1381 605.5 1243.5 c 128,-1,54
 418 1106 418 1106 336 888 c 0,55,56
 269 710 269 710 269 527 c 0,57,58
 269 214 269 214 398.5 15.5 c 128,-1,59
 528 -183 528 -183 703.5 -275 c 128,-1,60
 879 -367 879 -367 1022 -367 c 0,61,62
 1296 -367 1296 -367 1597 -159 c 1,63,-1
 1597 -234 l 1,64,65
 1334 -418 1334 -418 1026 -418 c 0,66,67
 786 -418 786 -418 565 -295.5 c 128,-1,68
 344 -173 344 -173 222 46.5 c 128,-1,69
 100 266 100 266 100 508 c 256,70,71
 100 750 100 750 224 972.5 c 128,-1,72
 348 1195 348 1195 569.5 1314.5 c 128,-1,73
 791 1434 791 1434 1026 1434 c 0,74,75
 1388 1434 1388 1434 1635 1204 c 128,-1,76
 1882 974 1882 974 1882 638 c 0,77,78
 1882 368 1882 368 1706 199 c 0,79,80
 1531 31 1531 31 1360 29 c 0,11,12
EndSplineSet
EndChar

StartChar: A
Encoding: 65 65 36
Width: 1464
GlyphClass: 2
Flags: W
LayerCount: 2
Fore
SplineSet
626 263 m 0,0,1
 779 167 779 167 887 232 c 0,2,3
 1018 311 1018 311 1033 382 c 0,4,5
 1049 459 1049 459 949 598 c 0,6,7
 873 705 873 705 793 711 c 0,8,9
 739 716 739 716 612 660 c 0,10,11
 435 582 435 582 419 552 c 0,12,13
 407 530 407 530 422 493 c 0,14,15
 433 468 433 468 477 397 c 0,16,17
 517 332 517 332 626 263 c 0,0,1
1145 846 m 0,18,19
 1311 753 1311 753 1346 593 c 0,20,21
 1385 420 1385 420 1288 278 c 0,22,23
 1199 147 1199 147 1012 63 c 0,24,25
 781 -42 781 -42 410 174 c 0,26,27
 373 196 373 196 363 185 c 0,28,29
 357 178 357 178 357 139 c 0,30,31
 357 83 357 83 218 14 c 0,32,33
 176 -8 176 -8 134 4 c 0,34,35
 89 17 89 17 89 58 c 2,36,-1
 89 1266 l 2,37,38
 89 1277 89 1277 50 1248 c 0,39,40
 9 1217 9 1217 4 1226 c 0,41,42
 -2 1239 -2 1239 81 1309 c 0,43,44
 162 1378 162 1378 201 1396 c 0,45,46
 244 1415 244 1415 286 1420 c 0,47,48
 334 1425 334 1425 334 1400 c 0,49,50
 334 1396 334 1396 331 1339 c 0,51,52
 327 1280 327 1280 327 1240 c 0,53,54
 326 1108 326 1108 357 1119 c 0,55,56
 366 1123 366 1123 536 1254 c 0,57,58
 705 1384 705 1384 802 1418 c 0,59,60
 915 1457 915 1457 1124 1412 c 0,61,62
 1321 1369 1321 1369 1333 1329 c 0,63,64
 1343 1296 1343 1296 1283 1210 c 0,65,66
 1223 1125 1223 1125 1186 1115 c 0,67,68
 1165 1109 1165 1109 1003 1172 c 0,69,70
 829 1240 829 1240 753 1240 c 0,71,72
 657 1240 657 1240 488 1126 c 0,73,74
 325 1017 325 1017 325 972 c 2,75,-1
 325 696 l 2,76,77
 325 666 325 666 350 657 c 256,78,79
 375 648 375 648 415 665 c 1,80,81
 403 660 403 660 636 796 c 0,82,83
 833 912 833 912 900 914 c 0,84,85
 1014 919 1014 919 1145 846 c 0,18,19
EndSplineSet
EndChar

StartChar: B
Encoding: 66 66 37
Width: 1456
GlyphClass: 2
Flags: W
LayerCount: 2
Fore
SplineSet
822 1328 m 0,0,1
 825 1340 825 1340 836 1339 c 0,2,3
 890 1336 890 1336 981 1264 c 0,4,5
 1106 1165 1106 1165 1111 1024 c 0,6,7
 1120 736 1120 736 899 633 c 0,8,9
 834 603 834 603 826 609 c 0,10,11
 816 618 816 618 816 713 c 2,12,-1
 816 979 l 2,13,14
 816 1230 816 1230 816 1250 c 0,15,16
 817 1310 817 1310 822 1328 c 0,0,1
574 564 m 2,17,18
 574 503 574 503 602 477 c 0,19,20
 638 443 638 443 732 448 c 0,21,22
 864 456 864 456 1025 544 c 0,23,24
 1226 652 1226 652 1303 813 c 0,25,26
 1385 981 1385 981 1333 1150 c 0,27,28
 1288 1298 1288 1298 1167 1384 c 0,29,30
 1052 1467 1052 1467 805 1419 c 0,31,32
 545 1368 545 1368 384 1208 c 0,33,34
 227 1052 227 1052 127 891 c 0,35,36
 -4 677 -4 677 -1 498 c 0,37,38
 2 274 2 274 157 125 c 0,39,40
 334 -44 334 -44 608 14 c 0,41,42
 988 94 988 94 1279 482 c 0,43,44
 1287 493 1287 493 1265 474 c 0,45,46
 1219 435 1219 435 1177 404 c 0,47,48
 1008 282 1008 282 840 250 c 0,49,50
 615 206 615 206 493 243 c 0,51,52
 351 286 351 286 301 444 c 0,53,54
 254 595 254 595 304 795 c 0,55,56
 345 957 345 957 420 1066 c 0,57,58
 475 1146 475 1146 514 1177 c 0,59,60
 546 1203 546 1203 559 1190 c 0,61,62
 578 1172 578 1172 574 1089 c 1,63,-1
 574 564 l 2,17,18
EndSplineSet
EndChar

StartChar: C
Encoding: 67 67 38
Width: 1326
GlyphClass: 2
Flags: W
LayerCount: 2
Fore
SplineSet
596 365 m 0,0,1
 427 474 427 474 390 571 c 0,2,3
 346 686 346 686 375 788 c 0,4,5
 405 895 405 895 523 1021 c 0,6,7
 664 1172 664 1172 794 1231 c 0,8,9
 915 1285 915 1285 938 1279 c 0,10,11
 952 1276 952 1276 956 1256 c 0,12,13
 958 1243 958 1243 958 1200 c 2,14,-1
 958 362 l 2,15,16
 958 262 958 262 949 247 c 0,17,18
 932 221 932 221 851 243 c 0,19,20
 739 274 739 274 596 365 c 0,0,1
1199 1373 m 0,21,22
 1190 1401 1190 1401 1154 1423 c 0,23,24
 1111 1449 1111 1449 961 1413 c 0,25,26
 807 1375 807 1375 635 1294 c 0,27,28
 444 1203 444 1203 250 1028 c 0,29,30
 33 833 33 833 5 693 c 0,31,32
 -18 576 -18 576 56 448 c 0,33,34
 134 311 134 311 299 201 c 0,35,36
 470 87 470 87 695 32 c 0,37,38
 898 -16 898 -16 1015 8 c 0,39,40
 1112 29 1112 29 1164 93 c 0,41,42
 1207 146 1207 146 1207 210 c 0,43,44
 1207 238 1207 238 1205 747 c 256,45,46
 1203 1256 1203 1256 1203 1333 c 0,47,48
 1203 1362 1203 1362 1199 1373 c 0,21,22
EndSplineSet
EndChar

StartChar: D
Encoding: 68 68 39
Width: 1518
GlyphClass: 2
Flags: W
LayerCount: 2
Fore
SplineSet
436 247 m 0,0,1
 321 302 321 302 293 397 c 0,2,3
 223 632 223 632 394 864 c 0,4,5
 500 1007 500 1007 585 1074 c 0,6,7
 665 1136 665 1136 688 1120 c 0,8,9
 704 1108 704 1108 704 1029 c 2,10,-1
 704 351 l 2,11,12
 704 241 704 241 702 233 c 0,13,14
 692 199 692 199 628 200 c 0,15,16
 530 201 530 201 436 247 c 0,0,1
1252 1329 m 0,17,18
 1087 1442 1087 1442 989 1434 c 0,19,20
 922 1429 922 1429 727 1293 c 0,21,22
 548 1168 548 1168 457 1091 c 0,23,24
 45 743 45 743 9 513 c 0,25,26
 -27 286 -27 286 223 106 c 0,27,28
 354 11 354 11 531 1 c 0,29,30
 653 -6 653 -6 771 26 c 0,31,32
 847 47 847 47 885 99 c 0,33,34
 917 144 917 144 917 203 c 0,35,36
 917 238 917 238 915 689 c 0,37,38
 914 1141 914 1141 914 1169 c 0,39,40
 914 1243 914 1243 946 1282 c 0,41,42
 970 1311 970 1311 1005 1314 c 0,43,44
 1041 1318 1041 1318 1091 1268 c 0,45,46
 1139 1220 1139 1220 1159 1164 c 0,47,48
 1251 898 1251 898 1261 888 c 0,49,50
 1309 840 1309 840 1393 898 c 0,51,52
 1429 922 1429 922 1437 1000 c 0,53,54
 1444 1069 1444 1069 1428 1147 c 0,55,56
 1413 1220 1413 1220 1252 1329 c 0,17,18
EndSplineSet
EndChar

StartChar: E
Encoding: 69 69 40
Width: 1579
GlyphClass: 2
Flags: W
LayerCount: 2
Fore
SplineSet
258 1364 m 0,1,2
 245 1317 245 1317 248 1312 c 0,3,4
 277 1269 277 1269 280 1267 c 0,5,6
 321 1234 321 1234 403 1249 c 0,7,8
 443 1257 443 1257 597 1304 c 0,9,10
 720 1341 720 1341 805 1346 c 0,11,12
 941 1353 941 1353 1071 1307 c 0,13,14
 1238 1247 1238 1247 1340 1111 c 0,15,16
 1465 946 1465 946 1477 712 c 0,17,18
 1490 453 1490 453 1340 312 c 0,19,20
 1179 161 1179 161 1058 98 c 0,21,22
 930 31 930 31 742 7 c 0,23,24
 573 -16 573 -16 393 37 c 0,25,26
 245 80 245 80 210 124 c 0,27,28
 164 182 164 182 252 258 c 0,29,30
 303 301 303 301 326 311 c 0,31,32
 358 324 358 324 390 304 c 0,33,34
 398 299 398 299 446 265 c 0,35,36
 496 229 496 229 531 207 c 0,37,38
 648 132 648 132 700 132 c 0,39,40
 822 132 822 132 870 145 c 0,41,42
 990 177 990 177 1077 295 c 0,43,44
 1168 421 1168 421 1165 513 c 0,45,46
 1163 588 1163 588 1106 622 c 0,47,48
 1067 645 1067 645 816 644 c 0,49,50
 742 644 742 644 622 641 c 0,51,52
 507 638 507 638 482 638 c 0,53,54
 377 638 377 638 355 643 c 0,55,56
 318 651 318 651 307 689 c 0,57,58
 298 717 298 717 343 766 c 0,59,60
 394 823 394 823 461 823 c 0,61,62
 1079 823 1079 823 1093 831 c 0,63,64
 1124 848 1124 848 1113 938 c 0,65,66
 1100 1042 1100 1042 1022 1120 c 0,67,68
 932 1210 932 1210 844 1234 c 0,69,70
 752 1259 752 1259 641 1216 c 0,71,72
 597 1199 597 1199 537 1165 c 0,73,74
 452 1118 452 1118 443 1113 c 0,75,76
 334 1059 334 1059 236 1074 c 0,77,78
 117 1092 117 1092 51 1157 c 0,79,80
 -11 1218 -11 1218 5 1287 c 0,81,82
 19 1346 19 1346 136 1399 c 0,83,84
 180 1419 180 1419 218 1428 c 256,85,86
 256 1437 256 1437 261 1429 c 0,87,0
 271 1413 271 1413 258 1364 c 0,1,2
EndSplineSet
EndChar

StartChar: F
Encoding: 70 70 41
Width: 1268
GlyphClass: 2
Flags: W
LayerCount: 2
Fore
SplineSet
0 1035 m 2,0,1
 0 1101 0 1101 21 1139 c 0,2,3
 49 1189 49 1189 143 1266 c 0,4,5
 261 1362 261 1362 343 1396 c 0,6,7
 459 1443 459 1443 626 1434 c 0,8,9
 785 1426 785 1426 958 1336 c 0,10,11
 1091 1267 1091 1267 1134 1215 c 0,12,13
 1162 1183 1162 1183 1164 1168 c 0,14,15
 1166 1154 1166 1154 1147 1131 c 0,16,17
 1123 1103 1123 1103 1064 1052 c 0,18,19
 997 994 997 994 975 989 c 1,20,21
 993 993 993 993 815 1144 c 0,22,23
 647 1287 647 1287 471 1266 c 0,24,25
 369 1254 369 1254 305 1192 c 0,26,27
 244 1133 244 1133 244 1056 c 2,28,-1
 244 194 l 2,29,30
 244 115 244 115 227 94 c 0,31,32
 215 79 215 79 141 43 c 0,33,34
 70 8 70 8 42 1 c 0,35,36
 18 -5 18 -5 8 21 c 0,37,38
 0 44 0 44 0 106 c 2,39,-1
 0 1035 l 2,0,1
EndSplineSet
EndChar

StartChar: G
Encoding: 71 71 42
Width: 1645
GlyphClass: 2
Flags: W
LayerCount: 2
Fore
SplineSet
597 366 m 0,0,1
 428 474 428 474 391 571 c 0,2,3
 346 687 346 687 375 789 c 0,4,5
 405 896 405 896 523 1023 c 0,6,7
 665 1173 665 1173 795 1232 c 0,8,9
 916 1287 916 1287 939 1281 c 0,10,11
 953 1277 953 1277 957 1257 c 0,12,13
 959 1244 959 1244 959 1201 c 2,14,-1
 959 846 l 1,15,-1
 793 846 l 2,16,17
 747 846 747 846 711 813 c 0,18,19
 694 797 694 797 673 774 c 0,20,21
 643 741 643 741 634 732 c 0,22,23
 593 688 593 688 613 677 c 0,24,25
 632 666 632 666 744 666 c 0,26,27
 760 666 760 666 959 668 c 1,28,-1
 959 362 l 2,29,30
 959 263 959 263 950 248 c 0,31,32
 933 221 933 221 851 244 c 0,33,34
 740 274 740 274 597 366 c 0,0,1
1206 846 m 1,35,36
 1204 1262 1204 1262 1204 1334 c 0,37,38
 1204 1363 1204 1363 1201 1374 c 0,39,40
 1191 1402 1191 1402 1155 1424 c 0,41,42
 1112 1451 1112 1451 962 1414 c 0,43,44
 807 1377 807 1377 635 1295 c 0,45,46
 445 1204 445 1204 250 1029 c 0,47,48
 33 834 33 834 5 694 c 0,49,50
 -18 577 -18 577 56 448 c 0,51,52
 134 312 134 312 299 201 c 0,53,54
 471 87 471 87 696 32 c 0,55,56
 899 -16 899 -16 1016 8 c 0,57,58
 1113 29 1113 29 1165 93 c 0,59,60
 1209 146 1209 146 1209 210 c 0,61,62
 1209 240 1209 240 1207 671 c 1,63,64
 1251 671 1251 671 1279 671 c 0,65,66
 1364 671 1364 671 1385 678 c 0,67,68
 1397 681 1397 681 1430 711 c 0,69,70
 1469 745 1469 745 1519 797 c 0,71,72
 1554 833 1554 833 1524 842 c 0,73,74
 1511 846 1511 846 1447 846 c 2,75,-1
 1206 846 l 1,35,36
EndSplineSet
EndChar

StartChar: H
Encoding: 72 72 43
Width: 1486
GlyphClass: 2
Flags: W
LayerCount: 2
Fore
SplineSet
87 1218 m 1,1,2
 104 1208 104 1208 104 1173 c 0,3,4
 104 1155 104 1155 106 677 c 0,5,6
 108 200 108 200 108 135 c 0,7,8
 108 44 108 44 124 23 c 0,9,10
 144 -1 144 -1 213 30 c 0,11,12
 373 103 373 103 375 104 c 0,13,14
 396 122 396 122 400 150 c 0,15,16
 401 161 401 161 401 232 c 0,17,18
 401 270 401 270 399 434 c 0,19,20
 397 597 397 597 397 626 c 0,21,22
 397 684 397 684 400 693 c 0,23,24
 408 717 408 717 450 744 c 0,25,26
 518 794 518 794 585 832 c 24,27,28
 685 889 685 889 787 871 c 0,29,30
 905 850 905 850 981 724 c 0,31,32
 1062 591 1062 591 1023 447 c 0,33,34
 972 263 972 263 771 9 c 0,35,36
 757 -8 757 -8 796 7 c 0,37,38
 834 21 834 21 896 55 c 0,39,40
 1054 142 1054 142 1125 216 c 0,41,42
 1288 386 1288 386 1339 490 c 0,43,44
 1378 570 1378 570 1378 687 c 0,45,46
 1378 784 1378 784 1315 868 c 0,47,48
 1262 938 1262 938 1186 976 c 0,49,50
 1138 1000 1138 1000 1050 1025 c 0,51,52
 980 1045 980 1045 980 1051 c 0,53,54
 980 1053 980 1053 1067 1112 c 0,55,56
 1163 1177 1163 1177 1194 1226 c 0,57,58
 1231 1284 1231 1284 1221 1331 c 0,59,60
 1211 1371 1211 1371 1168 1397 c 0,61,62
 1128 1420 1128 1420 1026 1414 c 0,63,64
 923 1408 923 1408 888 1379 c 0,65,66
 860 1357 860 1357 873 1328 c 0,67,68
 891 1289 891 1289 888 1274 c 0,69,70
 866 1167 866 1167 734 1064 c 0,71,72
 527 902 527 902 445 902 c 0,73,74
 394 902 394 902 380 932 c 0,75,76
 371 953 371 953 371 1029 c 2,77,-1
 371 1313 l 2,78,79
 371 1434 371 1434 283 1432 c 0,80,81
 223 1430 223 1430 51 1300 c 0,82,83
 8 1268 8 1268 5 1257 c 0,84,85
 1 1245 1 1245 36 1234 c 0,86,0
 88 1217 88 1217 87 1218 c 1,1,2
EndSplineSet
EndChar

StartChar: I
Encoding: 73 73 44
Width: 487
GlyphClass: 2
Flags: W
LayerCount: 2
Fore
SplineSet
134 111 m 2,0,1
 134 36 134 36 149 13 c 0,2,3
 168 -14 168 -14 216 16 c 0,4,5
 302 70 302 70 332 85 c 0,6,7
 363 100 363 100 370 125 c 0,8,9
 375 144 375 144 375 223 c 0,10,11
 375 275 375 275 378 786 c 0,12,13
 380 1297 380 1297 380 1333 c 0,14,15
 380 1406 380 1406 365 1422 c 0,16,17
 342 1449 342 1449 263 1411 c 0,18,19
 47 1307 47 1307 18 1282 c 0,20,21
 -5 1262 -5 1262 5 1240 c 0,22,23
 16 1217 16 1217 57 1203 c 0,24,25
 112 1185 112 1185 125 1159 c 0,26,27
 134 1139 134 1139 134 1066 c 2,28,-1
 134 111 l 2,0,1
EndSplineSet
EndChar

StartChar: J
Encoding: 74 74 45
Width: 1321
GlyphClass: 2
Flags: W
LayerCount: 2
Fore
SplineSet
111 767 m 256,1,2
 109 489 109 489 109 434 c 0,3,4
 109 336 109 336 174 228 c 0,5,6
 251 98 251 98 377 49 c 0,7,8
 525 -8 525 -8 679 1 c 0,9,10
 851 11 851 11 988 104 c 0,11,12
 1094 175 1094 175 1165 288 c 0,13,14
 1190 328 1190 328 1203 361 c 0,15,16
 1215 391 1215 391 1209 392 c 1,17,18
 1213 391 1213 391 1132 326 c 0,19,20
 1036 249 1036 249 891 221 c 0,21,22
 719 187 719 187 615 203 c 0,23,24
 520 217 520 217 448 279 c 0,25,26
 382 337 382 337 357 383 c 0,27,28
 335 424 335 424 335 480 c 0,29,30
 335 567 335 567 339 580 c 0,31,32
 352 627 352 627 415 627 c 0,33,34
 465 627 465 627 684 630 c 0,35,36
 902 634 902 634 937 634 c 0,37,38
 990 634 990 634 1035 668 c 0,39,40
 1076 698 1076 698 1089 738 c 0,41,42
 1100 772 1100 772 1062 789 c 0,43,44
 1032 803 1032 803 979 803 c 0,45,46
 947 803 947 803 681 809 c 0,47,48
 414 815 414 815 398 815 c 0,49,50
 368 815 368 815 354 838 c 0,51,52
 339 865 339 865 339 928 c 0,53,54
 339 977 339 977 341 1150 c 0,55,56
 344 1324 344 1324 344 1342 c 0,57,58
 344 1388 344 1388 321 1416 c 0,59,60
 292 1452 292 1452 239 1421 c 0,61,62
 75 1327 75 1327 12 1272 c 0,63,64
 -8 1255 -8 1255 14 1234 c 0,65,66
 34 1215 34 1215 67 1208 c 0,67,68
 98 1201 98 1201 106 1180 c 0,69,70
 113 1162 113 1162 113 1099 c 0,71,0
 113 1045 113 1045 111 767 c 256,1,2
EndSplineSet
EndChar

StartChar: K
Encoding: 75 75 46
Width: 1335
GlyphClass: 2
Flags: W
LayerCount: 2
Fore
SplineSet
109 926 m 0,1,2
 112 770 112 770 112 715 c 0,3,4
 112 641 112 641 131 629 c 0,5,6
 148 620 148 620 207 649 c 0,7,8
 250 671 250 671 273 686 c 0,9,10
 300 706 300 706 311 711 c 0,11,12
 341 728 341 728 347 740 c 0,13,14
 355 757 355 757 352 817 c 0,15,16
 346 932 346 932 439 1035 c 0,17,18
 601 1213 601 1213 734 1213 c 0,19,20
 827 1213 827 1213 889 1150 c 0,21,22
 953 1084 953 1084 953 973 c 0,23,24
 953 872 953 872 896 818 c 0,25,26
 857 782 857 782 804 774 c 0,27,28
 760 766 760 766 742 792 c 0,29,30
 722 819 722 819 717 819 c 0,31,32
 699 819 699 819 557 736 c 0,33,34
 521 716 521 716 515 694 c 0,35,36
 511 679 511 679 511 595 c 2,37,-1
 511 305 l 2,38,39
 511 263 511 263 457 193 c 0,40,41
 405 127 405 127 344 85 c 0,42,43
 302 56 302 56 244 34 c 0,44,45
 203 18 203 18 203 10 c 0,46,47
 203 -6 203 -6 316 4 c 0,48,49
 441 15 441 15 526 56 c 0,50,51
 619 101 619 101 667 156 c 0,52,53
 711 206 711 206 734 284 c 0,54,55
 750 341 750 341 750 562 c 0,56,57
 750 587 750 587 809 608 c 0,58,59
 912 645 912 645 974 682 c 0,60,61
 1087 748 1087 748 1155 857 c 0,62,63
 1230 976 1230 976 1227 1109 c 0,64,65
 1224 1247 1224 1247 1103 1346 c 0,66,67
 985 1442 985 1442 846 1433 c 0,68,69
 667 1421 667 1421 423 1217 c 0,70,71
 380 1182 380 1182 368 1184 c 0,72,73
 350 1186 350 1186 352 1246 c 0,74,75
 358 1447 358 1447 269 1400 c 0,76,77
 197 1361 197 1361 44 1246 c 0,78,79
 -1 1212 -1 1212 7 1195 c 0,80,81
 13 1183 13 1183 53 1176 c 0,82,83
 88 1170 88 1170 98 1159 c 0,84,85
 107 1149 107 1149 107 1118 c 0,86,0
 107 1081 107 1081 109 926 c 0,1,2
EndSplineSet
EndChar

StartChar: L
Encoding: 76 76 47
Width: 1299
GlyphClass: 2
Flags: W
LayerCount: 2
Fore
SplineSet
475 671 m 0,1,2
 473 321 473 321 473 289 c 0,3,4
 473 221 473 221 463 200 c 0,5,6
 447 165 447 165 394 165 c 2,7,-1
 171 165 l 2,8,9
 102 165 102 165 59 107 c 2,10,-1
 22 58 l 2,11,12
 -4 25 -4 25 -3 15 c 0,13,14
 -3 0 -3 0 43 0 c 0,15,16
 73 0 73 0 403 4 c 256,17,18
 733 8 733 8 779 8 c 0,19,20
 836 8 836 8 897 42 c 0,21,22
 933 62 933 62 1018 128 c 0,23,24
 1079 176 1079 176 1141 260 c 0,25,26
 1162 289 1162 289 1177 313 c 256,27,28
 1182 322 1182 322 1184 331 c 1,29,30
 1174 322 1174 322 1127 284 c 0,31,32
 1069 237 1069 237 1018 207 c 0,33,34
 929 153 929 153 758 153 c 0,35,36
 731 153 731 153 725 170 c 0,37,38
 721 183 721 183 721 248 c 2,39,-1
 721 1352 l 2,40,41
 721 1411 721 1411 697 1426 c 0,42,43
 670 1443 670 1443 605 1410 c 0,44,45
 425 1320 425 1320 353 1269 c 0,46,47
 327 1252 327 1252 357 1233 c 0,48,49
 365 1229 365 1229 387 1218 c 0,50,51
 407 1209 407 1209 415 1203 c 0,52,53
 449 1179 449 1179 457 1169 c 0,54,55
 477 1141 477 1141 477 1087 c 0,56,0
 477 1022 477 1022 475 671 c 0,1,2
EndSplineSet
EndChar

StartChar: M
Encoding: 77 77 48
Width: 1907
GlyphClass: 2
Flags: W
LayerCount: 2
Fore
SplineSet
1111 247 m 0,1,2
 1054 293 1054 293 1024 354 c 0,3,4
 982 438 982 438 599 1123 c 1,5,6
 665 1208 665 1208 705 1219 c 0,7,8
 762 1234 762 1234 814 1131 c 0,9,10
 862 1035 862 1035 1292 241 c 1,11,12
 1255 203 1255 203 1204 203 c 0,13,0
 1165 203 1165 203 1111 247 c 0,1,2
385 220 m 0,15,16
 311 240 311 240 269 320 c 0,17,18
 234 386 234 386 234 455 c 2,19,-1
 234 1031 l 2,20,21
 237 1119 237 1119 284 1116 c 0,22,23
 330 1114 330 1114 373 1035 c 0,24,25
 427 934 427 934 734 317 c 1,26,27
 700 275 700 275 646 237 c 0,28,14
 555 174 555 174 385 220 c 0,15,16
1750 243 m 0,30,31
 1719 224 1719 224 1691 224 c 0,32,33
 1605 224 1605 224 1460 455 c 0,34,35
 1397 556 1397 556 1218 889 c 0,36,37
 1037 1228 1037 1228 1011 1270 c 0,38,39
 896 1457 896 1457 746 1430 c 0,40,41
 633 1409 633 1409 549 1274 c 1,42,43
 473 1367 473 1367 364 1413 c 0,44,45
 217 1475 217 1475 83 1325 c 0,46,47
 3 1235 3 1235 3 1127 c 2,48,-1
 3 363 l 2,49,50
 3 239 3 239 90 129 c 0,51,52
 184 11 184 11 314 2 c 0,53,54
 527 -13 527 -13 662 98 c 0,55,56
 734 157 734 157 788 258 c 1,57,58
 826 212 826 212 877 140 c 0,59,60
 920 79 920 79 994 46 c 0,61,62
 1080 6 1080 6 1171 27 c 0,63,64
 1301 56 1301 56 1351 157 c 1,65,66
 1381 107 1381 107 1444 69 c 0,67,68
 1496 38 1496 38 1576 49 c 0,69,70
 1665 62 1665 62 1721 123 c 0,71,72
 1773 181 1773 181 1787 226 c 0,73,74
 1792 242 1792 242 1790 253 c 0,75,76
 1789 262 1789 262 1784 262 c 0,77,29
 1782 262 1782 262 1750 243 c 0,30,31
EndSplineSet
EndChar

StartChar: N
Encoding: 78 78 49
Width: 1524
GlyphClass: 2
Flags: W
LayerCount: 2
Fore
SplineSet
103 575 m 0,1,2
 101 106 101 106 101 76 c 0,3,4
 101 20 101 20 117 6 c 0,5,6
 136 -10 136 -10 192 15 c 0,7,8
 230 32 230 32 264 44 c 0,9,10
 286 52 286 52 306 63 c 0,11,12
 335 79 335 79 342 93 c 0,13,14
 350 107 350 107 350 146 c 0,15,16
 350 351 350 351 371 356 c 0,17,18
 380 358 380 358 448 296 c 0,19,20
 534 218 534 218 607 177 c 0,21,22
 713 117 713 117 850 107 c 0,23,24
 1000 96 1000 96 1105 155 c 0,25,26
 1223 220 1223 220 1284 352 c 0,27,28
 1350 494 1350 494 1328 670 c 0,29,30
 1308 831 1308 831 1261 915 c 0,31,32
 1251 932 1251 932 1145 1068 c 0,33,34
 1095 1131 1095 1131 1034 1186 c 0,35,36
 991 1225 991 1225 983 1247 c 0,37,38
 976 1269 976 1269 1324 1269 c 0,39,40
 1352 1269 1352 1269 1363 1285 c 0,41,42
 1366 1290 1366 1290 1372 1304 c 0,43,44
 1380 1321 1380 1321 1385 1330 c 0,45,46
 1417 1388 1417 1388 1419 1397 c 0,47,48
 1428 1435 1428 1435 1372 1435 c 2,49,-1
 931 1435 l 2,50,51
 902 1435 902 1435 874 1412 c 0,52,53
 871 1409 871 1409 827 1365 c 0,54,55
 781 1319 781 1319 760 1278 c 0,56,57
 747 1252 747 1252 763 1231 c 0,58,59
 776 1212 776 1212 848 1151 c 0,60,61
 965 1050 965 1050 1001 1001 c 0,62,63
 1085 888 1085 888 1079 740 c 0,64,65
 1072 559 1072 559 993 476 c 0,66,67
 905 383 905 383 721 408 c 0,68,69
 544 432 544 432 447 540 c 0,70,71
 366 630 366 630 363 745 c 0,72,73
 358 876 358 876 358 1348 c 0,74,75
 358 1407 358 1407 328 1427 c 256,76,77
 298 1447 298 1447 249 1417 c 0,78,79
 148 1355 148 1355 22 1282 c 1,80,81
 -13 1253 -13 1253 0 1224 c 0,82,83
 12 1195 12 1195 52 1195 c 0,84,85
 105 1195 105 1195 105 1103 c 0,86,0
 105 1043 105 1043 103 575 c 0,1,2
EndSplineSet
EndChar

StartChar: O
Encoding: 79 79 50
Width: 1555
GlyphClass: 2
Flags: W
LayerCount: 2
Fore
SplineSet
421 419 m 0,1,2
 260 576 260 576 242 817 c 0,3,4
 223 1060 223 1060 370 1174 c 0,5,6
 550 1315 550 1315 774 1235 c 0,7,8
 943 1174 943 1174 1061 1034 c 0,9,10
 1178 896 1178 896 1221 670 c 0,11,12
 1273 390 1273 390 1112 257 c 0,13,0
 826 21 826 21 421 419 c 0,1,2
745 1433 m 0,15,16
 493 1402 493 1402 310 1238 c 0,17,18
 73 1025 73 1025 16 765 c 0,19,20
 -49 471 -49 471 157 240 c 0,21,22
 369 4 369 4 647 0 c 0,23,24
 906 -4 906 -4 1159 190 c 0,25,26
 1407 378 1407 378 1440 681 c 0,27,28
 1475 993 1475 993 1257 1242 c 0,29,14
 1056 1471 1056 1471 745 1433 c 0,15,16
EndSplineSet
EndChar

StartChar: P
Encoding: 80 80 51
Width: 1535
GlyphClass: 2
Flags: W
LayerCount: 2
Fore
SplineSet
850 187 m 0,1,2
 835 204 835 204 835 272 c 2,3,-1
 835 736 l 2,4,5
 835 784 835 784 846 803 c 0,6,7
 859 826 859 826 898 832 c 0,8,9
 965 843 965 843 1041 787 c 0,10,11
 1144 711 1144 711 1146 556 c 0,12,13
 1149 399 1149 399 1073 304 c 0,14,15
 1028 247 1028 247 931 196 c 0,16,0
 871 165 871 165 850 187 c 0,1,2
1124 1020 m 0,18,19
 1036 1041 1036 1041 965 1018 c 0,20,21
 772 957 772 957 664 872 c 0,22,23
 626 842 626 842 615 786 c 0,24,25
 609 756 609 756 609 676 c 0,26,27
 609 625 609 625 607 451 c 0,28,29
 605 276 605 276 605 247 c 0,30,31
 605 170 605 170 602 165 c 0,32,33
 586 142 586 142 501 196 c 0,34,35
 402 260 402 260 337 378 c 0,36,37
 271 500 271 500 266 636 c 0,38,39
 260 812 260 812 317 965 c 0,40,41
 376 1124 376 1124 484 1200 c 0,42,43
 611 1291 611 1291 696 1305 c 0,44,45
 785 1320 785 1320 915 1269 c 0,46,47
 1108 1193 1108 1193 1174 1226 c 0,48,49
 1204 1241 1204 1241 1238 1283 c 0,50,51
 1271 1324 1271 1324 1274 1347 c 0,52,53
 1278 1374 1278 1374 1203 1404 c 0,54,55
 1118 1439 1118 1439 1007 1436 c 0,56,57
 535 1424 535 1424 296 1217 c 0,58,59
 124 1069 124 1069 44 818 c 0,60,61
 -41 551 -41 551 40 343 c 0,62,63
 117 147 117 147 360 57 c 0,64,65
 557 -15 557 -15 768 4 c 0,66,67
 959 21 959 21 1146 151 c 0,68,69
 1354 296 1354 296 1404 489 c 0,70,71
 1451 673 1451 673 1405 786 c 0,72,73
 1378 852 1378 852 1284 938 c 0,74,17
 1217 999 1217 999 1124 1020 c 0,18,19
EndSplineSet
EndChar

StartChar: Q
Encoding: 81 81 52
Width: 1238
GlyphClass: 2
Flags: W
LayerCount: 2
Fore
SplineSet
892 571 m 256,1,2
 894 199 894 199 894 174 c 0,3,4
 894 106 894 106 901 96 c 0,5,6
 913 79 913 79 973 99 c 0,7,8
 1066 131 1066 131 1082 142 c 0,9,10
 1126 173 1126 173 1126 252 c 0,11,12
 1126 313 1126 313 1130 673 c 256,13,14
 1134 1033 1134 1033 1134 1088 c 0,15,16
 1134 1172 1134 1172 1120 1204 c 256,17,18
 1106 1236 1106 1236 1035 1307 c 0,19,20
 955 1387 955 1387 792 1418 c 0,21,22
 605 1453 605 1453 398 1398 c 0,23,24
 267 1363 267 1363 138 1230 c 0,25,26
 7 1094 7 1094 1 980 c 0,27,28
 -5 871 -5 871 67 767 c 0,29,30
 134 671 134 671 220 641 c 0,31,32
 335 601 335 601 351 587 c 0,33,34
 377 565 377 565 381 488 c 0,35,36
 388 368 388 368 373 300 c 0,37,38
 347 175 347 175 253 124 c 0,39,40
 9 -8 9 -8 9 13 c 1,41,42
 9 -5 9 -5 125 2 c 0,43,44
 247 8 247 8 340 37 c 0,45,46
 435 67 435 67 515 142 c 0,47,48
 589 211 589 211 609 277 c 0,49,50
 624 328 624 328 620 521 c 0,51,52
 619 570 619 570 616 668 c 0,53,54
 613 749 613 749 613 774 c 0,55,56
 613 844 613 844 597 863 c 0,57,58
 583 881 583 881 526 881 c 0,59,60
 500 881 500 881 463 863 c 0,61,62
 430 846 430 846 398 852 c 0,63,64
 329 864 329 864 305 949 c 0,65,66
 282 1031 282 1031 311 1133 c 0,67,68
 339 1232 339 1232 447 1284 c 0,69,70
 553 1335 553 1335 663 1307 c 0,71,72
 764 1281 764 1281 831 1200 c 0,73,74
 890 1127 890 1127 890 1055 c 0,75,0
 890 943 890 943 892 571 c 256,1,2
EndSplineSet
EndChar

StartChar: R
Encoding: 82 82 53
Width: 1335
GlyphClass: 2
Flags: W
LayerCount: 2
Fore
SplineSet
103 567 m 0,1,2
 105 130 105 130 105 92 c 0,3,4
 105 19 105 19 124 5 c 0,5,6
 144 -11 144 -11 203 24 c 0,7,8
 248 50 248 50 268 65 c 0,9,10
 286 79 286 79 301 87 c 0,11,12
 329 103 329 103 334 123 c 0,13,14
 339 140 339 140 339 207 c 2,15,-1
 339 935 l 2,16,17
 339 1025 339 1025 343 1039 c 0,18,19
 353 1075 353 1075 407 1121 c 0,20,21
 628 1307 628 1307 687 1321 c 0,22,23
 783 1344 783 1344 847 1280 c 0,24,25
 915 1213 915 1213 906 1089 c 0,26,27
 898 980 898 980 806 895 c 0,28,29
 778 870 778 870 680 807 c 0,30,31
 636 779 636 779 631 771 c 0,32,33
 616 750 616 750 616 684 c 0,34,35
 616 632 616 632 612 372 c 256,36,37
 608 112 608 112 608 79 c 0,38,39
 608 27 608 27 624 18 c 0,40,41
 638 10 638 10 689 24 c 0,42,43
 755 41 755 41 986 135 c 0,44,45
 1220 230 1220 230 1230 254 c 1,46,47
 1211 236 1211 236 1041 202 c 0,48,49
 859 165 859 165 859 313 c 0,50,51
 859 460 859 460 857 542 c 256,52,53
 855 624 855 624 855 620 c 1,54,55
 855 681 855 681 936 731 c 0,56,57
 1087 824 1087 824 1110 845 c 0,58,59
 1240 964 1240 964 1221 1123 c 0,60,61
 1201 1292 1201 1292 1038 1375 c 0,62,63
 906 1442 906 1442 765 1426 c 0,64,65
 694 1418 694 1418 559 1358 c 0,66,67
 445 1308 445 1308 403 1319 c 0,68,69
 362 1330 362 1330 327 1386 c 0,70,71
 296 1436 296 1436 267 1434 c 0,72,73
 219 1430 219 1430 111 1356 c 0,74,75
 0 1280 0 1280 0 1244 c 0,76,77
 0 1219 0 1219 50 1176 c 0,78,79
 101 1134 101 1134 101 1093 c 0,80,0
 101 1003 101 1003 103 567 c 0,1,2
EndSplineSet
EndChar

StartChar: S
Encoding: 83 83 54
Width: 1288
GlyphClass: 2
Flags: W
LayerCount: 2
Fore
SplineSet
2 564 m 256,1,2
 0 161 0 161 0 121 c 0,3,4
 0 61 0 61 16 54 c 0,5,6
 22 51 22 51 76 58 c 0,7,8
 117 64 117 64 161 88 c 0,9,10
 201 109 201 109 214 130 c 0,11,12
 235 161 235 161 235 230 c 2,13,-1
 235 457 l 2,14,15
 235 494 235 494 245 507 c 0,16,17
 256 525 256 525 311 558 c 0,18,19
 330 569 330 569 386 608 c 0,20,21
 450 651 450 651 483 673 c 0,22,23
 610 754 610 754 659 759 c 0,24,25
 733 767 733 767 806 693 c 0,26,27
 893 604 893 604 890 461 c 0,28,29
 885 252 885 252 761 125 c 0,30,31
 638 -1 638 -1 638 12 c 1,32,33
 638 -5 638 -5 676 2 c 0,34,35
 712 9 712 9 770 35 c 0,36,37
 908 97 908 97 1016 193 c 0,38,39
 1133 296 1133 296 1164 363 c 0,40,41
 1198 435 1198 435 1180 558 c 0,42,43
 1146 780 1146 780 949 868 c 0,44,45
 741 962 741 962 579 868 c 0,46,47
 564 860 564 860 450 789 c 0,48,49
 359 732 359 732 327 717 c 0,50,51
 284 697 284 697 269 708 c 0,52,53
 252 720 252 720 252 780 c 2,54,-1
 252 1045 l 2,55,56
 252 1116 252 1116 319 1171 c 0,57,58
 437 1267 437 1267 550 1267 c 0,59,60
 677 1267 677 1267 840 1141 c 0,61,62
 858 1127 858 1127 896 1096 c 0,63,64
 923 1074 923 1074 936 1065 c 0,65,66
 969 1043 969 1043 1007 1049 c 0,67,68
 1047 1055 1047 1055 1111 1119 c 0,69,70
 1167 1175 1167 1175 1180 1204 c 0,71,72
 1198 1247 1198 1247 1083 1326 c 0,73,74
 1015 1373 1015 1373 871 1407 c 0,75,76
 691 1450 691 1450 546 1423 c 0,77,78
 360 1387 360 1387 193 1279 c 0,79,80
 4 1157 4 1157 4 1032 c 0,81,0
 4 967 4 967 2 564 c 256,1,2
EndSplineSet
EndChar

StartChar: T
Encoding: 84 84 55
Width: 1246
GlyphClass: 2
Flags: W
LayerCount: 2
Fore
SplineSet
906 98 m 2,0,1
 906 26 906 26 924 8 c 0,2,3
 941 -9 941 -9 994 10 c 0,4,5
 1075 41 1075 41 1103 63 c 256,6,7
 1131 85 1131 85 1138 111 c 0,8,9
 1142 132 1142 132 1142 211 c 0,10,11
 1142 258 1142 258 1138 678 c 0,12,13
 1134 1099 1134 1099 1134 1168 c 0,14,15
 1134 1260 1134 1260 1053 1320 c 0,16,17
 987 1369 987 1369 845 1409 c 0,18,19
 708 1447 708 1447 538 1421 c 0,20,21
 352 1391 352 1391 225 1295 c 0,22,23
 103 1203 103 1203 43 1140 c 0,24,25
 -6 1089 -6 1089 2 1077 c 1,26,27
 -1 1087 -1 1087 110 1162 c 0,28,29
 256 1260 256 1260 456 1273 c 0,30,31
 671 1287 671 1287 823 1195 c 0,32,33
 876 1162 876 1162 894 1117 c 0,34,35
 906 1087 906 1087 906 1033 c 2,36,-1
 906 98 l 2,0,1
EndSplineSet
EndChar

StartChar: U
Encoding: 85 85 56
Width: 1659
GlyphClass: 2
Flags: W
LayerCount: 2
Fore
SplineSet
895 174 m 0,1,2
 872 206 872 206 872 296 c 2,3,-1
 872 1081 l 2,4,5
 872 1144 872 1144 888 1167 c 0,6,7
 906 1192 906 1192 961 1195 c 0,8,9
 1044 1200 1044 1200 1136 1111 c 0,10,11
 1258 993 1258 993 1286 773 c 0,12,13
 1313 556 1313 556 1190 374 c 0,14,15
 1111 257 1111 257 990 178 c 0,16,0
 923 134 923 134 895 174 c 0,1,2
1207 1401 m 0,18,19
 1123 1434 1123 1434 1020 1406 c 0,20,21
 935 1383 935 1383 821 1312 c 0,22,23
 720 1250 720 1250 670 1199 c 0,24,25
 631 1161 631 1161 622 1108 c 0,26,27
 619 1090 619 1090 619 1020 c 0,28,29
 619 981 619 981 621 657 c 256,30,31
 623 333 623 333 623 288 c 0,32,33
 623 220 623 220 602 197 c 0,34,35
 580 172 580 172 531 191 c 0,36,37
 421 232 421 232 365 277 c 0,38,39
 252 370 252 370 261 516 c 0,40,41
 269 661 269 661 339 818 c 0,42,43
 363 871 363 871 403 948 c 0,44,45
 457 1048 457 1048 467 1069 c 0,46,47
 532 1198 532 1198 537 1258 c 0,48,49
 542 1322 542 1322 488 1364 c 0,50,51
 405 1428 405 1428 342 1432 c 0,52,53
 278 1436 278 1436 218 1377 c 0,54,55
 121 1279 121 1279 108 1239 c 0,56,57
 95 1196 95 1196 167 1195 c 0,58,59
 179 1195 179 1195 205 1199 c 0,60,61
 234 1203 234 1203 247 1203 c 0,62,63
 296 1205 296 1205 319 1173 c 0,64,65
 333 1154 333 1154 327 1132 c 0,66,67
 322 1114 322 1114 296 1078 c 0,68,69
 187 923 187 923 147 853 c 0,70,71
 25 642 25 642 6 536 c 0,72,73
 -24 374 -24 374 96 237 c 0,74,75
 317 -15 317 -15 763 1 c 0,76,77
 943 8 943 8 1126 129 c 0,78,79
 1319 258 1319 258 1442 469 c 0,80,81
 1685 889 1685 889 1425 1216 c 0,82,17
 1310 1360 1310 1360 1207 1401 c 0,18,19
EndSplineSet
EndChar

StartChar: V
Encoding: 86 86 57
Width: 1612
GlyphClass: 2
Flags: W
LayerCount: 2
Fore
SplineSet
143 95 m 2,0,1
 143 15 143 15 178 3 c 0,2,3
 226 -14 226 -14 358 78 c 0,4,5
 805 390 805 390 1375 793 c 1,6,7
 1489 903 1489 903 1499 1039 c 0,8,9
 1508 1173 1508 1173 1415 1293 c 0,10,11
 1324 1410 1324 1410 1228 1431 c 0,12,13
 1136 1453 1136 1453 1016 1389 c 0,14,15
 903 1330 903 1330 765 1226 c 0,16,17
 632 1127 632 1127 639 1113 c 1,18,19
 641 1120 641 1120 785 1178 c 0,20,21
 945 1242 945 1242 1033 1183 c 0,22,23
 1156 1101 1156 1101 1182 996 c 0,24,25
 1212 872 1212 872 1090 753 c 0,26,27
 898 566 898 566 472 275 c 0,28,29
 405 230 405 230 394 247 c 0,30,31
 389 255 389 255 389 350 c 2,32,-1
 389 1284 l 2,33,34
 389 1388 389 1388 370 1418 c 0,35,36
 344 1459 344 1459 266 1420 c 0,37,38
 169 1372 169 1372 25 1275 c 0,39,40
 -20 1245 -20 1245 15 1215 c 0,41,42
 46 1187 46 1187 90 1187 c 0,43,44
 120 1187 120 1187 135 1139 c 0,45,46
 142 1115 142 1115 143 1091 c 2,47,-1
 143 95 l 2,0,1
EndSplineSet
EndChar

StartChar: W
Encoding: 87 87 58
Width: 1882
GlyphClass: 2
Flags: W
LayerCount: 2
Fore
SplineSet
101 87 m 2,0,1
 101 15 101 15 100 23 c 1,2,3
 103 -2 103 -2 119 0 c 0,4,5
 152 5 152 5 337 166 c 0,6,7
 412 231 412 231 560 348 c 0,8,9
 740 490 740 490 797 537 c 0,10,11
 1070 762 1070 762 1123 882 c 0,12,13
 1178 1005 1178 1005 1171 1102 c 0,14,15
 1168 1151 1168 1151 1154 1175 c 1,16,17
 1185 1192 1185 1192 1231 1198 c 0,18,19
 1322 1209 1322 1209 1394 1149 c 0,20,21
 1512 1049 1512 1049 1495 913 c 0,22,23
 1479 790 1479 790 1359 664 c 0,24,25
 1210 505 1210 505 904 234 c 0,26,27
 651 8 651 8 656 8 c 0,28,29
 679 8 679 8 1451 598 c 0,30,31
 1690 781 1690 781 1754 949 c 0,32,33
 1811 1099 1811 1099 1731 1249 c 0,34,35
 1663 1376 1663 1376 1518 1405 c 0,36,37
 1399 1429 1399 1429 1298 1385 c 0,38,39
 1185 1335 1185 1335 1106 1262 c 1,40,41
 1075 1322 1075 1322 1022 1371 c 0,42,43
 915 1470 915 1470 800 1415 c 0,44,45
 617 1328 617 1328 385 1144 c 1,46,47
 518 1190 518 1190 646 1196 c 0,48,49
 902 1208 902 1208 874 1009 c 0,50,51
 846 803 846 803 692 617 c 0,52,53
 609 517 609 517 464 402 c 0,54,55
 371 328 371 328 363 330 c 0,56,57
 341 332 341 332 341 467 c 2,58,-1
 341 1302 l 2,59,60
 341 1384 341 1384 322 1407 c 0,61,62
 297 1437 297 1437 228 1398 c 0,63,64
 148 1353 148 1353 16 1230 c 0,65,66
 -14 1202 -14 1202 10 1188 c 0,67,68
 27 1179 27 1179 62 1179 c 0,69,70
 92 1179 92 1179 101 1127 c 1,71,-1
 101 87 l 2,0,1
EndSplineSet
EndChar

StartChar: X
Encoding: 88 88 59
Width: 1754
GlyphClass: 2
Flags: W
LayerCount: 2
Fore
SplineSet
1406 250 m 0,1,2
 1375 271 1375 271 1299 347 c 0,3,4
 1253 393 1253 393 945 759 c 1,5,6
 1058 826 1058 826 1150 873 c 0,7,8
 1378 991 1378 991 1483 1081 c 0,9,10
 1618 1195 1618 1195 1600 1298 c 0,11,12
 1583 1396 1583 1396 1519 1421 c 0,13,14
 1479 1437 1479 1437 1407 1424 c 0,15,16
 1326 1409 1326 1409 1264 1381 c 0,17,18
 1203 1354 1203 1354 1227 1344 c 0,19,20
 1257 1332 1257 1332 1266 1325 c 0,21,22
 1291 1306 1291 1306 1303 1264 c 0,23,24
 1339 1142 1339 1142 1155 1013 c 0,25,26
 1072 956 1072 956 877 840 c 1,27,28
 471 1322 471 1322 446 1348 c 0,29,30
 389 1409 389 1409 372 1418 c 0,31,32
 343 1433 343 1433 255 1433 c 0,33,34
 178 1433 178 1433 114 1331 c 0,35,36
 81 1281 81 1281 64 1230 c 1,37,38
 76 1247 76 1247 105 1254 c 0,39,40
 162 1269 162 1269 247 1221 c 0,41,42
 304 1189 304 1189 681 723 c 1,43,44
 601 674 601 674 535 631 c 0,45,46
 -49 253 -49 253 5 101 c 0,47,48
 36 14 36 14 84 2 c 0,49,50
 117 -6 117 -6 162 21 c 0,51,52
 210 49 210 49 280 61 c 0,53,54
 334 70 334 70 344 88 c 0,55,56
 349 96 349 96 340 181 c 0,57,58
 332 265 332 265 374 335 c 0,59,60
 431 429 431 429 751 638 c 1,61,62
 1203 81 1203 81 1303 50 c 0,63,64
 1414 16 1414 16 1537 129 c 0,65,66
 1599 186 1599 186 1638 250 c 1,67,68
 1587 220 1587 220 1507 220 c 0,69,0
 1451 220 1451 220 1406 250 c 0,1,2
EndSplineSet
EndChar

StartChar: Y
Encoding: 89 89 60
Width: 1341
GlyphClass: 2
Flags: W
LayerCount: 2
Fore
SplineSet
112 343 m 2,0,1
 112 247 112 247 73 149 c 0,2,3
 34 54 34 54 30 36 c 256,4,5
 26 18 26 18 41 3 c 0,6,7
 58 -13 58 -13 197 61 c 0,8,9
 339 138 339 138 362 185 c 0,10,11
 371 204 371 204 382 246 c 0,12,13
 398 305 398 305 403 322 c 0,14,15
 434 420 434 420 492 469 c 0,16,17
 624 582 624 582 909 776 c 0,18,19
 1148 937 1148 937 1196 996 c 0,20,21
 1230 1037 1230 1037 1233 1108 c 0,22,23
 1236 1174 1236 1174 1211 1243 c 0,24,25
 1185 1313 1185 1313 1139 1357 c 0,26,27
 1089 1405 1089 1405 1030 1407 c 0,28,29
 924 1409 924 1409 789 1334 c 0,30,31
 761 1318 761 1318 607 1213 c 0,32,33
 583 1197 583 1197 608 1205 c 0,34,35
 668 1226 668 1226 703 1234 c 0,36,37
 882 1276 882 1276 951 1181 c 0,38,39
 1013 1095 1013 1095 920 972 c 0,40,41
 862 895 862 895 686 747 c 0,42,43
 474 569 474 569 439 551 c 0,44,45
 391 526 391 526 369 546 c 0,46,47
 344 568 344 568 346 648 c 0,48,49
 350 869 350 869 350 1326 c 0,50,51
 350 1412 350 1412 322 1429 c 256,52,53
 294 1446 294 1446 223 1401 c 0,54,55
 191 1382 191 1382 18 1251 c 0,56,57
 -14 1227 -14 1227 11 1216 c 0,58,59
 29 1208 29 1208 69 1208 c 0,60,61
 108 1208 108 1208 112 1148 c 1,62,-1
 112 343 l 2,0,1
EndSplineSet
EndChar

StartChar: Z
Encoding: 90 90 61
Width: 1715
GlyphClass: 2
Flags: W
LayerCount: 2
Fore
SplineSet
371 214 m 0,1,2
 315 207 315 207 318 323 c 0,3,4
 321 452 321 452 410 602 c 0,5,6
 500 753 500 753 595 787 c 0,7,8
 762 849 762 849 871 753 c 0,9,10
 892 735 892 735 723 552 c 0,11,12
 682 508 682 508 587 408 c 0,13,14
 510 327 510 327 488 302 c 0,15,0
 417 220 417 220 371 214 c 0,1,2
1291 180 m 0,17,18
 1276 195 1276 195 1276 251 c 2,19,-1
 1276 830 l 2,20,21
 1276 870 1276 870 1242 892 c 0,22,23
 1225 903 1225 903 1208 907 c 1,24,25
 1382 1145 1382 1145 1480 1256 c 0,26,27
 1638 1434 1638 1434 1386 1434 c 2,28,-1
 450 1434 l 2,29,30
 384 1434 384 1434 349 1402 c 1,31,32
 353 1405 353 1405 284 1315 c 0,33,34
 216 1226 216 1226 373 1226 c 2,35,-1
 1110 1226 l 2,36,37
 1221 1226 1221 1226 1237 1205 c 0,38,39
 1250 1188 1250 1188 1212 1132 c 0,40,41
 1165 1064 1165 1064 1042 966 c 1,42,43
 957 975 957 975 850 975 c 0,44,45
 687 975 687 975 437 843 c 0,46,47
 126 678 126 678 29 426 c 0,48,49
 -34 263 -34 263 39 130 c 0,50,51
 110 0 110 0 250 0 c 0,52,53
 380 0 380 0 427 27 c 0,54,55
 459 44 459 44 569 162 c 0,56,57
 705 306 705 306 957 651 c 1,58,59
 973 644 973 644 988 627 c 0,60,61
 1020 594 1020 594 1020 549 c 0,62,63
 1020 517 1020 517 1027 349 c 0,64,65
 1033 181 1033 181 1033 123 c 0,66,67
 1033 33 1033 33 1050 19 c 0,68,69
 1075 -3 1075 -3 1191 30 c 0,70,71
 1357 77 1357 77 1604 247 c 1,72,73
 1484 209 1484 209 1382 179 c 0,74,16
 1312 158 1312 158 1291 180 c 0,17,18
EndSplineSet
EndChar

StartChar: asciicircum
Encoding: 94 94 62
Width: 1024
GlyphClass: 2
Flags: W
LayerCount: 2
Fore
SplineSet
221 1079 m 1,0,-1
 453 1434 l 1,1,-1
 571 1434 l 1,2,-1
 803 1079 l 1,3,-1
 745 1079 l 1,4,-1
 512 1295 l 1,5,-1
 279 1079 l 1,6,-1
 221 1079 l 1,0,-1
EndSplineSet
EndChar

StartChar: underscore
Encoding: 95 95 63
Width: 1024
GlyphClass: 2
Flags: W
LayerCount: 2
Fore
SplineSet
0 -100 m 1,0,-1
 1024 -100 l 1,1,-1
 1024 -160 l 1,2,-1
 0 -160 l 1,3,-1
 0 -100 l 1,0,-1
EndSplineSet
EndChar

StartChar: grave
Encoding: 96 96 64
Width: 1024
GlyphClass: 2
Flags: W
LayerCount: 2
Fore
SplineSet
673 1079 m 1,0,-1
 604 1079 l 1,1,-1
 274 1281 l 2,2,3
 243 1301 243 1301 227.5 1321 c 128,-1,4
 212 1341 212 1341 212 1363 c 0,5,6
 212 1394 212 1394 232.5 1414 c 128,-1,7
 253 1434 253 1434 286 1434 c 0,8,9
 306 1434 306 1434 326.5 1422 c 128,-1,10
 347 1410 347 1410 382 1375 c 2,11,-1
 673 1079 l 1,0,-1
EndSplineSet
EndChar

StartChar: a
Encoding: 97 97 65
Width: 1178
GlyphClass: 2
Flags: W
LayerCount: 2
Fore
SplineSet
544 169 m 0,0,1
 464 219 464 219 435 266 c 0,2,3
 403 318 403 318 395 336 c 0,4,5
 384 363 384 363 392 379 c 0,6,7
 404 401 404 401 533 457 c 0,8,9
 625 498 625 498 665 495 c 0,10,11
 723 490 723 490 779 412 c 0,12,13
 851 311 851 311 839 255 c 0,14,15
 829 204 829 204 733 146 c 0,16,17
 655 98 655 98 544 169 c 0,0,1
921 592 m 0,18,19
 826 646 826 646 743 642 c 0,20,21
 694 640 694 640 550 556 c 0,22,23
 381 457 381 457 389 461 c 1,24,25
 360 449 360 449 342 455 c 0,26,27
 325 461 325 461 325 483 c 2,28,-1
 325 685 l 2,29,30
 325 717 325 717 443 796 c 0,31,32
 566 879 566 879 636 879 c 0,33,34
 691 879 691 879 818 830 c 0,35,36
 936 784 936 784 951 788 c 0,37,38
 978 796 978 796 1021 858 c 0,39,40
 1065 920 1065 920 1058 944 c 0,41,42
 1049 973 1049 973 906 1004 c 0,43,44
 753 1038 753 1038 672 1009 c 0,45,46
 601 984 601 984 478 889 c 0,47,48
 354 794 354 794 347 792 c 0,49,50
 325 783 325 783 326 879 c 0,51,52
 326 908 326 908 329 951 c 0,53,54
 331 993 331 993 331 996 c 0,55,56
 331 1014 331 1014 296 1010 c 0,57,58
 265 1007 265 1007 234 993 c 0,59,60
 206 980 206 980 147 930 c 0,61,62
 86 879 86 879 91 869 c 0,63,64
 94 863 94 863 124 885 c 0,65,66
 152 906 152 906 153 899 c 0,67,68
 153 875 153 875 153 126 c 2,69,-1
 153 117 l 1,70,71
 149 -104 149 -104 0 -307 c 1,72,73
 301 -89 301 -89 316 12 c 0,74,75
 327 83 327 83 342 103 c 0,76,77
 357 121 357 121 386 104 c 0,78,79
 656 -53 656 -53 824 23 c 0,80,81
 960 84 960 84 1025 179 c 0,82,83
 1095 283 1095 283 1067 409 c 0,84,85
 1042 525 1042 525 921 592 c 0,18,19
EndSplineSet
EndChar

StartChar: b
Encoding: 98 98 66
Width: 1071
GlyphClass: 2
Flags: W
LayerCount: 2
Fore
SplineSet
702 904 m 0,0,1
 791 834 791 834 794 733 c 0,2,3
 801 527 801 527 643 453 c 0,4,5
 597 431 597 431 591 436 c 0,6,7
 584 442 584 442 584 510 c 0,8,9
 584 519 584 519 584 700 c 2,10,-1
 584 894 l 2,11,12
 584 937 584 937 588 950 c 0,13,14
 590 958 590 958 598 958 c 0,15,16
 637 955 637 955 702 904 c 0,0,1
411 404 m 2,17,18
 411 360 411 360 431 342 c 0,19,20
 456 317 456 317 524 321 c 0,21,22
 618 327 618 327 733 389 c 0,23,24
 876 467 876 467 932 582 c 0,25,26
 990 702 990 702 953 823 c 0,27,28
 921 929 921 929 834 990 c 0,29,30
 755 1047 755 1047 584 1016 c 1,31,-1
 584 1374 l 2,32,33
 584 1419 584 1419 580 1425 c 0,34,35
 573 1436 573 1436 534 1427 c 0,36,37
 462 1410 462 1410 379 1353 c 0,38,39
 352 1334 352 1334 356 1327 c 0,40,41
 359 1322 359 1322 386 1322 c 0,42,43
 408 1322 408 1322 413 1299 c 0,44,45
 415 1291 415 1291 415 1256 c 0,46,47
 415 1236 415 1236 413 960 c 1,48,49
 331 920 331 920 275 864 c 0,50,51
 -4 587 -4 587 0 357 c 0,52,53
 2 197 2 197 113 90 c 0,54,55
 239 -31 239 -31 435 10 c 0,56,57
 706 68 706 68 914 345 c 0,58,59
 921 353 921 353 904 339 c 0,60,61
 872 311 872 311 842 290 c 0,62,63
 721 202 721 202 601 179 c 0,64,65
 440 148 440 148 353 174 c 0,66,67
 251 205 251 205 216 318 c 0,68,69
 182 426 182 426 218 569 c 0,70,71
 247 685 247 685 301 763 c 0,72,73
 340 820 340 820 368 842 c 0,74,75
 391 861 391 861 400 851 c 0,76,77
 413 838 413 838 411 779 c 2,78,-1
 411 404 l 2,17,18
EndSplineSet
EndChar

StartChar: c
Encoding: 99 99 67
Width: 1075
GlyphClass: 2
Flags: W
LayerCount: 2
Fore
SplineSet
954 964 m 2,0,1
 954 1009 954 1009 931 1018 c 0,2,3
 889 1034 889 1034 743 988 c 0,4,5
 501 911 501 911 289 751 c 0,6,7
 0 534 0 534 0 293 c 0,8,9
 0 -20 0 -20 401 -254 c 0,10,11
 531 -330 531 -330 683 -386 c 0,12,13
 801 -428 801 -428 827 -428 c 1,14,15
 720 -399 720 -399 558 -276 c 0,16,17
 263 -53 263 -53 263 293 c 0,18,19
 263 604 263 604 492 780 c 0,20,21
 568 838 568 838 655 870 c 0,22,23
 725 896 725 896 740 890 c 0,24,25
 756 883 756 883 758 836 c 1,26,27
 758 802 758 802 758 757 c 0,28,29
 758 733 758 733 756 440 c 0,30,31
 754 146 754 146 754 126 c 0,32,33
 754 97 754 97 794 98 c 0,34,35
 826 100 826 100 873 119 c 0,36,37
 954 151 954 151 954 182 c 2,38,-1
 954 964 l 2,0,1
EndSplineSet
EndChar

StartChar: d
Encoding: 100 100 68
Width: 1135
GlyphClass: 2
Flags: W
LayerCount: 2
Fore
SplineSet
309 179 m 0,1,2
 227 219 227 219 206 287 c 0,3,4
 156 455 156 455 279 622 c 0,5,6
 355 724 355 724 416 772 c 0,7,8
 473 817 473 817 490 805 c 0,9,10
 501 797 501 797 501 740 c 2,11,-1
 501 254 l 2,12,13
 501 175 501 175 500 169 c 0,14,15
 492 145 492 145 446 145 c 0,16,0
 376 146 376 146 309 179 c 0,1,2
894 955 m 0,18,19
 775 1036 775 1036 705 1030 c 0,20,21
 683 1029 683 1029 652 1014 c 1,22,-1
 652 1382 l 2,23,24
 652 1422 652 1422 646 1431 c 0,25,26
 637 1445 637 1445 606 1429 c 0,27,28
 476 1360 476 1360 476 1359 c 0,29,30
 450 1341 450 1341 452 1333 c 0,31,32
 454 1328 454 1328 476 1325 c 0,33,34
 493 1323 493 1323 500 1290 c 0,35,36
 505 1264 505 1264 505 1199 c 0,37,38
 505 1149 505 1149 503 919 c 1,39,40
 385 836 385 836 324 784 c 0,41,42
 29 535 29 535 3 370 c 0,43,44
 -23 207 -23 207 156 78 c 0,45,46
 321 -41 321 -41 549 21 c 0,47,48
 654 49 654 49 654 148 c 0,49,50
 654 154 654 154 652 731 c 2,51,-1
 652 852 l 1,52,53
 656 938 656 938 717 944 c 0,54,55
 742 947 742 947 778 912 c 0,56,57
 813 877 813 877 827 836 c 0,58,59
 893 646 893 646 901 639 c 0,60,61
 935 605 935 605 995 646 c 0,62,63
 1021 663 1021 663 1026 719 c 0,64,65
 1031 769 1031 769 1020 824 c 0,66,17
 1009 876 1009 876 894 955 c 0,18,19
EndSplineSet
EndChar

StartChar: e
Encoding: 101 101 69
Width: 1066
GlyphClass: 2
Flags: W
LayerCount: 2
Fore
SplineSet
560 22 m 0,1,2
 707 64 707 64 859 223 c 0,3,4
 971 339 971 339 962 536 c 0,5,6
 954 717 954 717 859 844 c 0,7,8
 723 1025 723 1025 443 1026 c 0,9,10
 298 1027 298 1027 135 921 c 0,11,12
 53 868 53 868 0 815 c 1,13,14
 154 903 154 903 204 924 c 0,15,16
 261 949 261 949 351 964 c 0,17,18
 539 995 539 995 647 863 c 0,19,20
 705 792 705 792 699 709 c 0,21,22
 694 641 694 641 667 626 c 0,23,24
 653 618 653 618 442 618 c 0,25,26
 378 618 378 618 282 619 c 256,27,28
 186 620 186 620 176 620 c 0,29,30
 123 620 123 620 79 563 c 0,31,32
 62 542 62 542 55 522 c 0,33,34
 48 503 48 503 55 498 c 0,35,36
 70 489 70 489 108 498 c 0,37,38
 163 511 163 511 209 511 c 0,39,40
 626 511 626 511 677 481 c 0,41,42
 718 456 718 456 716 392 c 0,43,44
 714 318 714 318 654 210 c 0,45,46
 594 101 594 101 416 38 c 0,47,48
 368 22 368 22 311 8 c 0,49,50
 277 0 277 0 287 0 c 0,51,0
 482 -1 482 -1 560 22 c 0,1,2
EndSplineSet
EndChar

StartChar: f
Encoding: 102 102 70
Width: 1053
GlyphClass: 2
Flags: W
LayerCount: 2
Fore
SplineSet
0 699 m 2,0,1
 0 753 0 753 17 784 c 0,2,3
 40 824 40 824 116 887 c 0,4,5
 212 965 212 965 279 992 c 0,6,7
 373 1030 373 1030 509 1023 c 0,8,9
 638 1016 638 1016 778 944 c 0,10,11
 886 888 886 888 922 846 c 0,12,13
 944 819 944 819 946 807 c 0,14,15
 947 795 947 795 932 777 c 0,16,17
 843 674 843 674 792 661 c 1,18,19
 807 665 807 665 662 788 c 0,20,21
 525 904 525 904 382 887 c 0,22,23
 300 877 300 877 248 827 c 0,24,25
 198 779 198 779 198 716 c 2,26,-1
 198 -265 l 2,27,28
 198 -330 198 -330 184 -347 c 0,29,30
 175 -359 175 -359 114 -388 c 0,31,32
 57 -416 57 -416 34 -422 c 0,33,34
 14 -427 14 -427 7 -406 c 0,35,36
 0 -387 0 -387 0 -337 c 2,37,-1
 0 699 l 2,0,1
EndSplineSet
EndChar

StartChar: g
Encoding: 103 103 71
Width: 1307
GlyphClass: 2
Flags: W
LayerCount: 2
Fore
SplineSet
951 533 m 1,1,-1
 951 968 l 2,2,3
 951 1014 951 1014 928 1023 c 0,4,5
 886 1039 886 1039 741 993 c 0,6,7
 499 916 499 916 288 757 c 0,8,9
 0 540 0 540 0 300 c 0,10,11
 0 -12 0 -12 399 -245 c 0,12,13
 529 -321 529 -321 681 -376 c 0,14,15
 799 -419 799 -419 825 -419 c 1,16,17
 715 -388 715 -388 557 -267 c 0,18,19
 262 -43 262 -43 262 300 c 0,20,21
 262 610 262 610 491 785 c 0,22,23
 566 843 566 843 653 875 c 0,24,25
 723 901 723 901 738 895 c 0,26,27
 753 888 753 888 756 842 c 1,28,29
 755 850 755 850 755 762 c 0,30,31
 755 741 755 741 754 532 c 1,32,33
 628 532 628 532 605 534 c 0,34,35
 565 537 565 537 477 441 c 0,36,37
 446 408 446 408 463 398 c 0,38,39
 472 393 472 393 526 392 c 0,40,41
 563 392 563 392 753 392 c 1,42,43
 751 153 751 153 751 133 c 0,44,45
 751 105 751 105 791 106 c 0,46,47
 823 107 823 107 870 126 c 0,48,49
 951 158 951 158 951 189 c 2,50,-1
 951 392 l 1,51,52
 1008 392 1008 392 1034 392 c 0,53,54
 1094 393 1094 393 1120 415 c 0,55,56
 1129 422 1129 422 1145 442 c 0,57,58
 1164 464 1164 464 1178 479 c 0,59,60
 1216 515 1216 515 1197 526 c 0,61,62
 1186 533 1186 533 1135 534 c 0,63,0
 1117 534 1117 534 951 533 c 1,1,-1
EndSplineSet
EndChar

StartChar: h
Encoding: 104 104 72
Width: 1023
GlyphClass: 2
Flags: W
LayerCount: 2
Fore
SplineSet
26 1292 m 1,1,2
 37 1285 37 1285 37 1262 c 0,3,4
 37 1249 37 1249 39 693 c 0,5,6
 40 137 40 137 40 93 c 0,7,8
 40 30 40 30 52 16 c 0,9,10
 65 -1 65 -1 112 21 c 0,11,12
 222 70 222 70 224 72 c 0,13,14
 238 84 238 84 240 103 c 0,15,16
 242 111 242 111 242 159 c 0,17,18
 242 185 242 185 240 297 c 0,19,20
 239 409 239 409 239 429 c 0,21,22
 239 468 239 468 241 475 c 0,23,24
 246 492 246 492 275 510 c 0,25,26
 373 573 373 573 368 571 c 1,27,28
 441 609 441 609 506 597 c 0,29,30
 587 583 587 583 639 497 c 0,31,32
 695 405 695 405 668 307 c 0,33,34
 633 180 633 180 495 6 c 0,35,36
 486 -5 486 -5 512 5 c 0,37,38
 538 14 538 14 580 38 c 0,39,40
 689 98 689 98 738 148 c 0,41,42
 850 265 850 265 885 336 c 0,43,44
 911 391 911 391 911 471 c 0,45,46
 911 537 911 537 868 595 c 0,47,48
 831 643 831 643 779 669 c 0,49,50
 747 686 747 686 686 703 c 0,51,52
 638 716 638 716 638 720 c 0,53,54
 638 722 638 722 698 763 c 0,55,56
 764 807 764 807 785 841 c 0,57,58
 835 919 835 919 767 958 c 0,59,60
 740 974 740 974 670 970 c 0,61,62
 599 966 599 966 575 946 c 0,63,64
 564 937 564 937 567 934 c 0,65,66
 569 932 569 932 581 932 c 0,67,68
 610 932 610 932 607 917 c 0,69,70
 602 890 602 890 562 832 c 0,71,72
 517 766 517 766 470 729 c 0,73,74
 328 618 328 618 272 618 c 0,75,76
 236 618 236 618 227 639 c 0,77,78
 221 654 221 654 221 705 c 2,79,-1
 221 1358 l 2,80,81
 221 1440 221 1440 161 1439 c 0,82,83
 119 1438 119 1438 1 1349 c 0,84,85
 -28 1326 -28 1326 -30 1319 c 0,86,87
 -33 1311 -33 1311 -9 1303 c 0,88,0
 27 1292 27 1292 26 1292 c 1,1,2
EndSplineSet
EndChar

StartChar: i
Encoding: 105 105 73
Width: 378
GlyphClass: 2
Flags: W
LayerCount: 2
Fore
SplineSet
95 79 m 2,0,1
 95 26 95 26 106 9 c 0,2,3
 119 -10 119 -10 153 11 c 0,4,5
 215 50 215 50 237 61 c 256,6,7
 259 72 259 72 264 89 c 0,8,9
 268 103 268 103 268 160 c 0,10,11
 268 197 268 197 269 564 c 0,12,13
 271 930 271 930 271 956 c 0,14,15
 271 1008 271 1008 260 1020 c 0,16,17
 244 1039 244 1039 187 1012 c 0,18,19
 32 937 32 937 11 919 c 0,20,21
 -5 905 -5 905 3 889 c 0,22,23
 10 872 10 872 39 863 c 0,24,25
 79 850 79 850 88 831 c 0,26,27
 95 817 95 817 95 765 c 2,28,-1
 95 79 l 2,0,1
EndSplineSet
EndChar

StartChar: j
Encoding: 106 106 74
Width: 972
GlyphClass: 2
Flags: W
LayerCount: 2
Fore
SplineSet
78 752 m 0,1,2
 77 349 77 349 77 311 c 0,3,4
 77 241 77 241 123 163 c 0,5,6
 179 70 179 70 268 35 c 0,7,8
 374 -6 374 -6 484 1 c 0,9,10
 607 8 607 8 705 74 c 0,11,12
 781 125 781 125 832 206 c 0,13,14
 850 235 850 235 859 258 c 0,15,16
 867 279 867 279 864 281 c 1,17,18
 865 279 865 279 809 233 c 0,19,20
 740 178 740 178 636 158 c 0,21,22
 513 134 513 134 438 145 c 0,23,24
 371 155 371 155 319 200 c 0,25,26
 238 270 238 270 238 343 c 0,27,28
 238 406 238 406 241 415 c 0,29,30
 250 448 250 448 295 448 c 0,31,32
 332 448 332 448 488 451 c 0,33,34
 644 453 644 453 669 453 c 0,35,36
 707 453 707 453 739 478 c 0,37,38
 768 499 768 499 777 528 c 0,39,40
 786 552 786 552 758 564 c 0,41,42
 737 574 737 574 699 574 c 0,43,44
 676 574 676 574 486 579 c 0,45,46
 295 583 295 583 283 583 c 0,47,48
 241 583 241 583 241 663 c 0,49,50
 241 699 241 699 243 1026 c 0,51,52
 244 1354 244 1354 244 1367 c 0,53,54
 244 1400 244 1400 228 1420 c 0,55,56
 207 1445 207 1445 170 1423 c 0,57,58
 53 1356 53 1356 7 1317 c 0,59,60
 -7 1305 -7 1305 9 1289 c 0,61,62
 23 1276 23 1276 46 1271 c 256,63,64
 69 1266 69 1266 75 1251 c 0,65,66
 80 1238 80 1238 80 1193 c 0,67,0
 80 1154 80 1154 78 752 c 0,1,2
EndSplineSet
EndChar

StartChar: k
Encoding: 107 107 75
Width: 1114
GlyphClass: 2
Flags: W
LayerCount: 2
Fore
SplineSet
119 507 m 0,1,2
 112 446 112 446 82 362 c 0,3,4
 75 341 75 341 78 338 c 256,5,6
 81 335 81 335 103 346 c 0,7,8
 165 376 165 376 231 508 c 0,9,10
 285 616 285 616 355 693 c 0,11,12
 487 839 487 839 597 839 c 0,13,14
 674 839 674 839 724 788 c 0,15,16
 777 733 777 733 777 642 c 0,17,18
 777 560 777 560 730 515 c 0,19,20
 698 486 698 486 654 478 c 0,21,22
 618 472 618 472 603 493 c 0,23,24
 587 516 587 516 583 516 c 0,25,26
 568 516 568 516 452 448 c 0,27,28
 423 431 423 431 418 413 c 0,29,30
 414 401 414 401 414 332 c 0,31,32
 414 194 414 194 353 3 c 0,33,34
 269 -262 269 -262 143 -348 c 0,35,36
 78 -392 78 -392 27 -409 c 1,37,38
 27 -436 27 -436 159 -372 c 0,39,40
 332 -288 332 -288 463 -14 c 0,41,42
 610 295 610 295 610 305 c 0,43,44
 610 325 610 325 659 343 c 0,45,46
 743 373 743 373 794 404 c 0,47,48
 886 458 886 458 942 547 c 0,49,50
 1004 644 1004 644 1001 754 c 0,51,52
 999 867 999 867 900 948 c 0,53,54
 803 1027 803 1027 688 1019 c 0,55,56
 542 1009 542 1009 341 842 c 0,57,58
 307 813 307 813 297 815 c 0,59,60
 282 817 282 817 284 866 c 0,61,62
 288 1031 288 1031 216 992 c 0,63,64
 157 960 157 960 31 866 c 0,65,66
 -6 838 -6 838 0 825 c 0,67,68
 5 815 5 815 39 808 c 0,69,70
 63 804 63 804 69 794 c 0,71,72
 72 790 72 790 75 780 c 0,73,74
 79 768 79 768 83 761 c 0,75,0
 136 649 136 649 119 507 c 0,1,2
EndSplineSet
EndChar

StartChar: l
Encoding: 108 108 76
Width: 1000
GlyphClass: 2
Flags: W
LayerCount: 2
Fore
SplineSet
325 1296 m 1,0,1
 378 1318 378 1318 404 1296 c 0,2,3
 431 1273 431 1273 434 1236 c 2,4,-1
 434 142 l 1,5,-1
 936 142 l 1,6,-1
 804 6 l 1,7,-1
 151 6 l 1,8,-1
 208 104 l 1,9,-1
 208 926 l 2,10,11
 207 992 207 992 180 1044 c 0,12,13
 125 1146 125 1146 -7 1073 c 1,14,-1
 325 1296 l 1,0,1
EndSplineSet
EndChar

StartChar: m
Encoding: 109 109 77
Width: 1767
GlyphClass: 2
Flags: W
LayerCount: 2
Fore
SplineSet
1020 178 m 0,1,2
 968 211 968 211 940 254 c 0,3,4
 901 315 901 315 549 806 c 1,5,6
 610 867 610 867 647 874 c 0,7,8
 699 886 699 886 747 812 c 0,9,10
 791 743 791 743 1188 173 c 1,11,12
 1153 146 1153 146 1106 146 c 0,13,0
 1070 146 1070 146 1020 178 c 0,1,2
352 158 m 0,15,16
 284 172 284 172 245 230 c 0,17,18
 213 277 213 277 213 327 c 2,19,-1
 213 740 l 2,20,21
 216 803 216 803 259 801 c 0,22,23
 301 799 301 799 340 743 c 0,24,25
 391 670 391 670 673 227 c 1,26,27
 642 197 642 197 592 170 c 0,28,14
 509 125 509 125 352 158 c 0,15,16
1609 175 m 0,30,31
 1580 161 1580 161 1555 161 c 0,32,33
 1476 161 1476 161 1342 327 c 0,34,35
 1284 399 1284 399 1119 638 c 0,36,37
 952 881 952 881 928 911 c 0,38,39
 822 1046 822 1046 685 1026 c 0,40,41
 580 1011 580 1011 503 914 c 1,42,43
 433 981 433 981 333 1014 c 0,44,45
 197 1058 197 1058 74 951 c 0,46,47
 0 887 0 887 0 809 c 2,48,-1
 0 260 l 2,49,50
 0 171 0 171 80 92 c 0,51,52
 167 8 167 8 286 1 c 0,53,54
 483 -9 483 -9 607 71 c 0,55,56
 673 113 673 113 723 185 c 1,57,58
 758 152 758 152 805 101 c 0,59,60
 844 57 844 57 912 33 c 0,61,62
 992 5 992 5 1075 19 c 0,63,64
 1195 40 1195 40 1242 113 c 1,65,66
 1269 77 1269 77 1327 49 c 0,67,68
 1375 27 1375 27 1449 35 c 0,69,70
 1531 44 1531 44 1582 89 c 0,71,72
 1630 130 1630 130 1643 162 c 0,73,74
 1648 174 1648 174 1646 181 c 0,75,76
 1645 188 1645 188 1640 188 c 0,77,29
 1638 188 1638 188 1609 175 c 0,30,31
EndSplineSet
EndChar

StartChar: n
Encoding: 110 110 78
Width: 1440
GlyphClass: 2
Flags: W
LayerCount: 2
Fore
SplineSet
100 410 m 256,1,2
 98 76 98 76 98 54 c 0,3,4
 98 14 98 14 113 5 c 0,5,6
 131 -7 131 -7 183 11 c 0,7,8
 218 23 218 23 249 31 c 0,9,10
 270 37 270 37 288 45 c 0,11,12
 316 57 316 57 322 66 c 0,13,14
 329 76 329 76 329 104 c 0,15,16
 329 251 329 251 349 254 c 0,17,18
 357 255 357 255 421 211 c 0,19,20
 501 156 501 156 569 126 c 0,21,22
 667 83 667 83 794 76 c 0,23,24
 933 68 933 68 1032 110 c 0,25,26
 1141 157 1141 157 1198 251 c 0,27,28
 1259 353 1259 353 1239 478 c 0,29,30
 1220 593 1220 593 1176 653 c 0,31,32
 1167 665 1167 665 1068 762 c 0,33,34
 1022 807 1022 807 965 846 c 0,35,36
 925 873 925 873 918 890 c 0,37,38
 913 901 913 901 1058 904 c 0,39,40
 1095 905 1095 905 1235 905 c 0,41,42
 1261 905 1261 905 1271 916 c 0,43,44
 1274 920 1274 920 1280 930 c 0,45,46
 1287 942 1287 942 1291 949 c 0,47,48
 1322 990 1322 990 1323 997 c 0,49,50
 1332 1024 1332 1024 1279 1024 c 2,51,-1
 869 1024 l 2,52,53
 843 1024 843 1024 817 1007 c 0,54,55
 813 1005 813 1005 773 974 c 0,56,57
 730 941 730 941 711 911 c 0,58,59
 699 893 699 893 713 878 c 0,60,61
 726 864 726 864 792 821 c 0,62,63
 901 749 901 749 935 714 c 0,64,65
 1012 633 1012 633 1007 528 c 0,66,67
 1001 398 1001 398 927 340 c 0,68,69
 845 273 845 273 674 291 c 0,70,71
 509 308 509 308 419 385 c 0,72,73
 345 449 345 449 341 531 c 0,74,75
 337 625 337 625 337 961 c 0,76,77
 337 1004 337 1004 309 1018 c 256,78,79
 281 1032 281 1032 236 1011 c 0,80,81
 21 912 21 912 24 914 c 1,82,83
 -8 894 -8 894 4 873 c 0,84,85
 15 852 15 852 53 852 c 0,86,87
 102 852 102 852 102 787 c 0,88,0
 102 744 102 744 100 410 c 256,1,2
EndSplineSet
EndChar

StartChar: o
Encoding: 111 111 79
Width: 1139
GlyphClass: 2
Flags: W
LayerCount: 2
Fore
SplineSet
299 298 m 0,1,2
 185 410 185 410 172 581 c 0,3,4
 159 754 159 754 263 835 c 0,5,6
 391 936 391 936 551 878 c 0,7,8
 671 836 671 836 755 736 c 0,9,10
 838 637 838 637 868 476 c 0,11,12
 906 277 906 277 791 183 c 0,13,0
 588 15 588 15 299 298 c 0,1,2
530 1019 m 0,15,16
 350 997 350 997 220 881 c 0,17,18
 52 729 52 729 11 544 c 0,19,20
 -35 335 -35 335 112 171 c 0,21,22
 262 3 262 3 460 0 c 0,23,24
 644 -3 644 -3 824 135 c 0,25,26
 1000 269 1000 269 1025 484 c 0,27,28
 1049 706 1049 706 894 884 c 0,29,14
 751 1047 751 1047 530 1019 c 0,15,16
EndSplineSet
EndChar

StartChar: p
Encoding: 112 112 80
Width: 1161
GlyphClass: 2
Flags: W
LayerCount: 2
Fore
SplineSet
627 103 m 0,1,2
 615 115 615 115 615 165 c 2,3,-1
 615 508 l 2,4,5
 615 543 615 543 623 557 c 0,6,7
 633 574 633 574 662 579 c 0,8,9
 711 586 711 586 767 545 c 0,10,11
 843 490 843 490 845 375 c 0,12,13
 847 259 847 259 791 189 c 0,14,15
 757 147 757 147 686 110 c 0,16,0
 641 86 641 86 627 103 c 0,1,2
829 717 m 0,18,19
 764 733 764 733 711 716 c 0,20,21
 569 671 569 671 489 608 c 0,22,23
 461 586 461 586 453 545 c 0,24,25
 449 522 449 522 449 464 c 0,26,27
 449 426 449 426 447 297 c 0,28,29
 446 169 446 169 446 147 c 0,30,31
 446 141 446 141 447 121 c 0,32,33
 447 109 447 109 446 96 c 0,34,35
 444 80 444 80 428 81 c 0,36,37
 410 83 410 83 368 110 c 0,38,39
 295 157 295 157 248 244 c 0,40,41
 199 334 199 334 196 434 c 0,42,43
 191 564 191 564 233 677 c 0,44,45
 277 794 277 794 356 850 c 0,46,47
 450 917 450 917 512 928 c 0,48,49
 578 939 578 939 674 901 c 0,50,51
 817 845 817 845 865 869 c 0,52,53
 888 880 888 880 913 911 c 0,54,55
 937 941 937 941 939 958 c 0,56,57
 942 978 942 978 887 1001 c 0,58,59
 824 1027 824 1027 742 1024 c 0,60,61
 394 1015 394 1015 217 863 c 0,62,63
 91 753 91 753 32 568 c 0,64,65
 -31 371 -31 371 29 218 c 0,66,67
 104 27 104 27 429 -8 c 1,68,69
 401 -184 401 -184 267 -313 c 0,70,71
 230 -348 230 -348 179 -385 c 0,72,73
 142 -412 142 -412 143 -415 c 0,74,75
 146 -423 146 -423 201 -401 c 0,76,77
 265 -376 265 -376 330 -333 c 0,78,79
 522 -204 522 -204 579 -9 c 1,80,81
 724 9 724 9 851 92 c 0,82,83
 1000 188 1000 188 1035 326 c 0,84,85
 1070 461 1070 461 1036 544 c 0,86,87
 1016 593 1016 593 946 657 c 0,88,17
 897 701 897 701 829 717 c 0,18,19
EndSplineSet
EndChar

StartChar: q
Encoding: 113 113 81
Width: 1024
GlyphClass: 2
Flags: W
LayerCount: 2
Fore
SplineSet
714 337 m 0,1,2
 715 90 715 90 715 70 c 0,3,4
 715 15 715 15 721 8 c 0,5,6
 730 -6 730 -6 778 10 c 0,7,8
 853 35 853 35 865 44 c 0,9,10
 900 69 900 69 900 133 c 0,11,12
 900 182 900 182 904 419 c 0,13,14
 907 707 907 707 907 751 c 0,15,16
 907 819 907 819 896 844 c 0,17,18
 884 870 884 870 828 926 c 0,19,20
 764 990 764 990 634 1015 c 0,21,22
 484 1043 484 1043 318 999 c 0,23,24
 214 971 214 971 110 864 c 0,25,26
 6 756 6 756 1 665 c 0,27,28
 -4 578 -4 578 54 495 c 0,29,30
 108 418 108 418 176 394 c 0,31,32
 268 361 268 361 281 350 c 0,33,34
 302 333 302 333 305 272 c 0,35,36
 311 162 311 162 295 34 c 0,37,38
 271 -163 271 -163 203 -263 c 0,39,40
 152 -337 152 -337 73 -380 c 0,41,42
 7 -416 7 -416 7 -417 c 1,43,44
 169 -390 169 -390 308 -261 c 0,45,46
 459 -119 459 -119 463 103 c 0,47,48
 467 283 467 283 467 500 c 0,49,50
 467 556 467 556 454 571 c 0,51,52
 442 586 442 586 397 586 c 0,53,54
 376 586 376 586 359 571 c 0,55,56
 344 558 344 558 318 562 c 0,57,58
 263 572 263 572 244 640 c 0,59,60
 226 705 226 705 249 787 c 0,61,62
 271 866 271 866 357 908 c 0,63,64
 442 949 442 949 530 926 c 0,65,66
 611 905 611 905 664 840 c 0,67,68
 712 782 712 782 712 725 c 0,69,0
 712 635 712 635 714 337 c 0,1,2
EndSplineSet
EndChar

StartChar: r
Encoding: 114 114 82
Width: 1157
GlyphClass: 2
Flags: W
LayerCount: 2
Fore
SplineSet
654 328 m 0,1,2
 655 401 655 401 655 403 c 0,3,4
 655 450 655 450 717 488 c 0,5,6
 833 560 833 560 851 576 c 0,7,8
 950 667 950 667 936 789 c 0,9,10
 921 919 921 919 796 982 c 0,11,12
 694 1034 694 1034 587 1021 c 0,13,14
 532 1015 532 1015 428 969 c 0,15,16
 341 930 341 930 309 939 c 0,17,18
 277 947 277 947 251 990 c 0,19,20
 227 1029 227 1029 205 1027 c 0,21,22
 168 1024 168 1024 85 968 c 0,23,24
 0 910 0 910 0 882 c 0,25,26
 0 862 0 862 39 830 c 0,27,28
 77 797 77 797 77 766 c 0,29,30
 77 697 77 697 79 363 c 0,31,32
 80 108 80 108 80 79 c 0,33,34
 80 23 80 23 95 12 c 0,35,36
 110 0 110 0 156 26 c 0,37,38
 190 46 190 46 205 58 c 0,39,40
 219 69 219 69 231 75 c 0,41,42
 252 87 252 87 256 103 c 0,43,44
 260 115 260 115 260 167 c 2,45,-1
 260 645 l 2,46,47
 260 714 260 714 263 725 c 0,48,49
 270 752 270 752 312 787 c 0,50,51
 482 930 482 930 526 941 c 0,52,53
 600 959 600 959 650 909 c 0,54,55
 701 858 701 858 694 763 c 0,56,57
 684 628 684 628 556 547 c 0,58,59
 523 526 523 526 518 519 c 0,60,61
 507 503 507 503 507 452 c 0,62,63
 507 393 507 393 507 115 c 256,64,65
 507 -163 507 -163 507 -207 c 0,66,67
 507 -287 507 -287 578 -353 c 0,68,69
 663 -430 663 -430 800 -430 c 0,70,71
 914 -430 914 -430 998 -366 c 0,72,73
 1039 -334 1039 -334 1059 -302 c 1,74,75
 1033 -339 1033 -339 987 -365 c 0,76,77
 895 -417 895 -417 794 -361 c 0,78,79
 680 -298 680 -298 656 -102 c 0,80,81
 653 -74 653 -74 653 168 c 0,82,0
 653 254 653 254 654 328 c 0,1,2
EndSplineSet
EndChar

StartChar: s
Encoding: 115 115 83
Width: 1157
GlyphClass: 2
Flags: W
LayerCount: 2
Fore
SplineSet
-5 387 m 0,1,2
 -7 90 -7 90 -7 60 c 0,3,4
 -7 16 -7 16 7 10 c 0,5,6
 12 8 12 8 61 14 c 0,7,8
 98 18 98 18 137 35 c 0,9,10
 172 51 172 51 184 66 c 0,11,12
 203 90 203 90 203 141 c 2,13,-1
 203 308 l 2,14,15
 203 336 203 336 212 346 c 0,16,17
 222 358 222 358 271 383 c 0,18,19
 562 530 562 530 582 532 c 0,20,21
 648 538 648 538 714 482 c 0,22,23
 791 417 791 417 788 311 c 0,24,25
 784 157 784 157 653 79 c 0,26,27
 523 3 523 3 523 13 c 1,28,29
 523 0 523 0 563 0 c 256,30,31
 603 0 603 0 661 13 c 0,32,33
 808 45 808 45 901 113 c 0,34,35
 1005 190 1005 190 1033 239 c 0,36,37
 1064 292 1064 292 1047 383 c 0,38,39
 1017 547 1017 547 841 612 c 0,40,41
 655 681 655 681 511 612 c 0,42,43
 497 606 497 606 396 554 c 0,44,45
 314 512 314 512 286 501 c 0,46,47
 247 486 247 486 234 494 c 0,48,49
 218 503 218 503 218 547 c 2,50,-1
 218 743 l 2,51,52
 218 774 218 774 233 795 c 0,53,54
 245 814 245 814 278 836 c 0,55,56
 411 926 411 926 505 935 c 0,57,58
 615 946 615 946 673 930 c 0,59,60
 743 911 743 911 784 848 c 0,61,62
 833 771 833 771 837 766 c 0,63,64
 858 742 858 742 893 746 c 256,65,66
 928 750 928 750 986 798 c 0,67,68
 1036 839 1036 839 1047 861 c 0,69,70
 1064 892 1064 892 961 951 c 0,71,72
 900 985 900 985 772 1011 c 0,73,74
 610 1043 610 1043 481 1022 c 0,75,76
 314 996 314 996 166 916 c 0,77,78
 -3 826 -3 826 -3 734 c 0,79,0
 -3 685 -3 685 -5 387 c 0,1,2
EndSplineSet
EndChar

StartChar: t
Encoding: 116 116 84
Width: 1010
GlyphClass: 2
Flags: W
LayerCount: 2
Fore
SplineSet
717 -343 m 2,0,1
 717 -406 717 -406 721 -414 c 0,2,3
 728 -427 728 -427 767 -412 c 1,4,5
 872 -338 872 -338 891 -222 c 0,6,7
 899 -173 899 -173 899 287 c 0,8,9
 899 426 899 426 898 620 c 0,10,11
 897 806 897 806 897 815 c 0,12,13
 897 887 897 887 833 934 c 0,14,15
 781 973 781 973 668 1005 c 0,16,17
 560 1036 560 1036 425 1014 c 0,18,19
 278 991 278 991 177 915 c 0,20,21
 81 842 81 842 33 792 c 0,22,23
 -6 751 -6 751 0 742 c 1,24,25
 -4 749 -4 749 86 809 c 0,26,27
 201 887 201 887 360 898 c 0,28,29
 530 909 530 909 651 835 c 0,30,31
 693 810 693 810 707 774 c 0,32,33
 717 750 717 750 717 707 c 2,34,-1
 717 -343 l 2,0,1
EndSplineSet
EndChar

StartChar: u
Encoding: 117 117 85
Width: 1475
GlyphClass: 2
Flags: W
LayerCount: 2
Fore
SplineSet
785 124 m 0,1,2
 765 147 765 147 765 211 c 2,3,-1
 765 771 l 2,4,5
 765 816 765 816 779 832 c 0,6,7
 794 850 794 850 842 852 c 0,8,9
 915 855 915 855 996 792 c 0,10,11
 1103 708 1103 708 1127 551 c 0,12,13
 1151 397 1151 397 1044 267 c 0,14,15
 974 183 974 183 868 127 c 0,16,0
 809 96 809 96 785 124 c 0,1,2
1058 999 m 0,18,19
 984 1023 984 1023 894 1003 c 0,20,21
 720 964 720 964 587 855 c 0,22,23
 554 828 554 828 546 790 c 0,24,25
 543 777 543 777 543 727 c 0,26,27
 543 699 543 699 545 468 c 0,28,29
 546 238 546 238 546 205 c 0,30,31
 546 157 546 157 528 140 c 0,32,33
 509 123 509 123 465 136 c 0,34,35
 369 165 369 165 320 198 c 0,36,37
 221 264 221 264 228 368 c 0,38,39
 235 471 235 471 297 584 c 0,40,41
 318 621 318 621 354 676 c 0,42,43
 401 747 401 747 410 762 c 0,44,45
 466 854 466 854 471 897 c 0,46,47
 476 943 476 943 428 972 c 0,48,49
 355 1018 355 1018 300 1021 c 0,50,51
 243 1024 243 1024 191 981 c 0,52,53
 106 912 106 912 95 883 c 0,54,55
 83 853 83 853 146 852 c 0,56,57
 157 852 157 852 180 855 c 0,58,59
 205 857 205 857 216 858 c 0,60,61
 259 859 259 859 279 836 c 0,62,63
 292 822 292 822 287 807 c 0,64,65
 282 794 282 794 260 769 c 0,66,67
 164 658 164 658 129 608 c 0,68,69
 22 458 22 458 5 382 c 0,70,71
 -21 267 -21 267 84 169 c 0,72,73
 278 -11 278 -11 669 1 c 0,74,75
 827 5 827 5 987 92 c 0,76,77
 1157 184 1157 184 1264 335 c 0,78,79
 1477 634 1477 634 1249 867 c 0,80,17
 1149 970 1149 970 1058 999 c 0,18,19
EndSplineSet
EndChar

StartChar: v
Encoding: 118 118 86
Width: 1169
GlyphClass: 2
Flags: W
LayerCount: 2
Fore
SplineSet
102 68 m 2,0,1
 102 11 102 11 127 2 c 0,2,3
 162 -10 162 -10 255 55 c 0,4,5
 556 265 556 265 978 564 c 1,6,7
 1059 642 1059 642 1066 739 c 0,8,9
 1073 834 1073 834 1006 919 c 0,10,11
 942 1002 942 1002 874 1018 c 0,12,13
 808 1033 808 1033 723 988 c 0,14,15
 643 946 643 946 544 872 c 0,16,17
 449 801 449 801 454 791 c 1,18,19
 453 795 453 795 558 837 c 0,20,21
 672 883 672 883 735 841 c 0,22,23
 822 783 822 783 841 708 c 0,24,25
 862 620 862 620 776 536 c 0,26,27
 639 402 639 402 336 196 c 0,28,29
 288 163 288 163 280 175 c 0,30,31
 277 181 277 181 277 249 c 2,32,-1
 277 913 l 2,33,34
 277 987 277 987 263 1008 c 0,35,36
 245 1038 245 1038 189 1010 c 0,37,38
 121 975 121 975 18 907 c 0,39,40
 -14 886 -14 886 11 864 c 0,41,42
 33 844 33 844 64 844 c 0,43,44
 86 844 86 844 96 810 c 0,45,46
 101 793 101 793 102 776 c 2,47,-1
 102 68 l 2,0,1
EndSplineSet
EndChar

StartChar: w
Encoding: 119 119 87
Width: 1690
GlyphClass: 2
Flags: W
LayerCount: 2
Fore
SplineSet
91 62 m 2,0,1
 91 11 91 11 90 16 c 1,2,3
 92 -2 92 -2 107 0 c 0,4,5
 136 4 136 4 301 118 c 0,6,7
 368 165 368 165 500 248 c 0,8,9
 660 350 660 350 712 384 c 0,10,11
 954 544 954 544 1002 630 c 0,12,13
 1051 718 1051 718 1045 787 c 0,14,15
 1042 822 1042 822 1030 839 c 1,16,17
 1057 852 1057 852 1098 856 c 0,18,19
 1180 864 1180 864 1244 821 c 0,20,21
 1349 749 1349 749 1333 652 c 0,22,23
 1319 565 1319 565 1213 474 c 0,24,25
 1079 361 1079 361 807 167 c 0,26,27
 581 6 581 6 585 6 c 0,28,29
 606 6 606 6 1294 427 c 0,30,31
 1508 558 1508 558 1564 678 c 0,32,33
 1615 785 1615 785 1544 892 c 0,34,35
 1483 983 1483 983 1354 1004 c 0,36,37
 1248 1021 1248 1021 1158 989 c 0,38,39
 1057 953 1057 953 987 902 c 1,40,41
 959 945 959 945 912 980 c 0,42,43
 816 1050 816 1050 714 1011 c 0,44,45
 550 948 550 948 344 817 c 1,46,47
 463 850 463 850 577 854 c 0,48,49
 805 863 805 863 780 721 c 0,50,51
 755 574 755 574 618 441 c 0,52,53
 544 369 544 369 414 287 c 0,54,55
 332 235 332 235 324 235 c 0,56,57
 313 237 313 237 309 259 c 0,58,59
 305 280 305 280 305 334 c 2,60,-1
 305 930 l 2,61,62
 305 989 305 989 288 1005 c 0,63,64
 266 1026 266 1026 204 998 c 0,65,66
 133 966 133 966 15 879 c 0,67,68
 -12 858 -12 858 10 849 c 0,69,70
 25 842 25 842 56 842 c 0,71,72
 83 842 83 842 91 805 c 1,73,-1
 91 62 l 2,0,1
EndSplineSet
EndChar

StartChar: x
Encoding: 120 120 88
Width: 1488
GlyphClass: 2
Flags: W
LayerCount: 2
Fore
SplineSet
1218 179 m 0,1,2
 1191 194 1191 194 1125 248 c 0,3,4
 1085 281 1085 281 819 542 c 1,5,6
 916 590 916 590 996 624 c 0,7,8
 1194 708 1194 708 1285 772 c 0,9,10
 1401 854 1401 854 1386 927 c 0,11,12
 1372 997 1372 997 1316 1015 c 0,13,14
 1281 1027 1281 1027 1219 1017 c 0,15,16
 1149 1006 1149 1006 1095 987 c 0,17,18
 1042 967 1042 967 1063 960 c 0,19,20
 1089 952 1089 952 1096 947 c 0,21,22
 1118 933 1118 933 1129 903 c 0,23,24
 1160 816 1160 816 1000 724 c 0,25,26
 929 683 929 683 759 600 c 1,27,28
 408 944 408 944 386 963 c 0,29,30
 336 1007 336 1007 322 1013 c 0,31,32
 297 1024 297 1024 221 1024 c 0,33,34
 154 1024 154 1024 98 951 c 0,35,36
 70 915 70 915 55 878 c 1,37,38
 65 891 65 891 90 896 c 0,39,40
 140 906 140 906 213 872 c 0,41,42
 263 849 263 849 590 517 c 1,43,44
 520 482 520 482 463 451 c 0,45,46
 262 343 262 343 144 257 c 0,47,48
 -23 135 -23 135 4 72 c 0,49,50
 31 10 31 10 73 1 c 0,51,52
 101 -4 101 -4 140 15 c 0,53,54
 182 35 182 35 242 43 c 0,55,56
 289 50 289 50 298 63 c 0,57,58
 302 69 302 69 294 129 c 0,59,60
 287 189 287 189 324 239 c 0,61,62
 373 306 373 306 650 456 c 1,63,64
 1043 58 1043 58 1129 36 c 0,65,66
 1225 11 1225 11 1332 92 c 0,67,68
 1385 133 1385 133 1419 178 c 1,69,70
 1375 157 1375 157 1305 157 c 0,71,0
 1257 157 1257 157 1218 179 c 0,1,2
EndSplineSet
EndChar

StartChar: y
Encoding: 121 121 89
Width: 1092
GlyphClass: 2
Flags: W
LayerCount: 2
Fore
SplineSet
91 146 m 2,0,1
 91 -222 91 -222 59 -301 c 0,2,3
 28 -377 28 -377 25 -392 c 256,4,5
 22 -407 22 -407 33 -418 c 0,6,7
 47 -432 47 -432 139 -377 c 0,8,9
 233 -322 233 -322 251 -283 c 0,10,11
 256 -274 256 -274 260 -182 c 0,12,13
 264 -74 264 -74 267 -49 c 0,14,15
 282 81 282 81 290 104 c 0,16,17
 313 177 313 177 396 247 c 0,18,19
 502 337 502 337 732 493 c 0,20,21
 924 623 924 623 963 671 c 0,22,23
 990 704 990 704 993 761 c 0,24,25
 995 814 995 814 975 870 c 0,26,27
 954 926 954 926 917 962 c 0,28,29
 877 1001 877 1001 829 1002 c 0,30,31
 744 1004 744 1004 635 943 c 0,32,33
 612 930 612 930 489 846 c 0,34,35
 469 833 469 833 489 840 c 0,36,37
 538 856 538 856 566 863 c 0,38,39
 710 897 710 897 765 820 c 0,40,41
 816 751 816 751 741 652 c 0,42,43
 694 590 694 590 552 471 c 0,44,45
 381 328 381 328 353 313 c 0,46,47
 315 293 315 293 297 309 c 0,48,49
 277 327 277 327 279 391 c 0,50,51
 282 569 282 569 282 937 c 0,52,53
 282 1006 282 1006 259 1020 c 0,54,55
 237 1033 237 1033 180 997 c 0,56,57
 154 981 154 981 14 876 c 0,58,59
 -11 857 -11 857 9 848 c 0,60,61
 23 841 23 841 56 841 c 0,62,63
 88 841 88 841 91 794 c 2,64,-1
 91 146 l 2,0,1
EndSplineSet
EndChar

StartChar: z
Encoding: 122 122 90
Width: 1307
GlyphClass: 2
Flags: W
LayerCount: 2
Fore
SplineSet
291 150 m 0,1,2
 247 145 247 145 250 227 c 0,3,4
 252 317 252 317 322 422 c 0,5,6
 392 528 392 528 467 553 c 0,7,8
 599 596 599 596 684 529 c 0,9,10
 701 516 701 516 568 387 c 0,11,12
 536 357 536 357 461 287 c 0,13,14
 400 230 400 230 383 212 c 0,15,0
 327 154 327 154 291 150 c 0,1,2
818 678 m 1,17,18
 751 684 751 684 668 684 c 0,19,20
 539 684 539 684 343 592 c 0,21,22
 98 476 98 476 22 299 c 0,23,24
 -27 184 -27 184 30 91 c 0,25,26
 86 0 86 0 196 0 c 0,27,28
 298 0 298 0 335 19 c 0,29,30
 360 31 360 31 447 114 c 0,31,32
 554 215 554 215 751 457 c 1,33,34
 764 452 764 452 776 440 c 0,35,36
 801 417 801 417 801 385 c 0,37,38
 801 363 801 363 806 245 c 256,39,40
 811 127 811 127 811 87 c 0,41,42
 811 23 811 23 824 13 c 0,43,44
 845 -2 845 -2 935 21 c 0,45,46
 1066 54 1066 54 1200 136 c 1,47,48
 1166 146 1166 146 1086 126 c 0,49,50
 1031 111 1031 111 1014 126 c 0,51,52
 1002 137 1002 137 1002 176 c 2,53,-1
 1002 583 l 2,54,55
 1002 611 1002 611 975 626 c 0,56,57
 962 634 962 634 949 637 c 1,58,59
 1092 799 1092 799 1163 882 c 0,60,61
 1187 910 1187 910 1170 936 c 256,62,63
 1153 962 1153 962 1098 982 c 0,64,65
 980 1024 980 1024 755 1021 c 0,66,67
 352 1017 352 1017 267 927 c 0,68,69
 162 815 162 815 297 837 c 0,70,71
 654 894 654 894 701 894 c 0,72,73
 863 894 863 894 930 867 c 0,74,75
 999 841 999 841 952 795 c 0,76,16
 908 752 908 752 818 678 c 1,17,18
EndSplineSet
EndChar

StartChar: braceleft
Encoding: 123 123 91
Width: 1014
GlyphClass: 2
Flags: W
LayerCount: 2
Fore
SplineSet
240 698 m 1,0,1
 412 703 412 703 463 769 c 128,-1,2
 514 835 514 835 514 902 c 2,3,-1
 514 1370 l 2,4,5
 514 1444 514 1444 591 1511.5 c 128,-1,6
 668 1579 668 1579 776 1579 c 2,7,-1
 884 1579 l 1,8,-1
 884 1529 l 1,9,-1
 794 1529 l 2,10,11
 733 1529 733 1529 687 1495.5 c 128,-1,12
 641 1462 641 1462 640 1404 c 2,13,-1
 640 904 l 2,14,15
 640 821 640 821 579.5 745.5 c 128,-1,16
 519 670 519 670 437 669 c 1,17,-1
 437 667 l 1,18,19
 519 666 519 666 580 591 c 128,-1,20
 641 516 641 516 641 433 c 2,21,-1
 640 -67 l 2,22,23
 641 -125 641 -125 687 -158.5 c 128,-1,24
 733 -192 733 -192 794 -192 c 2,25,-1
 884 -192 l 1,26,-1
 884 -242 l 1,27,-1
 776 -242 l 2,28,29
 668 -242 668 -242 591.5 -174.5 c 128,-1,30
 515 -107 515 -107 514 -33 c 2,31,-1
 514 435 l 2,32,33
 514 501 514 501 463 567 c 128,-1,34
 412 633 412 633 240 638 c 1,35,-1
 240 698 l 1,0,1
EndSplineSet
EndChar

StartChar: bar
Encoding: 124 124 92
Width: 1014
GlyphClass: 2
Flags: W
LayerCount: 2
Fore
SplineSet
427 1577 m 1,0,-1
 587 1577 l 1,1,-1
 587 -418 l 1,2,-1
 427 -418 l 1,3,-1
 427 1577 l 1,0,-1
EndSplineSet
EndChar

StartChar: braceright
Encoding: 125 125 93
Width: 1014
GlyphClass: 2
Flags: W
LayerCount: 2
Fore
SplineSet
774 638 m 1,0,1
 602 633 602 633 551 567 c 128,-1,2
 500 501 500 501 500 435 c 2,3,-1
 500 -33 l 2,4,5
 499 -107 499 -107 422.5 -174.5 c 128,-1,6
 346 -242 346 -242 238 -242 c 2,7,-1
 130 -242 l 1,8,-1
 130 -192 l 1,9,-1
 220 -192 l 2,10,11
 281 -192 281 -192 327 -158.5 c 128,-1,12
 373 -125 373 -125 374 -67 c 2,13,-1
 373 433 l 2,14,15
 373 516 373 516 434 591 c 128,-1,16
 495 666 495 666 578 667 c 1,17,-1
 578 669 l 1,18,19
 495 670 495 670 434.5 745.5 c 128,-1,20
 374 821 374 821 374 904 c 2,21,-1
 374 1404 l 2,22,23
 373 1462 373 1462 327 1495.5 c 128,-1,24
 281 1529 281 1529 220 1529 c 2,25,-1
 130 1529 l 1,26,-1
 130 1579 l 1,27,-1
 238 1579 l 2,28,29
 346 1579 346 1579 423 1511.5 c 128,-1,30
 500 1444 500 1444 500 1370 c 2,31,-1
 500 902 l 2,32,33
 500 835 500 835 551 769 c 128,-1,34
 602 703 602 703 774 698 c 1,35,-1
 774 638 l 1,0,1
EndSplineSet
EndChar

StartChar: asciitilde
Encoding: 126 126 94
Width: 1014
GlyphClass: 2
Flags: W
LayerCount: 2
Fore
SplineSet
923 878 m 1,0,-1
 923 722 l 1,1,2
 860 650 860 650 801 624.5 c 128,-1,3
 742 599 742 599 685 599 c 0,4,5
 625 599 625 599 507.5 647.5 c 128,-1,6
 390 696 390 696 331 696 c 0,7,8
 280 696 280 696 223.5 668 c 128,-1,9
 167 640 167 640 94 556 c 1,10,-1
 94 712 l 1,11,12
 158 785 158 785 217 811 c 128,-1,13
 276 837 276 837 331 837 c 0,14,15
 395 837 395 837 512.5 787.5 c 128,-1,16
 630 738 630 738 685 738 c 0,17,18
 737 738 737 738 793.5 766 c 128,-1,19
 850 794 850 794 923 878 c 1,0,-1
EndSplineSet
EndChar

StartChar: sterling
Encoding: 163 163 96
Width: 1014
GlyphClass: 2
Flags: W
LayerCount: 2
Fore
SplineSet
748 1347 m 1,0,1
 676 1378 676 1378 588 1378 c 2,2,-1
 586 1378 l 2,3,4
 486 1378 486 1378 396 1277 c 0,5,6
 312 1184 312 1184 312 1036 c 0,7,8
 312 1021 312 1021 313 1006 c 0,9,10
 313 871 313 871 366 733 c 1,11,-1
 726 733 l 1,12,-1
 726 673 l 1,13,-1
 392 673 l 1,14,15
 406 643 406 643 423 613 c 0,16,17
 458 550 458 550 458 475 c 0,18,19
 458 314 458 314 296 100 c 1,20,-1
 698 100 l 2,21,22
 828 100 828 100 887 232 c 1,23,-1
 936 231 l 1,24,-1
 833 0 l 1,25,-1
 114 0 l 1,26,-1
 115 50 l 1,27,28
 302 288 302 288 302 468 c 0,29,30
 302 545 302 545 268 611 c 0,31,32
 251 643 251 643 237 673 c 1,33,-1
 76 673 l 1,34,-1
 76 733 l 1,35,-1
 211 733 l 1,36,37
 153 876 153 876 153 986 c 0,38,39
 153 1212 153 1212 276.5 1333 c 128,-1,40
 400 1454 400 1454 583 1454 c 2,41,-1
 587 1454 l 2,42,43
 662 1454 662 1454 772.5 1440 c 128,-1,44
 883 1426 883 1426 883 1406 c 2,45,-1
 883 1245 l 1,46,-1
 825 1245 l 1,47,48
 820 1306 820 1306 748 1347 c 1,0,1
EndSplineSet
EndChar

StartChar: currency
Encoding: 164 164 97
Width: 1014
GlyphClass: 2
Flags: W
LayerCount: 2
Fore
SplineSet
350 560 m 0,0,1
 391 520 391 520 449 503 c 0,2,3
 478 495 478 495 507 495 c 256,4,5
 536 495 536 495 565 503 c 0,6,7
 623 520 623 520 664 560 c 0,8,9
 704 601 704 601 721 659 c 0,10,11
 730 688 730 688 730 717 c 256,12,13
 730 746 730 746 721 775 c 0,14,15
 704 833 704 833 664 874 c 0,16,17
 623 914 623 914 564 931 c 0,18,19
 535 939 535 939 506 939 c 256,20,21
 477 939 477 939 448 930 c 0,22,23
 390 913 390 913 350 874 c 0,24,25
 311 834 311 834 294 776 c 0,26,27
 284 746 284 746 284 716 c 0,28,29
 284 688 284 688 293 660 c 0,30,31
 309 601 309 601 350 560 c 0,0,1
240 903 m 1,32,-1
 122 1021 l 1,33,-1
 202 1102 l 1,34,-1
 320 984 l 1,35,36
 364 1014 364 1014 419 1030 c 0,37,38
 463 1044 463 1044 508 1044 c 0,39,40
 549 1044 549 1044 591 1032 c 0,41,42
 648 1015 648 1015 693 984 c 1,43,-1
 811 1102 l 1,44,-1
 891 1021 l 1,45,-1
 774 904 l 1,46,47
 805 858 805 858 822 802 c 0,48,49
 834 760 834 760 834 717 c 0,50,51
 834 675 834 675 822 632 c 0,52,53
 805 576 805 576 774 530 c 1,54,-1
 891 413 l 1,55,-1
 811 332 l 1,56,-1
 693 450 l 1,57,58
 648 418 648 418 592 402 c 0,59,60
 550 390 550 390 507 390 c 0,61,62
 465 390 465 390 422 402 c 0,63,64
 365 418 365 418 320 450 c 1,65,-1
 202 332 l 1,66,-1
 122 413 l 1,67,-1
 240 530 l 1,68,69
 208 576 208 576 192 633 c 0,70,71
 180 675 180 675 180 717 c 0,72,73
 180 761 180 761 193 804 c 0,74,75
 209 859 209 859 240 903 c 1,32,-1
EndSplineSet
EndChar

StartChar: yen
Encoding: 165 165 98
Width: 1262
GlyphClass: 2
Flags: W
LayerCount: 2
Fore
SplineSet
547 225 m 2,0,-1
 545 467 l 2,1,2
 545 486 545 486 543.5 502 c 128,-1,3
 542 518 542 518 539 534 c 1,4,-1
 55 535 l 2,5,6
 41 535 41 535 34 541.5 c 128,-1,7
 27 548 27 548 27 561 c 256,8,9
 27 574 27 574 33.5 580 c 128,-1,10
 40 586 40 586 55 586 c 2,11,-1
 522 586 l 1,12,-1
 401 758 l 1,13,-1
 57 758 l 2,14,15
 40 758 40 758 33.5 763.5 c 128,-1,16
 27 769 27 769 27 782 c 0,17,18
 27 796 27 796 33 801.5 c 128,-1,19
 39 807 39 807 55 807 c 2,20,-1
 362 807 l 1,21,22
 319 864 319 864 254 962 c 0,23,24
 123 1159 123 1159 27 1159 c 0,25,26
 20 1159 20 1159 14 1164.5 c 128,-1,27
 8 1170 8 1170 8 1176 c 0,28,29
 8 1195 8 1195 18.5 1203.5 c 128,-1,30
 29 1212 29 1212 51 1212 c 0,31,32
 78 1212 78 1212 174 1204 c 128,-1,33
 270 1196 270 1196 338 1196 c 2,34,-1
 426 1196 l 2,35,36
 459 1196 459 1196 467 1189.5 c 128,-1,37
 475 1183 475 1183 475 1163 c 0,38,39
 475 1155 475 1155 460 1149 c 128,-1,40
 445 1143 445 1143 422 1143 c 0,41,42
 416 1143 416 1143 403.5 1145 c 128,-1,43
 391 1147 391 1147 385 1147 c 0,44,45
 361 1147 361 1147 347.5 1137.5 c 128,-1,46
 334 1128 334 1128 334 1112 c 0,47,48
 334 1094 334 1094 350.5 1060 c 128,-1,49
 367 1026 367 1026 397 983 c 2,50,-1
 555 762 l 2,51,52
 568 743 568 743 588 709 c 0,53,54
 629 639 629 639 659 639 c 0,55,56
 668 639 668 639 675.5 644 c 128,-1,57
 683 649 683 649 690 659 c 2,58,-1
 967 1055 l 2,59,60
 975 1067 975 1067 980 1081.5 c 128,-1,61
 985 1096 985 1096 985 1106 c 0,62,63
 985 1124 985 1124 975 1133 c 128,-1,64
 965 1142 965 1142 938 1147 c 0,65,66
 923 1149 923 1149 897 1151 c 0,67,68
 850 1154 850 1154 850 1176 c 0,69,70
 850 1191 850 1191 858 1198.5 c 128,-1,71
 866 1206 866 1206 883 1206 c 0,72,73
 886 1206 886 1206 898 1205 c 0,74,75
 954 1198 954 1198 1006 1198 c 2,76,-1
 1145 1198 l 2,77,78
 1175 1198 1175 1198 1210 1199 c 128,-1,79
 1245 1200 1245 1200 1247 1200 c 0,80,81
 1258 1200 1258 1200 1265.5 1195.5 c 128,-1,82
 1273 1191 1273 1191 1274 1184 c 0,83,84
 1274 1156 1274 1156 1236 1150 c 0,85,86
 1218 1147 1218 1147 1209 1145 c 0,87,88
 1146 1130 1146 1130 1062 1028 c 0,89,90
 1055 1019 1055 1019 1050 1013 c 2,91,-1
 881 807 l 1,92,-1
 1204 807 l 2,93,94
 1219 807 1219 807 1228 801 c 128,-1,95
 1237 795 1237 795 1237 784 c 0,96,97
 1237 769 1237 769 1231 763.5 c 128,-1,98
 1225 758 1225 758 1208 758 c 2,99,-1
 842 758 l 1,100,101
 796 701 796 701 745.5 645.5 c 128,-1,102
 695 590 695 590 693 586 c 1,103,-1
 1204 586 l 2,104,105
 1222 586 1222 586 1229.5 580.5 c 128,-1,106
 1237 575 1237 575 1237 563 c 0,107,108
 1237 549 1237 549 1230 542 c 128,-1,109
 1223 535 1223 535 1208 535 c 2,110,-1
 678 535 l 1,111,112
 678 524 678 524 677 504.5 c 128,-1,113
 676 485 676 485 676 475 c 2,114,-1
 678 260 l 2,115,116
 678 146 678 146 683.5 110 c 128,-1,117
 689 74 689 74 704 66 c 0,118,119
 734 49 734 49 811.5 47 c 128,-1,120
 889 45 889 45 889 16 c 0,121,122
 889 4 889 4 879 -4 c 128,-1,123
 869 -12 869 -12 854 -12 c 0,124,125
 852 -12 852 -12 818.5 -8 c 128,-1,126
 785 -4 785 -4 754 -4 c 0,127,128
 663 -4 663 -4 545.5 -8 c 128,-1,129
 428 -12 428 -12 403 -12 c 0,130,131
 372 -12 372 -12 363 -8 c 128,-1,132
 354 -4 354 -4 354 8 c 256,133,134
 354 20 354 20 362 26.5 c 128,-1,135
 370 33 370 33 399 39 c 0,136,137
 408 41 408 41 424 44 c 0,138,139
 498 60 498 60 516 76 c 0,140,141
 533 89 533 89 540 123 c 128,-1,142
 547 157 547 157 547 225 c 2,0,-1
EndSplineSet
EndChar

StartChar: brokenbar
Encoding: 166 166 99
Width: 1014
GlyphClass: 2
Flags: W
LayerCount: 2
Fore
SplineSet
427 371 m 1,0,-1
 587 371 l 1,1,-1
 587 -418 l 1,2,-1
 427 -418 l 1,3,-1
 427 371 l 1,0,-1
427 1578 m 1,4,-1
 587 1578 l 1,5,-1
 587 789 l 1,6,-1
 427 789 l 1,7,-1
 427 1578 l 1,4,-1
EndSplineSet
EndChar

StartChar: section
Encoding: 167 167 100
Width: 1014
GlyphClass: 2
Flags: W
LayerCount: 2
Fore
SplineSet
545 321 m 1,0,1
 601 337 601 337 642 374 c 0,2,3
 715 439 715 439 715 540 c 0,4,5
 715 545 715 545 714 550 c 1,6,-1
 712 550 l 1,7,8
 711 564 711 564 708 577 c 0,9,10
 686 638 686 638 595 704 c 1,11,12
 536 733 536 733 469 733 c 0,13,14
 391 733 391 733 344 688.5 c 128,-1,15
 297 644 297 644 297 571 c 0,16,17
 297 448 297 448 545 321 c 1,0,1
466 -346 m 1,18,19
 579 -340 579 -340 651 -277 c 0,20,21
 723 -213 723 -213 723 -112 c 0,22,23
 723 13 723 13 407 164 c 1,24,25
 284 228 284 228 231.5 301 c 128,-1,26
 179 374 179 374 179 478 c 0,27,28
 179 626 179 626 268 715 c 0,29,30
 335 780 335 780 438 797 c 1,31,-1
 398 816 l 1,32,33
 275 880 275 880 222.5 953 c 128,-1,34
 170 1026 170 1026 170 1130 c 0,35,36
 170 1278 170 1278 259 1367 c 0,37,38
 341 1446 341 1446 475 1453 c 0,39,40
 483 1454 483 1454 492 1454 c 2,41,-1
 495 1454 l 2,42,43
 561 1454 561 1454 658 1437.5 c 128,-1,44
 755 1421 755 1421 755 1396 c 2,45,-1
 755 1202 l 1,46,-1
 704 1202 l 1,47,48
 699 1283 699 1283 624 1334 c 0,49,50
 554 1381 554 1381 475 1385 c 1,51,-1
 460 1385 l 2,52,53
 382 1385 382 1385 335 1340.5 c 128,-1,54
 288 1296 288 1296 288 1223 c 0,55,56
 288 1091 288 1091 575 954 c 0,57,58
 724 887 724 887 779.5 810.5 c 128,-1,59
 835 734 835 734 835 623 c 0,60,61
 835 452 835 452 734 341 c 1,62,63
 687 302 687 302 635 277 c 1,64,65
 743 221 743 221 789 159 c 0,66,67
 844 82 844 82 844 -28 c 0,68,69
 844 -199 844 -199 743 -311 c 1,70,71
 619 -413 619 -413 466 -416 c 1,72,-1
 466 -415 l 1,73,74
 460 -416 460 -416 453 -416 c 2,75,-1
 450 -416 l 2,76,77
 384 -416 384 -416 287 -399.5 c 128,-1,78
 190 -383 190 -383 190 -358 c 2,79,-1
 190 -164 l 1,80,-1
 241 -164 l 1,81,82
 246 -245 246 -245 321 -296 c 0,83,84
 389 -341 389 -341 466 -346 c 1,18,19
EndSplineSet
EndChar

StartChar: dieresis
Encoding: 168 168 101
Width: 1024
GlyphClass: 2
Flags: W
LayerCount: 2
Fore
SplineSet
223 1289 m 2,0,-1
 294 1361 l 2,1,2
 307 1373 307 1373 319 1373 c 0,3,4
 330 1373 330 1373 346 1359 c 2,5,-1
 415 1286 l 2,6,7
 425 1272 425 1272 425 1261 c 0,8,9
 425 1248 425 1248 413 1234 c 2,10,-1
 344 1159 l 2,11,12
 327 1142 327 1142 319 1142 c 0,13,14
 305 1142 305 1142 294 1154 c 2,15,-1
 218 1240 l 2,16,17
 209 1252 209 1252 209 1263 c 0,18,19
 209 1276 209 1276 223 1289 c 2,0,-1
588 1289 m 2,20,-1
 659 1361 l 2,21,22
 672 1373 672 1373 684 1373 c 0,23,24
 695 1373 695 1373 711 1360 c 2,25,-1
 780 1286 l 2,26,27
 790 1272 790 1272 790 1261 c 0,28,29
 790 1248 790 1248 778 1235 c 2,30,-1
 709 1159 l 2,31,32
 692 1142 692 1142 684 1142 c 0,33,34
 670 1142 670 1142 659 1154 c 2,35,-1
 583 1241 l 2,36,37
 574 1252 574 1252 574 1263 c 0,38,39
 574 1276 574 1276 588 1289 c 2,20,-1
EndSplineSet
EndChar

StartChar: copyright
Encoding: 169 169 102
Width: 1674
GlyphClass: 2
Flags: W
LayerCount: 2
Fore
SplineSet
840 1456 m 0,0,1
 985 1456 985 1456 1120 1399.5 c 128,-1,2
 1255 1343 1255 1343 1359 1239 c 0,3,4
 1461 1138 1461 1138 1517.5 1001 c 128,-1,5
 1574 864 1574 864 1574 718 c 0,6,7
 1574 571 1574 571 1517.5 436 c 128,-1,8
 1461 301 1461 301 1355 196 c 0,9,10
 1250 91 1250 91 1116 36.5 c 128,-1,11
 982 -18 982 -18 833 -18 c 0,12,13
 687 -18 687 -18 555 37.5 c 128,-1,14
 423 93 423 93 317 198 c 0,15,16
 211 302 211 302 155.5 435.5 c 128,-1,17
 100 569 100 569 100 718 c 0,18,19
 100 866 100 866 155.5 1001 c 128,-1,20
 211 1136 211 1136 315 1239 c 0,21,22
 417 1343 417 1343 553.5 1399.5 c 128,-1,23
 690 1456 690 1456 840 1456 c 0,0,1
357 1197 m 256,24,25
 262 1101 262 1101 211 977.5 c 128,-1,26
 160 854 160 854 160 718 c 0,27,28
 160 581 160 581 211 459 c 128,-1,29
 262 337 262 337 359 240 c 0,30,31
 457 144 457 144 578 93 c 128,-1,32
 699 42 699 42 834 42 c 0,33,34
 971 42 971 42 1093.5 92.5 c 128,-1,35
 1216 143 1216 143 1313 238 c 0,36,37
 1410 336 1410 336 1462 459.5 c 128,-1,38
 1514 583 1514 583 1514 718 c 0,39,40
 1514 852 1514 852 1462 977.5 c 128,-1,41
 1410 1103 1410 1103 1317 1197 c 0,42,43
 1221 1293 1221 1293 1097 1344.5 c 128,-1,44
 973 1396 973 1396 839 1396 c 0,45,46
 702 1396 702 1396 577 1344.5 c 128,-1,47
 452 1293 452 1293 357 1197 c 256,24,25
865 223 m 0,48,49
 723 223 723 223 601 291 c 128,-1,50
 479 359 479 359 415 476 c 128,-1,51
 351 593 351 593 351 719 c 256,52,53
 351 845 351 845 416.5 963 c 128,-1,54
 482 1081 482 1081 604 1147.5 c 128,-1,55
 726 1214 726 1214 858 1214 c 0,56,57
 896 1214 896 1214 933 1207.5 c 128,-1,58
 970 1201 970 1201 1009 1187 c 0,59,60
 1014 1186 1014 1186 1018 1186 c 0,61,62
 1037 1186 1037 1186 1044 1216 c 1,63,-1
 1086 1216 l 1,64,-1
 1158 1018 l 1,65,-1
 1114 1018 l 1,66,67
 1062 1112 1062 1112 983 1142 c 0,68,69
 911 1168 911 1168 836 1168 c 2,70,-1
 821 1168 l 1,71,72
 735 1160 735 1160 654.5 1097 c 128,-1,73
 574 1034 574 1034 533 920 c 0,74,75
 500 830 500 830 500 736 c 0,76,77
 500 711 500 711 502 686 c 0,78,79
 513 565 513 565 571.5 462 c 128,-1,80
 630 359 630 359 721 310 c 0,81,82
 793 270 793 270 887 268 c 0,83,84
 1011 268 1011 268 1081 324 c 128,-1,85
 1151 380 1151 380 1151 450 c 1,86,-1
 1204 450 l 1,87,-1
 1204 350 l 2,88,89
 1204 304 1204 304 1107.5 263.5 c 128,-1,90
 1011 223 1011 223 865 223 c 0,48,49
EndSplineSet
EndChar

StartChar: guillemotleft
Encoding: 171 171 104
Width: 944
GlyphClass: 2
Flags: W
LayerCount: 2
Fore
SplineSet
174 479 m 1,0,-1
 516 782 l 1,1,-1
 530 782 l 1,2,-1
 530 745 l 1,3,-1
 325 479 l 1,4,-1
 530 213 l 1,5,-1
 530 176 l 1,6,-1
 516 176 l 1,7,-1
 174 479 l 1,0,-1
487 479 m 1,8,-1
 829 782 l 1,9,-1
 843 782 l 1,10,-1
 843 745 l 1,11,-1
 638 479 l 1,12,-1
 843 213 l 1,13,-1
 843 176 l 1,14,-1
 829 176 l 1,15,-1
 487 479 l 1,8,-1
EndSplineSet
EndChar

StartChar: logicalnot
Encoding: 172 172 105
Width: 1014
GlyphClass: 2
Flags: W
LayerCount: 2
Fore
SplineSet
87 767 m 1,0,-1
 927 767 l 1,1,-1
 927 276 l 1,2,-1
 926 275 l 1,3,-1
 828 275 l 1,4,-1
 828 667 l 1,5,-1
 87 667 l 1,6,-1
 87 767 l 1,0,-1
EndSplineSet
EndChar

StartChar: registered
Encoding: 174 174 106
Width: 1674
GlyphClass: 2
Flags: W
LayerCount: 2
Fore
SplineSet
751 1099 m 1,0,-1
 751 725 l 1,1,-1
 754 717 l 2,2,3
 777 661 777 661 810 636 c 0,4,5
 839 614 839 614 866 614 c 2,6,-1
 872 614 l 1,7,8
 903 618 903 618 933.5 652.5 c 128,-1,9
 964 687 964 687 980 750 c 0,10,11
 993 800 993 800 993 853 c 0,12,13
 993 866 993 866 992 880 c 0,14,15
 988 947 988 947 964 1004.5 c 128,-1,16
 940 1062 940 1062 907.5 1080.5 c 128,-1,17
 875 1099 875 1099 844 1099 c 2,18,-1
 751 1099 l 1,0,-1
984 576 m 1,19,-1
 1066 460 l 2,20,21
 1166 319 1166 319 1216 319 c 2,22,-1
 1250 319 l 1,23,-1
 1250 269 l 1,24,-1
 904 269 l 1,25,-1
 904 319 l 1,26,-1
 949 319 l 2,27,28
 979 319 979 319 979 341 c 0,29,30
 979 370 979 370 910 455 c 1,31,-1
 835 557 l 1,32,33
 793 557 793 557 751 599 c 1,34,-1
 751 440 l 2,35,36
 751 319 751 319 787 319 c 2,37,-1
 840 319 l 1,38,-1
 840 269 l 1,39,-1
 524 269 l 1,40,-1
 524 319 l 1,41,-1
 567 319 l 2,42,43
 604 319 604 319 604 440 c 2,44,-1
 604 978 l 2,45,46
 604 1099 604 1099 567 1099 c 2,47,-1
 524 1099 l 1,48,-1
 524 1169 l 1,49,-1
 880 1169 l 2,50,51
 944 1168 944 1168 1005 1127 c 0,52,53
 1065 1086 1065 1086 1097.5 1013 c 128,-1,54
 1130 940 1130 940 1130 861 c 0,55,56
 1130 783 1130 783 1098 710.5 c 128,-1,57
 1066 638 1066 638 984 576 c 1,19,-1
840 1456 m 0,58,59
 985 1456 985 1456 1120 1399.5 c 128,-1,60
 1255 1343 1255 1343 1359 1239 c 0,61,62
 1461 1138 1461 1138 1517.5 1001 c 128,-1,63
 1574 864 1574 864 1574 718 c 0,64,65
 1574 571 1574 571 1517.5 436 c 128,-1,66
 1461 301 1461 301 1355 196 c 0,67,68
 1250 91 1250 91 1116 36.5 c 128,-1,69
 982 -18 982 -18 833 -18 c 0,70,71
 687 -18 687 -18 555 37.5 c 128,-1,72
 423 93 423 93 317 198 c 0,73,74
 211 302 211 302 155.5 435.5 c 128,-1,75
 100 569 100 569 100 718 c 0,76,77
 100 866 100 866 155.5 1001 c 128,-1,78
 211 1136 211 1136 315 1239 c 0,79,80
 417 1343 417 1343 553.5 1399.5 c 128,-1,81
 690 1456 690 1456 840 1456 c 0,58,59
357 1197 m 256,82,83
 262 1101 262 1101 211 977.5 c 128,-1,84
 160 854 160 854 160 718 c 0,85,86
 160 581 160 581 211 459 c 128,-1,87
 262 337 262 337 359 240 c 0,88,89
 457 144 457 144 578 93 c 128,-1,90
 699 42 699 42 834 42 c 0,91,92
 971 42 971 42 1093.5 92.5 c 128,-1,93
 1216 143 1216 143 1313 238 c 0,94,95
 1410 336 1410 336 1462 459.5 c 128,-1,96
 1514 583 1514 583 1514 718 c 0,97,98
 1514 852 1514 852 1462 977.5 c 128,-1,99
 1410 1103 1410 1103 1317 1197 c 0,100,101
 1221 1293 1221 1293 1097 1344.5 c 128,-1,102
 973 1396 973 1396 839 1396 c 0,103,104
 702 1396 702 1396 577 1344.5 c 128,-1,105
 452 1293 452 1293 357 1197 c 256,82,83
EndSplineSet
EndChar

StartChar: degree
Encoding: 176 176 108
Width: 674
GlyphClass: 2
Flags: W
LayerCount: 2
Fore
SplineSet
339 1372 m 256,0,1
 253 1372 253 1372 191.5 1311 c 128,-1,2
 130 1250 130 1250 130 1163 c 256,3,4
 130 1076 130 1076 191 1016 c 128,-1,5
 252 956 252 956 339 956 c 256,6,7
 426 956 426 956 486 1016 c 128,-1,8
 546 1076 546 1076 546 1163 c 256,9,10
 546 1250 546 1250 485.5 1311 c 128,-1,11
 425 1372 425 1372 339 1372 c 256,0,1
339 1442 m 0,12,13
 454 1442 454 1442 535 1360.5 c 128,-1,14
 616 1279 616 1279 616 1164 c 0,15,16
 616 1050 616 1050 534 968 c 128,-1,17
 452 886 452 886 337 886 c 0,18,19
 220 886 220 886 140 967 c 128,-1,20
 60 1048 60 1048 60 1164 c 256,21,22
 60 1280 60 1280 141.5 1361 c 128,-1,23
 223 1442 223 1442 339 1442 c 0,12,13
EndSplineSet
EndChar

StartChar: acute
Encoding: 180 180 111
Width: 1024
GlyphClass: 2
Flags: W
LayerCount: 2
Fore
SplineSet
607 1375 m 2,0,1
 642 1410 642 1410 662.5 1422 c 128,-1,2
 683 1434 683 1434 703 1434 c 0,3,4
 736 1434 736 1434 756.5 1414 c 128,-1,5
 777 1394 777 1394 777 1363 c 0,6,7
 777 1341 777 1341 761.5 1321 c 128,-1,8
 746 1301 746 1301 715 1281 c 2,9,-1
 385 1078 l 1,10,-1
 316 1078 l 1,11,-1
 607 1375 l 2,0,1
EndSplineSet
EndChar

StartChar: paragraph
Encoding: 182 182 112
Width: 1024
GlyphClass: 2
Flags: W
LayerCount: 2
Fore
SplineSet
929 1435 m 1,0,-1
 929 1365 l 1,1,-1
 802 1365 l 1,2,-1
 802 0 l 1,3,-1
 720 0 l 1,4,-1
 720 1365 l 1,5,-1
 554 1365 l 1,6,-1
 554 0 l 1,7,-1
 470 0 l 1,8,-1
 470 738 l 1,9,10
 296 746 296 746 194.5 840.5 c 128,-1,11
 93 935 93 935 93 1086 c 0,12,13
 93 1243 93 1243 200.5 1339 c 128,-1,14
 308 1435 308 1435 486 1435 c 2,15,-1
 929 1435 l 1,0,-1
EndSplineSet
EndChar

StartChar: periodcentered
Encoding: 183 183 113
AltUni2: 002219.ffffffff.0
Width: 508
GlyphClass: 2
Flags: W
LayerCount: 2
Fore
SplineSet
145 740 m 2,0,-1
 227 824 l 2,1,2
 242 838 242 838 256 838 c 0,3,4
 269 838 269 838 287 822 c 2,5,-1
 367 736 l 2,6,7
 379 720 379 720 379 707 c 0,8,9
 379 692 379 692 365 676 c 2,10,-1
 285 588 l 2,11,12
 265 568 265 568 256 568 c 0,13,14
 240 568 240 568 227 582 c 2,15,-1
 139 683 l 2,16,17
 129 696 129 696 129 709 c 0,18,19
 129 724 129 724 145 740 c 2,0,-1
EndSplineSet
EndChar

StartChar: cedilla
Encoding: 184 184 114
Width: 1024
GlyphClass: 2
Flags: W
LayerCount: 2
Fore
SplineSet
360 -290 m 1,0,1
 445 -342 445 -342 512 -342 c 0,2,3
 578 -342 578 -342 606.5 -320.5 c 128,-1,4
 635 -299 635 -299 635 -254 c 256,5,6
 635 -209 635 -209 586 -190 c 0,7,8
 546 -174 546 -174 484 -174 c 0,9,10
 468 -174 468 -174 450 -176 c 1,11,-1
 498 0 l 1,12,-1
 561 0 l 1,13,-1
 524 -104 l 1,14,15
 556 -100 556 -100 586 -99 c 0,16,17
 672 -99 672 -99 720 -139.5 c 128,-1,18
 768 -180 768 -180 768 -253 c 0,19,20
 768 -329 768 -329 709.5 -373.5 c 128,-1,21
 651 -418 651 -418 549 -418 c 0,22,23
 440 -418 440 -418 360 -386 c 1,24,-1
 360 -290 l 1,0,1
EndSplineSet
EndChar

StartChar: guillemotright
Encoding: 187 187 115
Width: 944
GlyphClass: 2
Flags: W
LayerCount: 2
Fore
SplineSet
115 176 m 1,0,-1
 101 176 l 1,1,-1
 101 213 l 1,2,-1
 306 479 l 1,3,-1
 101 745 l 1,4,-1
 101 782 l 1,5,-1
 115 782 l 1,6,-1
 457 479 l 1,7,-1
 115 176 l 1,0,-1
428 176 m 1,8,-1
 414 176 l 1,9,-1
 414 213 l 1,10,-1
 619 479 l 1,11,-1
 414 745 l 1,12,-1
 414 782 l 1,13,-1
 428 782 l 1,14,-1
 770 479 l 1,15,-1
 428 176 l 1,8,-1
EndSplineSet
EndChar

StartChar: multiply
Encoding: 215 215 140
Width: 1014
GlyphClass: 2
Flags: W
LayerCount: 2
Fore
SplineSet
507 618 m 1,0,-1
 260 371 l 1,1,-1
 161 470 l 1,2,-1
 408 717 l 1,3,-1
 161 965 l 1,4,-1
 260 1063 l 1,5,-1
 507 816 l 1,6,-1
 755 1063 l 1,7,-1
 853 964 l 1,8,-1
 606 717 l 1,9,-1
 853 470 l 1,10,-1
 754 371 l 1,11,-1
 507 618 l 1,0,-1
EndSplineSet
EndChar

StartChar: divide
Encoding: 247 247 170
Width: 1014
GlyphClass: 2
Flags: W
LayerCount: 2
Fore
SplineSet
87 647 m 1,0,-1
 87 787 l 1,1,-1
 926 787 l 1,2,-1
 927 786 l 1,3,-1
 927 647 l 1,4,-1
 87 647 l 1,0,-1
398 408 m 2,5,-1
 480 492 l 2,6,7
 495 506 495 506 509 506 c 0,8,9
 522 506 522 506 540 490 c 2,10,-1
 620 404 l 2,11,12
 632 388 632 388 632 375 c 0,13,14
 632 360 632 360 618 344 c 2,15,-1
 538 256 l 2,16,17
 518 236 518 236 509 236 c 0,18,19
 493 236 493 236 480 250 c 2,20,-1
 392 351 l 2,21,22
 382 364 382 364 382 377 c 0,23,24
 382 392 382 392 398 408 c 2,5,-1
398 1101 m 2,25,-1
 480 1185 l 2,26,27
 495 1199 495 1199 509 1199 c 0,28,29
 522 1199 522 1199 540 1183 c 2,30,-1
 620 1097 l 2,31,32
 632 1081 632 1081 632 1068 c 0,33,34
 632 1053 632 1053 618 1037 c 2,35,-1
 538 949 l 2,36,37
 518 929 518 929 509 929 c 0,38,39
 493 929 493 929 480 943 c 2,40,-1
 392 1044 l 2,41,42
 382 1057 382 1057 382 1070 c 0,43,44
 382 1085 382 1085 398 1101 c 2,25,-1
EndSplineSet
EndChar

StartChar: dotlessi
Encoding: 305 305 178
Width: 378
GlyphClass: 2
Flags: W
LayerCount: 2
Fore
SplineSet
95 79 m 2,0,1
 95 26 95 26 106 9 c 0,2,3
 119 -10 119 -10 153 11 c 0,4,5
 215 50 215 50 237 61 c 256,6,7
 259 72 259 72 264 89 c 0,8,9
 268 103 268 103 268 160 c 0,10,11
 268 197 268 197 269 564 c 0,12,13
 271 930 271 930 271 956 c 0,14,15
 271 1008 271 1008 260 1020 c 0,16,17
 244 1039 244 1039 187 1012 c 0,18,19
 32 937 32 937 11 919 c 0,20,21
 -5 905 -5 905 3 889 c 0,22,23
 10 872 10 872 39 863 c 0,24,25
 79 850 79 850 88 831 c 0,26,27
 95 817 95 817 95 765 c 2,28,-1
 95 79 l 2,0,1
EndSplineSet
EndChar

StartChar: circumflex
Encoding: 710 710 179
Width: 1024
GlyphClass: 2
Flags: W
LayerCount: 2
Fore
SplineSet
221 1079 m 1,0,-1
 453 1434 l 1,1,-1
 571 1434 l 1,2,-1
 803 1079 l 1,3,-1
 745 1079 l 1,4,-1
 512 1295 l 1,5,-1
 279 1079 l 1,6,-1
 221 1079 l 1,0,-1
EndSplineSet
EndChar

StartChar: caron
Encoding: 711 711 180
Width: 1024
GlyphClass: 2
Flags: W
LayerCount: 2
Fore
SplineSet
221 1434 m 1,0,-1
 279 1434 l 1,1,-1
 512 1220 l 1,2,-1
 745 1434 l 1,3,-1
 803 1434 l 1,4,-1
 571 1078 l 1,5,-1
 453 1078 l 1,6,-1
 221 1434 l 1,0,-1
EndSplineSet
EndChar

StartChar: uni02C9
Encoding: 713 713 181
Width: 1024
GlyphClass: 2
Flags: W
LayerCount: 2
Fore
SplineSet
254 1195 m 1,0,-1
 254 1320 l 1,1,-1
 770 1320 l 1,2,-1
 770 1195 l 1,3,-1
 254 1195 l 1,0,-1
EndSplineSet
EndChar

StartChar: breve
Encoding: 728 728 182
Width: 1024
GlyphClass: 2
Flags: W
LayerCount: 2
Fore
SplineSet
219 1349 m 1,0,-1
 270 1349 l 1,1,2
 287 1276 287 1276 345 1242 c 128,-1,3
 403 1208 403 1208 512 1208 c 256,4,5
 621 1208 621 1208 678 1241.5 c 128,-1,6
 735 1275 735 1275 752 1349 c 1,7,-1
 803 1349 l 1,8,9
 783 1216 783 1216 709 1147.5 c 128,-1,10
 635 1079 635 1079 512 1079 c 0,11,12
 390 1079 390 1079 315 1148 c 128,-1,13
 240 1217 240 1217 219 1349 c 1,0,-1
EndSplineSet
EndChar

StartChar: dotaccent
Encoding: 729 729 183
Width: 1024
GlyphClass: 2
Flags: W
LayerCount: 2
Fore
SplineSet
422 1289 m 2,0,-1
 491 1361 l 2,1,2
 497 1367 497 1367 504 1370 c 128,-1,3
 511 1373 511 1373 518 1373 c 0,4,5
 524 1373 524 1373 530.5 1370 c 128,-1,6
 537 1367 537 1367 543 1361 c 2,7,-1
 614 1285 l 2,8,9
 619 1281 619 1281 621 1275 c 128,-1,10
 623 1269 623 1269 623 1261 c 0,11,12
 622 1252 622 1252 620 1246 c 128,-1,13
 618 1240 618 1240 612 1234 c 2,14,-1
 541 1158 l 2,15,16
 529 1147 529 1147 525 1144.5 c 128,-1,17
 521 1142 521 1142 518 1142 c 0,18,19
 508 1142 508 1142 501.5 1144.5 c 128,-1,20
 495 1147 495 1147 491 1153 c 2,21,-1
 416 1240 l 2,22,23
 412 1244 412 1244 410 1249.5 c 128,-1,24
 408 1255 408 1255 408 1263 c 0,25,26
 408 1269 408 1269 411 1275.5 c 128,-1,27
 414 1282 414 1282 422 1289 c 2,0,-1
EndSplineSet
EndChar

StartChar: ring
Encoding: 730 730 184
Width: 1024
GlyphClass: 2
Flags: W
LayerCount: 2
Fore
SplineSet
411 1257 m 0,0,1
 411 1215 411 1215 440 1186 c 128,-1,2
 469 1157 469 1157 511 1157 c 256,3,4
 553 1157 553 1157 582 1186 c 128,-1,5
 611 1215 611 1215 611 1257 c 0,6,7
 611 1297 611 1297 581.5 1326.5 c 128,-1,8
 552 1356 552 1356 511 1356 c 256,9,10
 470 1356 470 1356 440.5 1326.5 c 128,-1,11
 411 1297 411 1297 411 1257 c 0,0,1
335 1257 m 256,12,13
 335 1332 335 1332 386 1383 c 128,-1,14
 437 1434 437 1434 511 1434 c 0,15,16
 587 1434 587 1434 638.5 1382.5 c 128,-1,17
 690 1331 690 1331 690 1257 c 0,18,19
 690 1182 690 1182 638.5 1130.5 c 128,-1,20
 587 1079 587 1079 511 1079 c 0,21,22
 437 1079 437 1079 386 1130.5 c 128,-1,23
 335 1182 335 1182 335 1257 c 256,12,13
EndSplineSet
EndChar

StartChar: ogonek
Encoding: 731 731 185
Width: 1024
GlyphClass: 2
Flags: W
LayerCount: 2
Fore
SplineSet
640 0 m 1,0,1
 569 -62 569 -62 529.5 -119.5 c 128,-1,2
 490 -177 490 -177 490 -232 c 0,3,4
 490 -279 490 -279 517 -307 c 128,-1,5
 544 -335 544 -335 590 -335 c 0,6,7
 630 -335 630 -335 659.5 -319.5 c 128,-1,8
 689 -304 689 -304 709 -271 c 1,9,-1
 737 -287 l 1,10,11
 701 -350 701 -350 646.5 -384 c 128,-1,12
 592 -418 592 -418 527 -418 c 0,13,14
 457 -418 457 -418 413 -382.5 c 128,-1,15
 369 -347 369 -347 369 -292 c 0,16,17
 369 -216 369 -216 429.5 -135.5 c 128,-1,18
 490 -55 490 -55 591 0 c 1,19,-1
 640 0 l 1,0,1
EndSplineSet
EndChar

StartChar: tilde
Encoding: 732 732 186
Width: 1024
GlyphClass: 2
Flags: W
LayerCount: 2
Fore
SplineSet
808 1382 m 1,0,1
 788 1279 788 1279 739.5 1228 c 128,-1,2
 691 1177 691 1177 613 1177 c 2,3,-1
 609 1177 l 2,4,5
 559 1177 559 1177 496 1200 c 0,6,7
 430 1224 430 1224 382 1224 c 0,8,9
 343 1224 343 1224 321.5 1203.5 c 128,-1,10
 300 1183 300 1183 288 1132 c 1,11,-1
 234 1132 l 1,12,13
 253 1238 253 1238 302 1290.5 c 128,-1,14
 351 1343 351 1343 431 1343 c 0,15,16
 477 1342 477 1342 544 1319 c 0,17,18
 608 1296 608 1296 656 1296 c 2,19,-1
 660 1296 l 2,20,21
 696 1296 696 1296 718 1316 c 128,-1,22
 740 1336 740 1336 754 1382 c 1,23,-1
 808 1382 l 1,0,1
EndSplineSet
EndChar

StartChar: hungarumlaut
Encoding: 733 733 187
Width: 1024
GlyphClass: 2
Flags: W
LayerCount: 2
Fore
SplineSet
217 1079 m 1,0,-1
 361 1352 l 2,1,2
 385 1396 385 1396 406.5 1415 c 128,-1,3
 428 1434 428 1434 453 1434 c 0,4,5
 481 1434 481 1434 501 1414 c 128,-1,6
 521 1394 521 1394 521 1367 c 0,7,8
 521 1351 521 1351 510.5 1332 c 128,-1,9
 500 1313 500 1313 480 1291 c 2,10,-1
 275 1079 l 1,11,-1
 217 1079 l 1,0,-1
502 1079 m 1,12,-1
 646 1352 l 2,13,14
 670 1396 670 1396 691.5 1415 c 128,-1,15
 713 1434 713 1434 738 1434 c 0,16,17
 766 1434 766 1434 786 1414 c 128,-1,18
 806 1394 806 1394 806 1367 c 0,19,20
 806 1351 806 1351 795.5 1332 c 128,-1,21
 785 1313 785 1313 765 1291 c 2,22,-1
 560 1079 l 1,23,-1
 502 1079 l 1,12,-1
EndSplineSet
EndChar

StartChar: endash
Encoding: 8211 8211 188
Width: 1108
GlyphClass: 2
Flags: W
LayerCount: 2
Fore
SplineSet
56 419 m 1,0,-1
 56 539 l 1,1,-1
 1052 539 l 1,2,-1
 1052 419 l 1,3,-1
 56 419 l 1,0,-1
EndSplineSet
EndChar

StartChar: emdash
Encoding: 8212 8212 189
Width: 2048
GlyphClass: 2
Flags: W
LayerCount: 2
Fore
SplineSet
0 419 m 1,0,-1
 0 539 l 1,1,-1
 2048 539 l 1,2,-1
 2048 419 l 1,3,-1
 0 419 l 1,0,-1
EndSplineSet
EndChar

StartChar: quoteleft
Encoding: 8216 8216 190
Width: 522
GlyphClass: 2
Flags: W
LayerCount: 2
Fore
SplineSet
408 1224 m 1,0,1
 284 1315 284 1315 284 1343 c 0,2,3
 284 1372 284 1372 408 1593 c 1,4,5
 105 1262 105 1262 105 1235 c 0,6,7
 105 1207 105 1207 267 1093 c 1,8,-1
 408 1224 l 1,0,1
EndSplineSet
EndChar

StartChar: quoteright
Encoding: 8217 8217 191
Width: 522
GlyphClass: 2
Flags: W
LayerCount: 2
Fore
SplineSet
114 1455 m 1,0,1
 238 1364 238 1364 238 1336 c 0,2,3
 238 1307 238 1307 114 1086 c 1,4,5
 417 1417 417 1417 417 1444 c 0,6,7
 417 1472 417 1472 255 1586 c 1,8,-1
 114 1455 l 1,0,1
EndSplineSet
EndChar

StartChar: quotedblright
Encoding: 8221 8221 194
Width: 862
GlyphClass: 2
Flags: W
LayerCount: 2
Fore
SplineSet
114 1455 m 1,0,1
 238 1364 238 1364 238 1336 c 0,2,3
 238 1307 238 1307 114 1086 c 1,4,5
 417 1417 417 1417 417 1444 c 0,6,7
 417 1472 417 1472 255 1586 c 1,8,-1
 114 1455 l 1,0,1
444 1455 m 1,9,10
 568 1364 568 1364 568 1336 c 0,11,12
 568 1307 568 1307 444 1086 c 1,13,14
 747 1417 747 1417 747 1444 c 0,15,16
 747 1472 747 1472 585 1586 c 1,17,-1
 444 1455 l 1,9,10
EndSplineSet
EndChar

StartChar: dagger
Encoding: 8224 8224 196
Width: 1014
GlyphClass: 2
Flags: W
LayerCount: 2
Fore
SplineSet
486 1022 m 1,0,1
 478 1119 478 1119 432 1200 c 0,2,3
 375 1301 375 1301 375 1329 c 0,4,5
 375 1378 375 1378 411 1407.5 c 128,-1,6
 447 1437 447 1437 507 1437 c 0,7,8
 564 1437 564 1437 601.5 1409.5 c 128,-1,9
 639 1382 639 1382 639 1338 c 0,10,11
 639 1306 639 1306 584 1201 c 0,12,13
 538 1116 538 1116 529 1022 c 1,14,15
 625 1030 625 1030 706 1076 c 0,16,17
 807 1133 807 1133 835 1133 c 0,18,19
 884 1133 884 1133 914 1097 c 128,-1,20
 944 1061 944 1061 944 1001 c 0,21,22
 944 944 944 944 916.5 906.5 c 128,-1,23
 889 869 889 869 844 869 c 0,24,25
 812 869 812 869 708 924 c 0,26,27
 623 970 623 970 529 981 c 1,28,29
 537 805 537 805 639 704 c 1,30,31
 533 244 533 244 527 -270 c 1,32,-1
 489 -270 l 1,33,34
 483 244 483 244 375 704 c 1,35,36
 477 805 477 805 486 981 c 1,37,38
 390 971 390 971 308 926 c 0,39,40
 207 869 207 869 179 869 c 0,41,42
 130 869 130 869 100.5 905 c 128,-1,43
 71 941 71 941 71 1001 c 0,44,45
 71 1058 71 1058 98.5 1095.5 c 128,-1,46
 126 1133 126 1133 170 1133 c 0,47,48
 202 1133 202 1133 307 1077 c 0,49,50
 392 1031 392 1031 486 1022 c 1,0,1
EndSplineSet
EndChar

StartChar: daggerdbl
Encoding: 8225 8225 197
Width: 1014
GlyphClass: 2
Flags: W
LayerCount: 2
Fore
SplineSet
528 186 m 1,0,1
 622 197 622 197 707 243 c 0,2,3
 811 298 811 298 843 298 c 0,4,5
 888 298 888 298 915.5 260.5 c 128,-1,6
 943 223 943 223 943 166 c 0,7,8
 943 106 943 106 913 70 c 128,-1,9
 883 34 883 34 834 34 c 0,10,11
 806 34 806 34 705 91 c 0,12,13
 624 137 624 137 528 145 c 1,14,15
 537 51 537 51 583 -34 c 0,16,17
 638 -139 638 -139 638 -171 c 0,18,19
 638 -215 638 -215 600.5 -242.5 c 128,-1,20
 563 -270 563 -270 506 -270 c 0,21,22
 446 -270 446 -270 410 -240.5 c 128,-1,23
 374 -211 374 -211 374 -162 c 0,24,25
 374 -134 374 -134 431 -33 c 0,26,27
 477 48 477 48 485 145 c 1,28,29
 391 136 391 136 306 90 c 0,30,31
 201 34 201 34 169 34 c 0,32,33
 125 34 125 34 97.5 71.5 c 128,-1,34
 70 109 70 109 70 166 c 0,35,36
 70 226 70 226 99.5 262 c 128,-1,37
 129 298 129 298 178 298 c 0,38,39
 206 298 206 298 307 241 c 0,40,41
 389 196 389 196 485 186 c 1,42,43
 476 412 476 412 374 584 c 1,44,45
 476 755 476 755 485 981 c 1,46,47
 389 971 389 971 307 926 c 0,48,49
 206 869 206 869 178 869 c 0,50,51
 129 869 129 869 99.5 905 c 128,-1,52
 70 941 70 941 70 1001 c 0,53,54
 70 1058 70 1058 97.5 1095.5 c 128,-1,55
 125 1133 125 1133 169 1133 c 0,56,57
 201 1133 201 1133 306 1077 c 0,58,59
 391 1031 391 1031 485 1022 c 1,60,61
 477 1119 477 1119 431 1200 c 0,62,63
 374 1301 374 1301 374 1329 c 0,64,65
 374 1378 374 1378 410 1407.5 c 128,-1,66
 446 1437 446 1437 506 1437 c 0,67,68
 563 1437 563 1437 600.5 1409.5 c 128,-1,69
 638 1382 638 1382 638 1338 c 0,70,71
 638 1306 638 1306 583 1201 c 0,72,73
 537 1116 537 1116 528 1022 c 1,74,75
 624 1030 624 1030 705 1076 c 0,76,77
 806 1133 806 1133 834 1133 c 0,78,79
 883 1133 883 1133 913 1097 c 128,-1,80
 943 1061 943 1061 943 1001 c 0,81,82
 943 944 943 944 915.5 906.5 c 128,-1,83
 888 869 888 869 843 869 c 0,84,85
 811 869 811 869 707 924 c 0,86,87
 622 970 622 970 528 981 c 1,88,89
 536 755 536 755 638 584 c 1,90,91
 536 412 536 412 528 186 c 1,0,1
EndSplineSet
EndChar

StartChar: bullet
Encoding: 8226 8226 198
Width: 1024
GlyphClass: 2
Flags: W
LayerCount: 2
Fore
SplineSet
216 718 m 256,0,1
 216 841 216 841 303 927 c 128,-1,2
 390 1013 390 1013 513 1013 c 0,3,4
 635 1013 635 1013 721.5 926.5 c 128,-1,5
 808 840 808 840 808 718 c 256,6,7
 808 596 808 596 720.5 508.5 c 128,-1,8
 633 421 633 421 511 421 c 0,9,10
 388 421 388 421 302 508 c 128,-1,11
 216 595 216 595 216 718 c 256,0,1
EndSplineSet
EndChar

StartChar: ellipsis
Encoding: 8230 8230 199
Width: 2048
GlyphClass: 2
Flags: W
LayerCount: 2
Fore
SplineSet
145 167 m 2,0,-1
 227 251 l 2,1,2
 242 265 242 265 256 265 c 0,3,4
 269 265 269 265 287 249 c 2,5,-1
 367 163 l 2,6,7
 379 147 379 147 379 134 c 0,8,9
 379 119 379 119 365 103 c 2,10,-1
 285 15 l 2,11,12
 265 -5 265 -5 256 -5 c 0,13,14
 240 -5 240 -5 227 9 c 2,15,-1
 139 110 l 2,16,17
 129 123 129 123 129 136 c 0,18,19
 129 151 129 151 145 167 c 2,0,-1
828 167 m 2,20,-1
 910 251 l 2,21,22
 925 265 925 265 939 265 c 0,23,24
 952 265 952 265 970 249 c 2,25,-1
 1050 163 l 2,26,27
 1062 147 1062 147 1062 134 c 0,28,29
 1062 119 1062 119 1048 103 c 2,30,-1
 968 15 l 2,31,32
 948 -5 948 -5 939 -5 c 0,33,34
 923 -5 923 -5 910 9 c 2,35,-1
 822 110 l 2,36,37
 812 123 812 123 812 136 c 0,38,39
 812 151 812 151 828 167 c 2,20,-1
1511 167 m 2,40,-1
 1593 251 l 2,41,42
 1608 265 1608 265 1622 265 c 0,43,44
 1635 265 1635 265 1653 249 c 2,45,-1
 1733 163 l 2,46,47
 1745 147 1745 147 1745 134 c 0,48,49
 1745 119 1745 119 1731 103 c 2,50,-1
 1651 15 l 2,51,52
 1631 -5 1631 -5 1622 -5 c 0,53,54
 1606 -5 1606 -5 1593 9 c 2,55,-1
 1505 110 l 2,56,57
 1495 123 1495 123 1495 136 c 0,58,59
 1495 151 1495 151 1511 167 c 2,40,-1
EndSplineSet
EndChar

StartChar: guilsinglleft
Encoding: 8249 8249 200
Width: 631
GlyphClass: 2
Flags: W
LayerCount: 2
Fore
SplineSet
174 479 m 1,0,-1
 516 782 l 1,1,-1
 530 782 l 1,2,-1
 530 745 l 1,3,-1
 325 479 l 1,4,-1
 530 213 l 1,5,-1
 530 176 l 1,6,-1
 516 176 l 1,7,-1
 174 479 l 1,0,-1
EndSplineSet
EndChar

StartChar: guilsinglright
Encoding: 8250 8250 201
Width: 631
GlyphClass: 2
Flags: W
LayerCount: 2
Fore
SplineSet
115 176 m 1,0,-1
 101 176 l 1,1,-1
 101 213 l 1,2,-1
 306 479 l 1,3,-1
 101 745 l 1,4,-1
 101 782 l 1,5,-1
 115 782 l 1,6,-1
 457 479 l 1,7,-1
 115 176 l 1,0,-1
EndSplineSet
EndChar

StartChar: fraction
Encoding: 8260 8260 202
AltUni2: 002215.ffffffff.0
Width: 342
GlyphClass: 2
Flags: W
LayerCount: 2
Fore
SplineSet
-342 -29 m 1,0,-1
 598 1432 l 1,1,-1
 682 1432 l 1,2,-1
 -256 -29 l 1,3,-1
 -342 -29 l 1,0,-1
EndSplineSet
EndChar

StartChar: franc
Encoding: 8355 8355 203
Width: 1014
GlyphClass: 2
Flags: W
LayerCount: 2
Fore
SplineSet
247 357 m 1,0,-1
 53 357 l 1,1,-1
 53 417 l 1,2,-1
 247 417 l 1,3,-1
 247 1149 l 2,4,5
 247 1384 247 1384 144 1384 c 2,6,-1
 48 1384 l 1,7,-1
 48 1434 l 1,8,-1
 963 1434 l 1,9,-1
 1066 1203 l 1,10,-1
 1017 1203 l 1,11,12
 958 1385 958 1385 827 1385 c 2,13,-1
 511 1384 l 2,14,15
 409 1384 409 1384 409 1149 c 2,16,-1
 409 797 l 1,17,-1
 770 797 l 2,18,19
 870 797 870 797 870 860 c 2,20,-1
 870 918 l 1,21,-1
 920 918 l 1,22,-1
 920 576 l 1,23,-1
 870 576 l 1,24,-1
 870 636 l 2,25,26
 870 698 870 698 770 698 c 2,27,-1
 409 698 l 1,28,-1
 409 417 l 1,29,-1
 603 417 l 1,30,-1
 603 357 l 1,31,-1
 409 357 l 1,32,-1
 409 285 l 2,33,34
 409 50 409 50 511 50 c 2,35,-1
 608 50 l 1,36,-1
 608 0 l 1,37,-1
 48 0 l 1,38,-1
 48 50 l 1,39,-1
 144 50 l 2,40,41
 247 50 247 50 247 285 c 2,42,-1
 247 357 l 1,0,-1
EndSplineSet
EndChar

StartChar: lira
Encoding: 8356 8356 204
Width: 1014
GlyphClass: 2
Flags: W
LayerCount: 2
Fore
SplineSet
748 1347 m 1,0,1
 676 1378 676 1378 588 1378 c 2,2,-1
 586 1378 l 2,3,4
 486 1378 486 1378 396 1277 c 0,5,6
 312 1184 312 1184 312 1036 c 0,7,8
 312 1021 312 1021 313 1006 c 0,9,10
 313 900 313 900 346 793 c 1,11,-1
 726 793 l 1,12,-1
 726 733 l 1,13,-1
 366 733 l 1,14,15
 378 703 378 703 392 673 c 1,16,-1
 744 673 l 1,17,-1
 744 613 l 1,18,-1
 423 613 l 1,19,20
 458 550 458 550 458 475 c 0,21,22
 458 314 458 314 296 100 c 1,23,-1
 698 100 l 2,24,25
 828 100 828 100 887 232 c 1,26,-1
 936 231 l 1,27,-1
 833 0 l 1,28,-1
 114 0 l 1,29,-1
 115 50 l 1,30,31
 302 288 302 288 302 468 c 0,32,33
 302 545 302 545 268 611 c 1,34,-1
 266 613 l 1,35,-1
 94 613 l 1,36,-1
 94 673 l 1,37,-1
 237 673 l 1,38,39
 223 704 223 704 211 733 c 1,40,-1
 76 733 l 1,41,-1
 76 793 l 1,42,-1
 189 793 l 1,43,44
 153 900 153 900 153 986 c 0,45,46
 153 1212 153 1212 276.5 1333 c 128,-1,47
 400 1454 400 1454 587 1454 c 0,48,49
 662 1454 662 1454 772.5 1440 c 128,-1,50
 883 1426 883 1426 883 1406 c 2,51,-1
 883 1245 l 1,52,-1
 825 1245 l 1,53,54
 820 1306 820 1306 748 1347 c 1,0,1
EndSplineSet
EndChar

StartChar: peseta
Encoding: 8359 8359 205
Width: 2028
GlyphClass: 2
Flags: W
LayerCount: 2
Fore
SplineSet
409 1384 m 1,0,-1
 409 722 l 2,1,2
 412 713 412 713 416 705 c 0,3,4
 457 603 457 603 524 552 c 0,5,6
 581 508 581 508 640 508 c 0,7,8
 650 508 650 508 659 509 c 0,9,10
 727 517 727 517 786 584 c 128,-1,11
 845 651 845 651 873 761 c 0,12,13
 895 848 895 848 895 940 c 0,14,15
 895 964 895 964 894 987 c 0,16,17
 887 1103 887 1103 844.5 1205.5 c 128,-1,18
 802 1308 802 1308 736 1350 c 0,19,20
 680 1385 680 1385 624 1385 c 0,21,22
 614 1385 614 1385 603 1384 c 2,23,-1
 409 1384 l 1,0,-1
1496 908 m 1,24,-1
 1317 908 l 1,25,-1
 1317 223 l 2,26,27
 1317 142 1317 142 1351 104 c 0,28,29
 1379 73 1379 73 1432 67 c 1,30,-1
 1361 259 l 1,31,-1
 1410 260 l 1,32,33
 1465 130 1465 130 1524 86 c 0,34,35
 1581 42 1581 42 1651 42 c 2,36,-1
 1658 42 l 2,37,38
 1750 42 1750 42 1809 94 c 0,39,40
 1868 147 1868 147 1868 230 c 0,41,42
 1868 332 1868 332 1609 456 c 0,43,44
 1508 508 1508 508 1465 568 c 128,-1,45
 1422 628 1422 628 1422 713 c 0,46,47
 1422 834 1422 834 1495 907 c 2,48,-1
 1496 908 l 1,24,-1
1039 910 m 1,49,50
 1032 809 1032 809 991 716 c 0,51,52
 941 602 941 602 850 538.5 c 128,-1,53
 759 475 759 475 660 475 c 0,54,55
 560 475 560 475 469 539 c 0,56,57
 436 561 436 561 409 590 c 1,58,-1
 409 285 l 2,59,60
 409 50 409 50 511 50 c 2,61,-1
 608 50 l 1,62,-1
 608 0 l 1,63,-1
 48 0 l 1,64,-1
 48 50 l 1,65,-1
 144 50 l 2,66,67
 247 50 247 50 247 285 c 2,68,-1
 247 1149 l 2,69,70
 247 1384 247 1384 144 1384 c 2,71,-1
 48 1384 l 1,72,-1
 48 1434 l 1,73,-1
 666 1434 l 2,74,75
 758 1432 758 1432 847 1372 c 0,76,77
 938 1310 938 1310 990 1195 c 0,78,79
 1040 1082 1040 1082 1041 958 c 1,80,-1
 1051 958 l 2,81,82
 1267 958 1267 958 1267 1313 c 1,83,-1
 1317 1313 l 1,84,-1
 1317 958 l 1,85,-1
 1576 958 l 1,86,87
 1618 977 1618 977 1686 978 c 2,88,-1
 1688 978 l 2,89,90
 1742 978 1742 978 1821.5 964.5 c 128,-1,91
 1901 951 1901 951 1901 931 c 2,92,-1
 1901 772 l 1,93,-1
 1859 772 l 1,94,95
 1855 838 1855 838 1793.5 880 c 128,-1,96
 1732 922 1732 922 1660 922 c 0,97,98
 1596 922 1596 922 1557.5 885.5 c 128,-1,99
 1519 849 1519 849 1519 789 c 0,100,101
 1519 681 1519 681 1754 569 c 0,102,103
 1876 514 1876 514 1921.5 451.5 c 128,-1,104
 1967 389 1967 389 1967 298 c 0,105,106
 1967 158 1967 158 1884 67 c 1,107,108
 1782 -17 1782 -17 1656 -19 c 0,109,110
 1598 -19 1598 -19 1551 -8 c 0,111,112
 1523 -2 1523 -2 1495 -2 c 0,113,114
 1477 -2 1477 -2 1459 -5 c 0,115,116
 1431 -10 1431 -10 1400 -10 c 0,117,118
 1276 -10 1276 -10 1226.5 47 c 128,-1,119
 1177 104 1177 104 1169 223 c 1,120,-1
 1168 223 l 1,121,-1
 1168 910 l 1,122,-1
 1039 910 l 1,49,50
EndSplineSet
EndChar

StartChar: Euro
Encoding: 8364 8364 206
Width: 1014
GlyphClass: 2
Flags: W
LayerCount: 2
Fore
SplineSet
140 372 m 0,0,1
 78 507 78 507 64 653 c 1,2,-1
 -44 653 l 1,3,-1
 -27 713 l 1,4,-1
 60 713 l 1,5,-1
 60 742 l 2,6,7
 60 758 60 758 61 773 c 1,8,-1
 -10 773 l 1,9,-1
 7 833 l 1,10,-1
 65 833 l 1,11,12
 79 978 79 978 141 1114 c 0,13,14
 222 1292 222 1292 367 1388 c 128,-1,15
 512 1484 512 1484 665 1484 c 0,16,17
 708 1484 708 1484 752 1476 c 0,18,19
 792 1466 792 1466 834 1447 c 0,20,21
 842 1441 842 1441 850 1441 c 0,22,23
 870 1441 870 1441 884 1486 c 1,24,-1
 925 1486 l 1,25,-1
 1009 1205 l 1,26,-1
 969 1204 l 1,27,28
 920 1338 920 1338 831 1382 c 0,29,30
 788 1404 788 1404 750 1414 c 1,31,-1
 750 1417 l 1,32,33
 700 1433 700 1433 649 1433 c 0,34,35
 632 1433 632 1433 615 1431 c 0,36,37
 495 1419 495 1419 389 1317.5 c 128,-1,38
 283 1216 283 1216 232 1044 c 0,39,40
 200 940 200 940 193 833 c 1,41,-1
 899 833 l 1,42,-1
 882 773 l 1,43,-1
 190 773 l 1,44,45
 190 743 190 743 192 713 c 1,46,-1
 866 713 l 1,47,-1
 849 653 l 1,48,-1
 197 653 l 1,49,50
 214 495 214 495 280 355 c 0,51,52
 354 198 354 198 473 119 c 0,53,54
 575 51 575 51 689 50 c 0,55,56
 875 53 875 53 945 141 c 0,57,58
 1019 232 1019 232 1019 326 c 1,59,-1
 1067 326 l 1,60,-1
 1067 183 l 2,61,62
 1067 113 1067 113 956 56 c 0,63,64
 851 2 851 2 689 0 c 0,65,66
 508 0 508 0 363.5 98 c 128,-1,67
 219 196 219 196 140 372 c 0,0,1
EndSplineSet
EndChar

StartChar: partialdiff
Encoding: 8706 8706 208
Width: 1014
GlyphClass: 2
Flags: W
LayerCount: 2
Fore
SplineSet
232 537 m 0,0,1
 232 496 232 496 237 458 c 0,2,3
 251 336 251 336 298.5 228 c 128,-1,4
 346 120 346 120 417 63 c 0,5,6
 481 10 481 10 545 10 c 0,7,8
 551 10 551 10 558 11 c 0,9,10
 628 16 628 16 685.5 81.5 c 128,-1,11
 743 147 743 147 766 261 c 0,12,13
 782 334 782 334 782 410 c 0,14,15
 782 452 782 452 777 495 c 0,16,17
 763 617 763 617 714.5 726.5 c 128,-1,18
 666 836 666 836 595 892 c 0,19,20
 530 942 530 942 467 942 c 2,21,-1
 456 942 l 1,22,23
 388 937 388 937 330 872.5 c 128,-1,24
 272 808 272 808 248 694 c 0,25,26
 232 610 232 610 232 537 c 0,0,1
937 477 m 0,27,28
 937 345 937 345 880.5 226 c 128,-1,29
 824 107 824 107 721.5 41 c 128,-1,30
 619 -25 619 -25 507 -25 c 256,31,32
 395 -25 395 -25 292.5 41 c 128,-1,33
 190 107 190 107 133.5 226 c 128,-1,34
 77 345 77 345 77 477 c 0,35,36
 77 608 77 608 135 728 c 128,-1,37
 193 848 193 848 296 913 c 128,-1,38
 399 978 399 978 507 978 c 0,39,40
 616 978 616 978 719 913 c 0,41,42
 748 895 748 895 773 872 c 1,43,44
 689 1107 689 1107 539.5 1249 c 128,-1,45
 390 1391 390 1391 213 1404 c 1,46,-1
 213 1459 l 1,47,48
 519 1459 519 1459 728 1174 c 128,-1,49
 937 889 937 889 937 477 c 0,27,28
EndSplineSet
EndChar

StartChar: Delta
Encoding: 8710 8710 209
Width: 1081
GlyphClass: 2
Flags: W
LayerCount: 2
Fore
SplineSet
514 1195 m 1,0,-1
 108 123 l 1,1,-1
 909 123 l 1,2,-1
 514 1195 l 1,0,-1
547 1434 m 1,3,-1
 1073 0 l 1,4,-1
 6 0 l 1,5,-1
 547 1434 l 1,3,-1
EndSplineSet
EndChar

StartChar: product
Encoding: 8719 8719 210
Width: 1515
GlyphClass: 2
Flags: W
LayerCount: 2
Fore
SplineSet
511 1384 m 2,0,1
 409 1384 409 1384 409 1149 c 2,2,-1
 409 -132 l 2,3,4
 409 -367 409 -367 511 -367 c 2,5,-1
 608 -367 l 1,6,-1
 608 -418 l 1,7,-1
 48 -418 l 1,8,-1
 48 -367 l 1,9,-1
 144 -367 l 2,10,11
 247 -367 247 -367 247 -132 c 2,12,-1
 247 1149 l 2,13,14
 247 1384 247 1384 144 1384 c 2,15,-1
 48 1384 l 1,16,-1
 48 1434 l 1,17,-1
 1467 1434 l 1,18,-1
 1467 1384 l 1,19,-1
 1370 1384 l 2,20,21
 1268 1384 1268 1384 1268 1149 c 2,22,-1
 1268 -132 l 2,23,24
 1268 -367 1268 -367 1370 -367 c 2,25,-1
 1467 -367 l 1,26,-1
 1467 -417 l 1,27,-1
 907 -417 l 1,28,-1
 907 -367 l 1,29,-1
 1003 -367 l 2,30,31
 1106 -367 1106 -367 1106 -132 c 2,32,-1
 1106 1149 l 2,33,34
 1106 1384 1106 1384 1003 1384 c 2,35,-1
 511 1384 l 2,0,1
EndSplineSet
EndChar

StartChar: summation
Encoding: 8721 8721 211
Width: 1206
GlyphClass: 2
Flags: W
LayerCount: 2
Fore
SplineSet
1059 548 m 1,0,-1
 271 -366 l 1,1,-1
 906 -366 l 2,2,3
 1036 -366 1036 -366 1095 -184 c 1,4,-1
 1144 -184 l 1,5,-1
 1041 -416 l 1,6,-1
 120 -416 l 1,7,-1
 120 -366 l 1,8,9
 182 -366 182 -366 226 -313 c 2,10,-1
 889 468 l 1,11,-1
 226 1327 l 2,12,13
 182 1384 182 1384 120 1384 c 1,14,-1
 120 1434 l 1,15,-1
 1041 1434 l 1,16,-1
 1144 1202 l 1,17,-1
 1095 1202 l 1,18,19
 1036 1384 1036 1384 906 1384 c 2,20,-1
 421 1384 l 1,21,-1
 1059 548 l 1,0,-1
EndSplineSet
EndChar

StartChar: minus
Encoding: 8722 8722 212
Width: 1014
GlyphClass: 2
Flags: W
LayerCount: 2
Fore
SplineSet
87 647 m 1,0,-1
 87 787 l 1,1,-1
 926 787 l 1,2,-1
 927 786 l 1,3,-1
 927 647 l 1,4,-1
 87 647 l 1,0,-1
EndSplineSet
EndChar

StartChar: radical
Encoding: 8730 8730 213
Width: 1014
GlyphClass: 2
Flags: W
LayerCount: 2
Fore
SplineSet
181 0 m 1,0,-1
 17 359 l 1,1,-1
 91 394 l 1,2,-1
 176 209 l 1,3,-1
 904 1679 l 1,4,-1
 1054 1679 l 1,5,-1
 1054 1619 l 1,6,-1
 982 1619 l 1,7,-1
 181 0 l 1,0,-1
EndSplineSet
EndChar

StartChar: infinity
Encoding: 8734 8734 214
Width: 1014
GlyphClass: 2
Flags: W
LayerCount: 2
Fore
SplineSet
439 755 m 1,0,1
 424 858 424 858 365 888 c 0,2,3
 319 910 319 910 281 910 c 0,4,5
 269 910 269 910 258 908 c 0,6,7
 209 898 209 898 165.5 863.5 c 128,-1,8
 122 829 122 829 100 779 c 0,9,10
 80 733 80 733 80 689 c 2,11,-1
 80 681 l 2,12,13
 82 633 82 633 107.5 592 c 128,-1,14
 133 551 133 551 179 534 c 0,15,16
 208 523 208 523 240 523 c 0,17,18
 256 523 256 523 273 526 c 0,19,20
 320 536 320 536 363.5 569.5 c 128,-1,21
 407 603 407 603 439 755 c 1,0,1
466 687 m 1,22,23
 478 591 478 591 560 534 c 0,24,25
 629 486 629 486 683 486 c 0,26,27
 694 486 694 486 704 488 c 0,28,29
 766 500 766 500 821.5 540 c 128,-1,30
 877 580 877 580 906 641 c 0,31,32
 932 695 932 695 932 749 c 2,33,-1
 932 760 l 2,34,35
 930 820 930 820 896.5 868.5 c 128,-1,36
 863 917 863 917 805 937 c 0,37,38
 768 950 768 950 729 950 c 0,39,40
 707 950 707 950 685 946 c 0,41,42
 618 937 618 937 558 884 c 128,-1,43
 498 831 498 831 466 687 c 1,22,23
450 827 m 1,44,45
 459 862 459 862 471 896 c 0,46,47
 505 984 505 984 566 1033 c 128,-1,48
 627 1082 627 1082 694 1082 c 256,49,50
 761 1082 761 1082 822 1034 c 128,-1,51
 883 986 883 986 917 899 c 128,-1,52
 951 812 951 812 951 717 c 256,53,54
 951 622 951 622 917 535 c 128,-1,55
 883 448 883 448 822 400 c 128,-1,56
 761 352 761 352 694 352 c 256,57,58
 627 352 627 352 566 401 c 128,-1,59
 505 450 505 450 471 537 c 0,60,61
 459 572 459 572 450 607 c 1,62,63
 445 586 445 586 438 566 c 0,64,65
 411 493 411 493 364 453 c 128,-1,66
 317 413 317 413 265 413 c 256,67,68
 213 413 213 413 165 454 c 128,-1,69
 117 495 117 495 91.5 567.5 c 128,-1,70
 66 640 66 640 66 717 c 0,71,72
 66 793 66 793 91.5 866 c 128,-1,73
 117 939 117 939 165 980 c 128,-1,74
 213 1021 213 1021 265 1021 c 256,75,76
 317 1021 317 1021 364 981 c 128,-1,77
 411 941 411 941 438 869 c 0,78,79
 445 848 445 848 450 827 c 1,44,45
EndSplineSet
EndChar

StartChar: integral
Encoding: 8747 8747 215
Width: 665
GlyphClass: 2
Flags: W
LayerCount: 2
Fore
SplineSet
-12 -281 m 0,0,1
 -72 -281 -72 -281 -72 -252 c 2,2,-1
 -72 -93 l 1,3,-1
 -36 -93 l 1,4,5
 -35 -136 -35 -136 -1.5 -157.5 c 128,-1,6
 32 -179 32 -179 62 -179 c 2,7,-1
 63 -179 l 2,8,9
 145 -179 145 -179 178 -17 c 0,10,11
 210 145 210 145 218 299 c 1,12,-1
 288 1033 l 1,13,-1
 296 1095 l 2,14,15
 323 1333 323 1333 431 1524.5 c 128,-1,16
 539 1716 539 1716 665 1716 c 0,17,18
 725 1716 725 1716 725 1687 c 2,19,-1
 725 1528 l 1,20,-1
 689 1528 l 1,21,22
 688 1571 688 1571 654 1592.5 c 128,-1,23
 620 1614 620 1614 591 1614 c 0,24,25
 520 1614 520 1614 475 1458.5 c 128,-1,26
 430 1303 430 1303 426 1095 c 1,27,-1
 353 328 l 2,28,29
 333 97 333 97 222.5 -92 c 128,-1,30
 112 -281 112 -281 -12 -281 c 0,0,1
EndSplineSet
EndChar

StartChar: approxequal
Encoding: 8776 8776 216
Width: 1014
GlyphClass: 2
Flags: W
LayerCount: 2
Fore
SplineSet
923 1053 m 1,0,-1
 923 897 l 1,1,2
 860 825 860 825 801 799.5 c 128,-1,3
 742 774 742 774 685 774 c 0,4,5
 625 774 625 774 507.5 822.5 c 128,-1,6
 390 871 390 871 331 871 c 0,7,8
 280 871 280 871 223.5 843 c 128,-1,9
 167 815 167 815 94 731 c 1,10,-1
 94 887 l 1,11,12
 158 960 158 960 217 986 c 128,-1,13
 276 1012 276 1012 331 1012 c 0,14,15
 395 1012 395 1012 512.5 962.5 c 128,-1,16
 630 913 630 913 685 913 c 0,17,18
 737 913 737 913 793.5 941 c 128,-1,19
 850 969 850 969 923 1053 c 1,0,-1
923 705 m 1,20,-1
 923 549 l 1,21,22
 860 477 860 477 801 451.5 c 128,-1,23
 742 426 742 426 685 426 c 0,24,25
 625 426 625 426 507.5 474.5 c 128,-1,26
 390 523 390 523 331 523 c 0,27,28
 280 523 280 523 223.5 495 c 128,-1,29
 167 467 167 467 94 383 c 1,30,-1
 94 539 l 1,31,32
 158 612 158 612 217 638 c 128,-1,33
 276 664 276 664 331 664 c 0,34,35
 395 664 395 664 512.5 614.5 c 128,-1,36
 630 565 630 565 685 565 c 0,37,38
 737 565 737 565 793.5 593 c 128,-1,39
 850 621 850 621 923 705 c 1,20,-1
EndSplineSet
EndChar

StartChar: lessequal
Encoding: 8804 8804 217
Width: 1014
GlyphClass: 2
Flags: W
LayerCount: 2
Fore
SplineSet
927 1074 m 1,0,-1
 302 715 l 1,1,-1
 927 360 l 1,2,-1
 927 193 l 1,3,-1
 87 674 l 1,4,-1
 87 757 l 1,5,-1
 927 1241 l 1,6,-1
 927 1074 l 1,0,-1
87 1 m 1,7,-1
 87 141 l 1,8,-1
 926 141 l 1,9,-1
 927 140 l 1,10,-1
 927 1 l 1,11,-1
 87 1 l 1,7,-1
EndSplineSet
EndChar

StartChar: greaterequal
Encoding: 8805 8805 218
Width: 1014
GlyphClass: 2
Flags: W
LayerCount: 2
Fore
SplineSet
87 1241 m 1,0,-1
 927 757 l 1,1,-1
 927 674 l 1,2,-1
 87 193 l 1,3,-1
 87 360 l 1,4,-1
 712 715 l 1,5,-1
 87 1074 l 1,6,-1
 87 1241 l 1,0,-1
87 2 m 1,7,-1
 87 142 l 1,8,-1
 926 142 l 1,9,-1
 927 141 l 1,10,-1
 927 2 l 1,11,-1
 87 2 l 1,7,-1
EndSplineSet
EndChar

StartChar: uni3001
Encoding: 12289 12289 220
Width: 1700
GlyphClass: 2
Flags: W
LayerCount: 2
Fore
SplineSet
1181 1454 m 0,0,1
 1181 1477 1181 1477 1187 1477 c 0,2,3
 1196 1476 1196 1476 1256 1408 c 0,4,5
 1287 1373 1287 1373 1326 1339.5 c 128,-1,6
 1365 1306 1365 1306 1389 1294 c 0,7,8
 1453 1262 1453 1262 1492.5 1215 c 128,-1,9
 1532 1168 1532 1168 1529 1129 c 0,10,11
 1525 1079 1525 1079 1496.5 1069.5 c 128,-1,12
 1468 1060 1468 1060 1409 1088 c 2,13,-1
 1342 1122 l 1,14,-1
 1254 1075 l 2,15,16
 1156 1022 1156 1022 1155 1042 c 0,17,18
 1155 1062 1155 1062 1245 1168 c 2,19,-1
 1301 1236 l 1,20,-1
 1241 1326 l 2,21,22
 1216 1363 1216 1363 1198.5 1400.5 c 128,-1,23
 1181 1438 1181 1438 1181 1454 c 0,0,1
EndSplineSet
EndChar

StartChar: uni3002
Encoding: 12290 12290 221
Width: 1700
GlyphClass: 2
Flags: W
LayerCount: 2
Fore
SplineSet
1267 1471 m 0,0,1
 1316 1494 1316 1494 1375 1490.5 c 128,-1,2
 1434 1487 1434 1487 1477 1460 c 0,3,4
 1516 1435 1516 1435 1536 1377 c 128,-1,5
 1556 1319 1556 1319 1550.5 1255 c 128,-1,6
 1545 1191 1545 1191 1514 1150 c 0,7,8
 1479 1103 1479 1103 1439.5 1088 c 128,-1,9
 1400 1073 1400 1073 1327 1080 c 0,10,11
 1267 1086 1267 1086 1221 1110 c 128,-1,12
 1175 1134 1175 1134 1150 1168 c 128,-1,13
 1125 1202 1125 1202 1118.5 1244.5 c 128,-1,14
 1112 1287 1112 1287 1125.5 1327.5 c 128,-1,15
 1139 1368 1139 1368 1175.5 1406.5 c 128,-1,16
 1212 1445 1212 1445 1267 1471 c 0,0,1
1407 1403 m 0,17,18
 1358 1426 1358 1426 1315.5 1422.5 c 128,-1,19
 1273 1419 1273 1419 1245 1388 c 128,-1,20
 1217 1357 1217 1357 1217 1311 c 0,21,22
 1217 1292 1217 1292 1218.5 1283 c 128,-1,23
 1220 1274 1220 1274 1231.5 1266.5 c 128,-1,24
 1243 1259 1243 1259 1259 1255.5 c 128,-1,25
 1275 1252 1275 1252 1312 1247 c 0,26,27
 1324 1245 1324 1245 1339 1229.5 c 128,-1,28
 1354 1214 1354 1214 1364 1193 c 2,29,-1
 1387 1144 l 1,30,-1
 1433 1184 l 2,31,32
 1460 1207 1460 1207 1470 1226 c 128,-1,33
 1480 1245 1480 1245 1480 1274 c 0,34,35
 1480 1324 1480 1324 1463.5 1353 c 128,-1,36
 1447 1382 1447 1382 1407 1403 c 0,17,18
EndSplineSet
EndChar

StartChar: uni3005
Encoding: 12293 12293 222
Width: 1700
GlyphClass: 2
Flags: W
LayerCount: 2
Fore
SplineSet
532 1242 m 0,0,1
 557 1258 557 1258 601 1254 c 128,-1,2
 645 1250 645 1250 690 1227 c 0,3,4
 767 1187 767 1187 797 1119 c 0,5,6
 823 1057 823 1057 789 1025 c 0,7,8
 770 1007 770 1007 733 1007 c 0,9,10
 695 1007 695 1007 676.5 982.5 c 128,-1,11
 658 958 658 958 651 900 c 0,12,13
 639 791 639 791 720.5 721 c 128,-1,14
 802 651 802 651 969 626 c 0,15,16
 1053 614 1053 614 1107 589 c 128,-1,17
 1161 564 1161 564 1173 533 c 0,18,19
 1196 470 1196 470 1156.5 437.5 c 128,-1,20
 1117 405 1117 405 1011 399 c 0,21,22
 929 395 929 395 843 351 c 0,23,24
 775 317 775 317 694.5 240 c 128,-1,25
 614 163 614 163 583 103 c 0,26,27
 560 58 560 58 543 56 c 0,28,29
 528 54 528 54 538 88 c 0,30,31
 548 121 548 121 556 151 c 0,32,33
 568 193 568 193 623 275.5 c 128,-1,34
 678 358 678 358 746 436 c 0,35,36
 786 482 786 482 791 501.5 c 128,-1,37
 796 521 796 521 769 530 c 0,38,39
 732 541 732 541 670 611 c 128,-1,40
 608 681 608 681 574 748 c 0,41,42
 542 812 542 812 535.5 847.5 c 128,-1,43
 529 883 529 883 532 992 c 0,44,45
 534 1146 534 1146 522.5 1187.5 c 128,-1,46
 511 1229 511 1229 532 1242 c 0,0,1
EndSplineSet
EndChar

StartChar: uni3041
Encoding: 12353 12353 223
Width: 1700
GlyphClass: 2
Flags: W
LayerCount: 2
Fore
SplineSet
1141 1194 m 0,0,1
 1141 1246 1141 1246 1211 1215 c 0,2,3
 1246 1199 1246 1199 1303 1162 c 0,4,5
 1328 1146 1328 1146 1340.5 1137.5 c 128,-1,6
 1353 1129 1353 1129 1366.5 1119.5 c 128,-1,7
 1380 1110 1380 1110 1385 1104 c 128,-1,8
 1390 1098 1390 1098 1395.5 1091.5 c 128,-1,9
 1401 1085 1401 1085 1401.5 1077 c 128,-1,10
 1402 1069 1402 1069 1402 1062 c 128,-1,11
 1402 1055 1402 1055 1401 1042 c 0,12,13
 1399 1007 1399 1007 1390 995.5 c 128,-1,14
 1381 984 1381 984 1351 976 c 0,15,16
 1325 969 1325 969 1313 957.5 c 128,-1,17
 1301 946 1301 946 1295 920 c 0,18,19
 1285 874 1285 874 1299 859.5 c 128,-1,20
 1313 845 1313 845 1362 853 c 0,21,22
 1397 858 1397 858 1419.5 853 c 128,-1,23
 1442 848 1442 848 1477 826 c 0,24,25
 1514 803 1514 803 1526 784 c 128,-1,26
 1538 765 1538 765 1545 721 c 0,27,28
 1562 600 1562 600 1466 433 c 0,29,30
 1425 362 1425 362 1321.5 260.5 c 128,-1,31
 1218 159 1218 159 1157 129 c 0,32,33
 1090 97 1090 97 1052 78 c 128,-1,34
 1014 59 1014 59 949 49 c 0,35,36
 896 40 896 40 895 47 c 0,37,38
 895 51 895 51 905 62 c 0,39,40
 924 87 924 87 936 87 c 0,41,42
 958 87 958 87 1037.5 144.5 c 128,-1,43
 1117 202 1117 202 1182 264 c 0,44,45
 1190 272 1190 272 1205 286 c 0,46,47
 1262 340 1262 340 1252.5 358 c 128,-1,48
 1243 376 1243 376 1128 429 c 0,49,50
 1099 443 1099 443 1082 450 c 0,51,52
 1023 478 1023 478 995 512 c 128,-1,53
 967 546 967 546 975 581 c 0,54,55
 988 636 988 636 1035 694 c 128,-1,56
 1082 752 1082 752 1140 781 c 2,57,-1
 1185 805 l 1,58,-1
 1184 954 l 2,59,60
 1183 1103 1183 1103 1162 1131.5 c 128,-1,61
 1141 1160 1141 1160 1141 1194 c 0,0,1
1397 754 m 0,62,63
 1368 775 1368 775 1329 773.5 c 128,-1,64
 1290 772 1290 772 1281 749 c 0,65,66
 1270 722 1270 722 1274 550.5 c 128,-1,67
 1278 379 1278 379 1289 379 c 0,68,69
 1294 379 1294 379 1313 407 c 128,-1,70
 1332 435 1332 435 1354 474 c 0,71,72
 1403 562 1403 562 1416 646.5 c 128,-1,73
 1429 731 1429 731 1397 754 c 0,62,63
1180 593 m 0,74,75
 1184 602 1184 602 1182.5 622 c 128,-1,76
 1181 642 1181 642 1175 661 c 2,77,-1
 1161 707 l 1,78,-1
 1128 660 l 2,79,80
 1102 623 1102 623 1104.5 606 c 128,-1,81
 1107 589 1107 589 1141 580 c 0,82,83
 1172 572 1172 572 1180 593 c 0,74,75
EndSplineSet
EndChar

StartChar: uni3042
Encoding: 12354 12354 224
Width: 1700
GlyphClass: 2
Flags: W
LayerCount: 2
Fore
SplineSet
733 1685 m 0,0,1
 751 1703 751 1703 824.5 1675.5 c 128,-1,2
 898 1648 898 1648 1001 1584 c 0,3,4
 1056 1550 1056 1550 1072.5 1531.5 c 128,-1,5
 1089 1513 1089 1513 1095 1478 c 0,6,7
 1101 1441 1101 1441 1094 1425 c 128,-1,8
 1087 1409 1087 1409 1052 1380 c 0,9,10
 1032 1362 1032 1362 1012 1333.5 c 128,-1,11
 992 1305 992 1305 985.5 1284.5 c 128,-1,12
 979 1264 979 1264 973.5 1198 c 128,-1,13
 968 1132 968 1132 964.5 1051.5 c 128,-1,14
 961 971 961 971 959.5 894 c 128,-1,15
 958 817 958 817 960 765.5 c 128,-1,16
 962 714 962 714 968 714 c 256,17,18
 974 714 974 714 999 737 c 128,-1,19
 1024 760 1024 760 1051 792 c 0,20,21
 1091 839 1091 839 1104.5 866 c 128,-1,22
 1118 893 1118 893 1118 928 c 0,23,24
 1118 1000 1118 1000 1136.5 1011.5 c 128,-1,25
 1155 1023 1155 1023 1221 992 c 0,26,27
 1297 957 1297 957 1339 895 c 0,28,29
 1376 842 1376 842 1380 815 c 128,-1,30
 1384 788 1384 788 1361 745 c 0,31,32
 1343 711 1343 711 1318.5 697.5 c 128,-1,33
 1294 684 1294 684 1237 677 c 0,34,35
 1215 674 1215 674 1168 656 c 128,-1,36
 1121 638 1121 638 1075 615 c 2,37,-1
 965 560 l 1,38,-1
 960 331 l 2,39,40
 956 101 956 101 969 21 c 0,41,42
 996 -151 996 -151 934 -149 c 0,43,44
 909 -148 909 -148 870 -120 c 0,45,46
 836 -96 836 -96 820 -36.5 c 128,-1,47
 804 23 804 23 825 48 c 0,48,49
 837 63 837 63 852 256.5 c 128,-1,50
 867 450 867 450 858 483 c 0,51,52
 854 500 854 500 845.5 500.5 c 128,-1,53
 837 501 837 501 807 488 c 0,54,55
 691 439 691 439 472 397 c 0,56,57
 311 367 311 367 320 386 c 0,58,59
 323 392 323 392 344 402 c 0,60,61
 379 418 379 418 497 466 c 0,62,63
 687 544 687 544 764.5 587 c 128,-1,64
 842 630 842 630 855 666 c 0,65,66
 869 701 869 701 868 1027 c 128,-1,67
 867 1353 867 1353 854 1406 c 0,68,69
 839 1463 839 1463 810 1470 c 0,70,71
 798 1473 798 1473 790 1482.5 c 128,-1,72
 782 1492 782 1492 782 1502 c 0,73,74
 782 1526 782 1526 752 1574 c 0,75,76
 730 1610 730 1610 725 1641 c 128,-1,77
 720 1672 720 1672 733 1685 c 0,0,1
EndSplineSet
EndChar

StartChar: uni3043
Encoding: 12355 12355 225
Width: 1700
GlyphClass: 2
Flags: W
LayerCount: 2
Fore
SplineSet
936 1221 m 0,0,1
 936 1252 936 1252 1001 1242 c 0,2,3
 1078 1230 1078 1230 1153 1176 c 0,4,5
 1197 1144 1197 1144 1202 1095.5 c 128,-1,6
 1207 1047 1207 1047 1169 1020 c 0,7,8
 1138 998 1138 998 1126 935 c 0,9,10
 1113 869 1113 869 1113 779.5 c 128,-1,11
 1113 690 1113 690 1127 682 c 0,12,13
 1139 675 1139 675 1213.5 746 c 128,-1,14
 1288 817 1288 817 1288 836 c 0,15,16
 1288 842 1288 842 1298 853 c 128,-1,17
 1308 864 1308 864 1323 873 c 0,18,19
 1346 888 1346 888 1359 888.5 c 128,-1,20
 1372 889 1372 889 1402 873 c 0,21,22
 1452 848 1452 848 1472 821.5 c 128,-1,23
 1492 795 1492 795 1492 755 c 0,24,25
 1492 712 1492 712 1471.5 692.5 c 128,-1,26
 1451 673 1451 673 1400 668 c 0,27,28
 1339 663 1339 663 1284.5 621.5 c 128,-1,29
 1230 580 1230 580 1203 518 c 0,30,31
 1105 292 1105 292 1232 185 c 0,32,33
 1261 161 1261 161 1287 154.5 c 128,-1,34
 1313 148 1313 148 1384 148 c 0,35,36
 1429 148 1429 148 1460.5 144.5 c 128,-1,37
 1492 141 1492 141 1492 136 c 0,38,39
 1492 123 1492 123 1462 96 c 0,40,41
 1426 64 1426 64 1329.5 67 c 128,-1,42
 1233 70 1233 70 1185 104 c 0,43,44
 1132 142 1132 142 1100 219 c 128,-1,45
 1068 296 1068 296 1068 387 c 0,46,47
 1068 486 1068 486 1044 533 c 0,48,49
 1025 571 1025 571 1022 625 c 128,-1,50
 1019 679 1019 679 1023 900 c 2,51,-1
 1027 1102 l 1,52,-1
 982 1149 l 2,53,54
 963 1169 963 1169 949.5 1189.5 c 128,-1,55
 936 1210 936 1210 936 1221 c 0,0,1
EndSplineSet
EndChar

StartChar: uni3044
Encoding: 12356 12356 226
Width: 1700
GlyphClass: 2
Flags: W
LayerCount: 2
Fore
SplineSet
793 1201 m 0,0,1
 805 1229 805 1229 817 1241 c 128,-1,2
 829 1253 829 1253 850.5 1253.5 c 128,-1,3
 872 1254 872 1254 901 1242 c 128,-1,4
 930 1230 930 1230 980 1203 c 0,5,6
 1063 1159 1063 1159 1087 1127 c 128,-1,7
 1111 1095 1111 1095 1101 1043 c 0,8,9
 1091 990 1091 990 1065 974.5 c 128,-1,10
 1039 959 1039 959 972 967 c 0,11,12
 899 976 899 976 861 957 c 128,-1,13
 823 938 823 938 787 875 c 0,14,15
 762 832 762 832 755.5 798 c 128,-1,16
 749 764 749 764 750 677 c 0,17,18
 750 592 750 592 757.5 555.5 c 128,-1,19
 765 519 765 519 791 468 c 0,20,21
 853 348 853 348 975.5 259 c 128,-1,22
 1098 170 1098 170 1258 129 c 0,23,24
 1301 118 1301 118 1333 106 c 128,-1,25
 1365 94 1365 94 1367 88 c 0,26,27
 1374 68 1374 68 1307 65 c 0,28,29
 1205 60 1205 60 1096 90 c 0,30,31
 1074 95 1074 95 1056 102 c 0,32,33
 1007 121 1007 121 925.5 179 c 128,-1,34
 844 237 844 237 797 285 c 0,35,36
 774 309 774 309 740.5 361.5 c 128,-1,37
 707 414 707 414 683 463 c 0,38,39
 640 552 640 552 632.5 589 c 128,-1,40
 625 626 625 626 625 743 c 0,41,42
 625 961 625 961 666 991 c 0,43,44
 680 1001 680 1001 727.5 1079.5 c 128,-1,45
 775 1158 775 1158 793 1201 c 0,0,1
332 1622 m 0,46,47
 332 1640 332 1640 416 1630 c 0,48,49
 474 1623 474 1623 541 1593 c 128,-1,50
 608 1563 608 1563 653 1525 c 128,-1,51
 698 1487 698 1487 698 1459 c 0,52,53
 698 1429 698 1429 687.5 1408 c 128,-1,54
 677 1387 677 1387 661 1387 c 0,55,56
 644 1387 644 1387 632.5 1377 c 128,-1,57
 621 1367 621 1367 611.5 1333 c 128,-1,58
 602 1299 602 1299 596.5 1249 c 128,-1,59
 591 1199 591 1199 586 1103 c 128,-1,60
 581 1007 581 1007 578 890 c 128,-1,61
 575 773 575 773 572 590 c 2,62,-1
 563 78 l 1,63,-1
 602 -8 l 2,64,65
 626 -64 626 -64 629.5 -85.5 c 128,-1,66
 633 -107 633 -107 621 -132 c 0,67,68
 604 -169 604 -169 580.5 -173 c 128,-1,69
 557 -177 557 -177 514 -150 c 0,70,71
 410 -86 410 -86 456 69 c 0,72,73
 472 123 472 123 475 237 c 128,-1,74
 478 351 478 351 475 751 c 0,75,76
 472 1093 472 1093 466.5 1233.5 c 128,-1,77
 461 1374 461 1374 450 1405 c 0,78,79
 442 1428 442 1428 433 1444 c 128,-1,80
 424 1460 424 1460 419 1460 c 0,81,82
 408 1460 408 1460 370 1531.5 c 128,-1,83
 332 1603 332 1603 332 1622 c 0,46,47
EndSplineSet
EndChar

StartChar: uni3045
Encoding: 12357 12357 227
Width: 1700
GlyphClass: 2
Flags: W
LayerCount: 2
Fore
SplineSet
1001 1202 m 0,0,1
 1001 1259 1001 1259 1111 1200 c 0,2,3
 1153 1178 1153 1178 1201 1131 c 128,-1,4
 1249 1084 1249 1084 1250 1066 c 0,5,6
 1250 1054 1250 1054 1217 993 c 0,7,8
 1196 953 1196 953 1190 914 c 128,-1,9
 1184 875 1184 875 1185 770 c 0,10,11
 1186 610 1186 610 1197.5 528 c 128,-1,12
 1209 446 1209 446 1192 414 c 256,13,14
 1175 382 1175 382 1196 383 c 0,15,16
 1224 384 1224 384 1358 451 c 0,17,18
 1511 527 1511 527 1513 501 c 0,19,20
 1514 475 1514 475 1376 380 c 0,21,22
 1348 360 1348 360 1314 338 c 0,23,24
 1180 251 1180 251 1171 251 c 0,25,26
 1157 251 1157 251 1057 179 c 128,-1,27
 957 107 957 107 936 81 c 0,28,29
 917 58 917 58 904.5 54 c 128,-1,30
 892 50 892 50 868 59 c 0,31,32
 836 72 836 72 802.5 114 c 128,-1,33
 769 156 769 156 743 216 c 0,34,35
 720 273 720 273 738.5 286.5 c 128,-1,36
 757 300 757 300 826 275 c 2,37,-1
 897 250 l 1,38,-1
 1012 297 l 2,39,40
 1131 346 1131 346 1142 361 c 0,41,42
 1149 371 1149 371 1130 386 c 0,43,44
 1101 408 1101 408 1044 527.5 c 128,-1,45
 987 647 987 647 987 686 c 0,46,47
 987 730 987 730 998 731 c 128,-1,48
 1009 732 1009 732 1050 694 c 2,49,-1
 1092 653 l 1,50,-1
 1086 851 l 2,51,52
 1082 989 1082 989 1075 1028 c 128,-1,53
 1068 1067 1068 1067 1041 1111 c 0,54,55
 1025 1136 1025 1136 1013 1163 c 128,-1,56
 1001 1190 1001 1190 1001 1202 c 0,0,1
EndSplineSet
EndChar

StartChar: uni3046
Encoding: 12358 12358 228
Width: 1700
GlyphClass: 2
Flags: W
LayerCount: 2
Fore
SplineSet
617 1530 m 0,0,1
 620 1540 620 1540 623.5 1543.5 c 128,-1,2
 627 1547 627 1547 638 1546.5 c 128,-1,3
 649 1546 649 1546 663.5 1541.5 c 128,-1,4
 678 1537 678 1537 711 1525 c 0,5,6
 905 1457 905 1457 939 1346 c 0,7,8
 950 1310 950 1310 924 1275.5 c 128,-1,9
 898 1241 898 1241 853 1233 c 0,10,11
 832 1229 832 1229 814 1219 c 128,-1,12
 796 1209 796 1209 792 1199 c 0,13,14
 783 1175 783 1175 774 906 c 2,15,-1
 766 636 l 1,16,-1
 816 645 l 2,17,18
 866 653 866 653 1085.5 712 c 128,-1,19
 1305 771 1305 771 1333 772 c 0,20,21
 1361 772 1361 772 1344 753 c 0,22,23
 1324 733 1324 733 1271 711 c 0,24,25
 1197 679 1197 679 1049 623.5 c 128,-1,26
 901 568 901 568 873 560 c 0,27,28
 837 550 837 550 804 530 c 0,29,30
 780 515 780 515 775.5 485 c 128,-1,31
 771 455 771 455 771 315 c 0,32,33
 771 222 771 222 777 147 c 128,-1,34
 783 72 783 72 794 26 c 0,35,36
 818 -69 818 -69 825 -137 c 0,37,38
 830 -181 830 -181 825 -197 c 128,-1,39
 820 -213 820 -213 799 -228 c 0,40,41
 769 -248 769 -248 742 -237.5 c 128,-1,42
 715 -227 715 -227 687 -183 c 0,43,44
 671 -158 671 -158 666.5 -118 c 128,-1,45
 662 -78 662 -78 665 33 c 0,46,47
 668 209 668 209 677 337 c 128,-1,48
 686 465 686 465 671 465 c 0,49,50
 664 465 664 465 644 449 c 128,-1,51
 624 433 624 433 603 411 c 0,52,53
 569 377 569 377 549 367.5 c 128,-1,54
 529 358 529 358 491 359 c 0,55,56
 439 361 439 361 409.5 391.5 c 128,-1,57
 380 422 380 422 360 493 c 0,58,59
 348 536 348 536 350 555.5 c 128,-1,60
 352 575 352 575 370 610 c 0,61,62
 396 657 396 657 432 663.5 c 128,-1,63
 468 670 468 670 485 631 c 0,64,65
 498 602 498 602 522.5 595 c 128,-1,66
 547 588 547 588 610 596 c 2,67,-1
 676 604 l 1,68,-1
 680 824 l 2,69,70
 684 1008 684 1008 670.5 1182 c 128,-1,71
 657 1356 657 1356 632 1438 c 0,72,73
 610 1511 610 1511 617 1530 c 0,0,1
EndSplineSet
EndChar

StartChar: uni3047
Encoding: 12359 12359 229
Width: 1700
GlyphClass: 2
Flags: W
LayerCount: 2
Fore
SplineSet
1052 1186 m 0,0,1
 1056 1228 1056 1228 1177 1167 c 0,2,3
 1263 1124 1263 1124 1276 1090 c 128,-1,4
 1289 1056 1289 1056 1240 1008 c 0,5,6
 1228 996 1228 996 1221.5 978 c 128,-1,7
 1215 960 1215 960 1216 944 c 0,8,9
 1219 920 1219 920 1236 907.5 c 128,-1,10
 1253 895 1253 895 1309 876 c 0,11,12
 1387 849 1387 849 1446 813 c 128,-1,13
 1505 777 1505 777 1521 748 c 0,14,15
 1542 708 1542 708 1533.5 664.5 c 128,-1,16
 1525 621 1525 621 1489 588 c 0,17,18
 1442 545 1442 545 1430 545 c 0,19,20
 1413 545 1413 545 1228 454.5 c 128,-1,21
 1043 364 1043 364 1015 341 c 0,22,23
 962 299 962 299 902.5 214 c 128,-1,24
 843 129 843 129 823 65 c 2,25,-1
 797 -18 l 1,26,-1
 792 50 l 2,27,28
 785 149 785 149 852.5 255.5 c 128,-1,29
 920 362 920 362 1039 443 c 0,30,31
 1112 493 1112 493 1128 511.5 c 128,-1,32
 1144 530 1144 530 1129 549 c 0,33,34
 1108 576 1108 576 1105.5 617.5 c 128,-1,35
 1103 659 1103 659 1119 698 c 0,36,37
 1145 759 1145 759 1134.5 889.5 c 128,-1,38
 1124 1020 1124 1020 1089 1072 c 0,39,40
 1065 1109 1065 1109 1057 1133 c 128,-1,41
 1049 1157 1049 1157 1052 1186 c 0,0,1
1291 829 m 0,42,43
 1241 852 1241 852 1237 852 c 0,44,45
 1222 852 1222 852 1216.5 814 c 128,-1,46
 1211 776 1211 776 1216 724.5 c 128,-1,47
 1221 673 1221 673 1235 639 c 0,48,49
 1251 601 1251 601 1259 596.5 c 128,-1,50
 1267 592 1267 592 1290 607 c 0,51,52
 1304 616 1304 616 1323.5 636 c 128,-1,53
 1343 656 1343 656 1356 676 c 0,54,55
 1380 710 1380 710 1381 722.5 c 128,-1,56
 1382 735 1382 735 1365 764 c 0,57,58
 1355 781 1355 781 1333.5 800 c 128,-1,59
 1312 819 1312 819 1291 829 c 0,42,43
EndSplineSet
EndChar

StartChar: uni3048
Encoding: 12360 12360 230
Width: 1700
GlyphClass: 2
Flags: W
LayerCount: 2
Fore
SplineSet
711 1573 m 128,-1,1
 711 1592 711 1592 766 1592 c 0,2,3
 877 1592 877 1592 954.5 1536.5 c 128,-1,4
 1032 1481 1032 1481 1032 1402 c 0,5,6
 1032 1344 1032 1344 1003 1324 c 0,7,8
 982 1309 982 1309 963.5 1249 c 128,-1,9
 945 1189 945 1189 945 1131 c 0,10,11
 945 1105 945 1105 955 1090.5 c 128,-1,12
 965 1076 965 1076 994 1060 c 0,13,14
 1056 1026 1056 1026 1144.5 937.5 c 128,-1,15
 1233 849 1233 849 1274 780 c 0,16,17
 1306 725 1306 725 1315.5 693 c 128,-1,18
 1325 661 1325 661 1325 604 c 128,-1,19
 1325 547 1325 547 1317 519.5 c 128,-1,20
 1309 492 1309 492 1282 454 c 0,21,22
 1239 395 1239 395 1221.5 384 c 128,-1,23
 1204 373 1204 373 1073.5 361.5 c 128,-1,24
 943 350 943 350 930 342 c 0,25,26
 913 331 913 331 916.5 149 c 128,-1,27
 920 -33 920 -33 938 -83 c 0,28,29
 966 -163 966 -163 953.5 -189 c 128,-1,30
 941 -215 941 -215 885 -192 c 0,31,32
 854 -180 854 -180 826 -139 c 128,-1,33
 798 -98 798 -98 798 -66 c 0,34,35
 798 -45 798 -45 821 24.5 c 128,-1,36
 844 94 844 94 839 210 c 0,37,38
 836 297 836 297 830.5 311.5 c 128,-1,39
 825 326 825 326 795 324 c 0,40,41
 743 320 743 320 634.5 261.5 c 128,-1,42
 526 203 526 203 493 160 c 0,43,44
 418 62 418 62 418 -12 c 0,45,46
 418 -46 418 -46 403 -43 c 0,47,48
 387 -41 387 -41 379 -3 c 0,49,50
 377 5 377 5 376 13 c 0,51,52
 371 63 371 63 390 119 c 0,53,54
 411 181 411 181 510.5 267.5 c 128,-1,55
 610 354 610 354 724 410 c 2,56,-1
 847 470 l 1,57,-1
 839 760 l 2,58,59
 831 1050 831 1050 813 1071.5 c 128,-1,60
 795 1093 795 1093 727 1125 c 0,61,62
 656 1158 656 1158 625 1189.5 c 128,-1,63
 594 1221 594 1221 594 1258 c 0,64,65
 594 1300 594 1300 627.5 1350 c 128,-1,66
 661 1400 661 1400 706 1424 c 0,67,68
 746 1445 746 1445 752 1468 c 128,-1,69
 758 1491 758 1491 733 1524 c 0,70,0
 711 1554 711 1554 711 1573 c 128,-1,1
804 1331.5 m 128,-1,72
 797 1343 797 1343 779 1343 c 0,73,74
 760 1343 760 1343 713.5 1313.5 c 128,-1,75
 667 1284 667 1284 667 1271 c 0,76,77
 667 1257 667 1257 715.5 1221 c 128,-1,78
 764 1185 764 1185 797 1175 c 0,79,80
 823 1167 823 1167 826 1176 c 128,-1,81
 829 1185 829 1185 822 1242 c 0,82,71
 811 1320 811 1320 804 1331.5 c 128,-1,72
1051 921 m 0,83,84
 1010 958 1010 958 972 983 c 0,85,86
 943 1001 943 1001 936.5 1000.5 c 128,-1,87
 930 1000 930 1000 923 976 c 0,88,89
 913 944 913 944 911.5 727 c 128,-1,90
 910 510 910 510 920 500 c 0,91,92
 934 486 934 486 1024 519 c 128,-1,93
 1114 552 1114 552 1136 579 c 0,94,95
 1180 636 1180 636 1153.5 743.5 c 128,-1,96
 1127 851 1127 851 1051 921 c 0,83,84
EndSplineSet
EndChar

StartChar: uni3049
Encoding: 12361 12361 231
Width: 1700
GlyphClass: 2
Flags: W
LayerCount: 2
Fore
SplineSet
874 1163 m 0,0,1
 880 1180 880 1180 891 1184.5 c 128,-1,2
 902 1189 902 1189 924.5 1179 c 128,-1,3
 947 1169 947 1169 979 1146 c 128,-1,4
 1011 1123 1011 1123 1063 1079 c 0,5,6
 1092 1056 1092 1056 1112 1033.5 c 128,-1,7
 1132 1011 1132 1011 1132 1003 c 128,-1,8
 1132 995 1132 995 1119 975 c 128,-1,9
 1106 955 1106 955 1088 935 c 0,10,11
 1064 909 1064 909 1054 886.5 c 128,-1,12
 1044 864 1044 864 1044 833 c 0,13,14
 1044 797 1044 797 1055.5 779 c 128,-1,15
 1067 761 1067 761 1110 730 c 0,16,17
 1153 698 1153 698 1175 661.5 c 128,-1,18
 1197 625 1197 625 1209.5 564 c 128,-1,19
 1222 503 1222 503 1232 385 c 0,20,21
 1242 259 1242 259 1250 225.5 c 128,-1,22
 1258 192 1258 192 1287 162 c 0,23,24
 1313 135 1313 135 1333 127 c 128,-1,25
 1353 119 1353 119 1395 119 c 0,26,27
 1422 120 1422 120 1452.5 126 c 128,-1,28
 1483 132 1483 132 1498 141 c 0,29,30
 1557 175 1557 175 1568.5 155 c 128,-1,31
 1580 135 1580 135 1531 87 c 0,32,33
 1526 82 1526 82 1520 76 c 0,34,35
 1446 12 1446 12 1365.5 14.5 c 128,-1,36
 1285 17 1285 17 1216 86 c 0,37,38
 1179 123 1179 123 1162.5 159.5 c 128,-1,39
 1146 196 1146 196 1139.5 254.5 c 128,-1,40
 1133 313 1133 313 1133 427 c 0,41,42
 1132 539 1132 539 1127 574.5 c 128,-1,43
 1122 610 1122 610 1102 636 c 0,44,45
 1072 674 1072 674 1057.5 674 c 128,-1,46
 1043 674 1043 674 1046 476 c 0,47,48
 1049 354 1049 354 1045 311.5 c 128,-1,49
 1041 269 1041 269 1027 255 c 0,50,51
 981 211 981 211 914 326 c 0,52,53
 880 385 880 385 826 407 c 0,54,55
 762 433 762 433 742 459 c 128,-1,56
 722 485 722 485 722 544 c 0,57,58
 722 588 722 588 731 611.5 c 128,-1,59
 740 635 740 635 769 669 c 0,60,61
 788 691 788 691 821 715 c 128,-1,62
 854 739 854 739 880 750 c 2,63,-1
 945 777 l 1,64,-1
 939 897 l 2,65,66
 936 967 936 967 927 1005.5 c 128,-1,67
 918 1044 918 1044 899 1078 c 0,68,69
 884 1104 884 1104 877 1128 c 128,-1,70
 870 1152 870 1152 874 1163 c 0,0,1
939 611 m 0,71,72
 937 639 937 639 931.5 660 c 128,-1,73
 926 681 926 681 920 683 c 0,74,75
 900 689 900 689 862.5 652 c 128,-1,76
 825 615 825 615 825 590 c 0,77,78
 825 562 825 562 858 542.5 c 128,-1,79
 891 523 891 523 920 534 c 0,80,81
 933 539 933 539 937 555 c 128,-1,82
 941 571 941 571 939 611 c 0,71,72
EndSplineSet
EndChar

StartChar: uni304A
Encoding: 12362 12362 232
Width: 1700
GlyphClass: 2
Flags: W
LayerCount: 2
Fore
SplineSet
533 1515 m 0,0,1
 535 1522 535 1522 543 1527.5 c 128,-1,2
 551 1533 551 1533 558 1533 c 0,3,4
 581 1533 581 1533 634 1496 c 128,-1,5
 687 1459 687 1459 731 1414 c 128,-1,6
 775 1369 775 1369 775 1349 c 0,7,8
 775 1327 775 1327 753 1285.5 c 128,-1,9
 731 1244 731 1244 710 1228 c 0,10,11
 687 1208 687 1208 688 1140 c 0,12,13
 688 1093 688 1093 697 1077 c 128,-1,14
 706 1061 706 1061 747 1036 c 256,15,16
 788 1011 788 1011 836 947 c 128,-1,17
 884 883 884 883 907 822 c 0,18,19
 920 789 920 789 936 603 c 0,20,21
 945 493 945 493 955.5 440.5 c 128,-1,22
 966 388 966 388 987 347 c 0,23,24
 1018 285 1018 285 1047.5 265.5 c 128,-1,25
 1077 246 1077 246 1138 246 c 0,26,27
 1218 246 1218 246 1307.5 300.5 c 128,-1,28
 1397 355 1397 355 1465 445 c 0,29,30
 1475 458 1475 458 1485.5 468 c 128,-1,31
 1496 478 1496 478 1502.5 481.5 c 128,-1,32
 1509 485 1509 485 1512 481 c 0,33,34
 1521 467 1521 467 1511 407.5 c 128,-1,35
 1501 348 1501 348 1490 348 c 0,36,37
 1485 348 1485 348 1472.5 332 c 128,-1,38
 1460 316 1460 316 1448 293 c 0,39,40
 1417 232 1417 232 1361.5 185 c 128,-1,41
 1306 138 1306 138 1239.5 115 c 128,-1,42
 1173 92 1173 92 1105 88 c 128,-1,43
 1037 84 1037 84 974 106 c 128,-1,44
 911 128 911 128 868 174 c 0,45,46
 841 203 841 203 806 239 c 2,47,-1
 770 275 l 1,48,-1
 781 537 l 2,49,50
 788 720 788 720 785 768 c 128,-1,51
 782 816 782 816 762 856 c 0,52,53
 738 904 738 904 713 928.5 c 128,-1,54
 688 953 688 953 675 941 c 0,55,56
 664 929 664 929 663.5 772.5 c 128,-1,57
 663 616 663 616 670.5 429 c 128,-1,58
 678 242 678 242 691.5 78 c 128,-1,59
 705 -86 705 -86 717 -110 c 0,60,61
 732 -136 732 -136 722 -178.5 c 128,-1,62
 712 -221 712 -221 687 -244 c 0,63,64
 669 -260 669 -260 656.5 -260.5 c 128,-1,65
 644 -261 644 -261 610 -246 c 0,66,67
 576 -232 576 -232 566.5 -216.5 c 128,-1,68
 557 -201 557 -201 550 -147 c 0,69,70
 541 -69 541 -69 563 12 c 0,71,72
 576 58 576 58 582.5 169.5 c 128,-1,73
 589 281 589 281 593 535 c 0,74,75
 600 910 600 910 593 952 c 1,76,77
 584 976 584 976 571 977 c 0,78,79
 560 977 560 977 536 968 c 128,-1,80
 512 959 512 959 491 947 c 0,81,82
 444 919 444 919 410 848 c 128,-1,83
 376 777 376 777 394 743 c 0,84,85
 403 726 403 726 400 714 c 128,-1,86
 397 702 397 702 380 685 c 0,87,88
 346 651 346 651 304.5 656 c 128,-1,89
 263 661 263 661 223 702 c 0,90,91
 190 736 190 736 185 753 c 128,-1,92
 180 770 180 770 189 813 c 0,93,94
 198 863 198 863 230 905.5 c 128,-1,95
 262 948 262 948 291 949 c 0,96,97
 300 949 300 949 324 962 c 128,-1,98
 348 975 348 975 372.5 993 c 128,-1,99
 397 1011 397 1011 437 1031 c 128,-1,100
 477 1051 477 1051 508.5 1060 c 128,-1,101
 540 1069 540 1069 565 1081.5 c 128,-1,102
 590 1094 590 1094 594 1102 c 0,103,104
 600 1118 600 1118 586.5 1209 c 128,-1,105
 573 1300 573 1300 549 1402 c 0,106,107
 526 1497 526 1497 533 1515 c 0,0,1
EndSplineSet
EndChar

StartChar: uni304B
Encoding: 12363 12363 233
Width: 1700
GlyphClass: 2
Flags: W
LayerCount: 2
Fore
SplineSet
851 434 m 0,0,1
 894 446 894 446 908.5 433 c 128,-1,2
 923 420 923 420 902 388 c 0,3,4
 894 375 894 375 887.5 348 c 128,-1,5
 881 321 881 321 881 297 c 0,6,7
 880 254 880 254 872.5 245.5 c 128,-1,8
 865 237 865 237 825 234 c 0,9,10
 765 229 765 229 724 271 c 128,-1,11
 683 313 683 313 683 378 c 2,12,-1
 683 439 l 1,13,-1
 745 430 l 2,14,15
 770 427 770 427 801.5 428 c 128,-1,16
 833 429 833 429 851 434 c 0,0,1
1119 1639 m 0,17,18
 1122 1654 1122 1654 1181 1649.5 c 128,-1,19
 1240 1645 1240 1645 1268 1626 c 0,20,21
 1363 1563 1363 1563 1396 1503.5 c 128,-1,22
 1429 1444 1429 1444 1394 1399 c 0,23,24
 1379 1378 1379 1378 1318.5 1353 c 128,-1,25
 1258 1328 1258 1328 1224 1328 c 0,26,27
 1213 1328 1213 1328 1187 1313 c 128,-1,28
 1161 1298 1161 1298 1136 1277 c 0,29,30
 1075 1226 1075 1226 1032.5 1201 c 128,-1,31
 990 1176 990 1176 990 1166.5 c 128,-1,32
 990 1157 990 1157 1081 1098 c 0,33,34
 1172 1038 1172 1038 1242 968.5 c 128,-1,35
 1312 899 1312 899 1312 868 c 0,36,37
 1312 854 1312 854 1303 837 c 128,-1,38
 1294 820 1294 820 1282 809 c 0,39,40
 1260 789 1260 789 1221 791 c 128,-1,41
 1182 793 1182 793 1100 818 c 0,42,43
 1032 839 1032 839 951.5 826 c 128,-1,44
 871 813 871 813 848 777 c 0,45,46
 820 734 820 734 848 696 c 128,-1,47
 876 658 876 658 968 615 c 0,48,49
 1049 577 1049 577 1094.5 554.5 c 128,-1,50
 1140 532 1140 532 1180.5 507.5 c 128,-1,51
 1221 483 1221 483 1238.5 467.5 c 128,-1,52
 1256 452 1256 452 1269 429.5 c 128,-1,53
 1282 407 1282 407 1284.5 387.5 c 128,-1,54
 1287 368 1287 368 1287 335 c 0,55,56
 1286 228 1286 228 1212 127.5 c 128,-1,57
 1138 27 1138 27 1019 -30 c 0,58,59
 969 -54 969 -54 931.5 -61 c 128,-1,60
 894 -68 894 -68 818 -68 c 0,61,62
 750 -67 750 -67 718.5 -62 c 128,-1,63
 687 -57 687 -57 674 -44 c 0,64,65
 658 -29 658 -29 671 -23 c 0,66,67
 685 -17 685 -17 762 -5 c 0,68,69
 884 13 884 13 945.5 51 c 128,-1,70
 1007 89 1007 89 1073 186 c 0,71,72
 1167 323 1167 323 984 435 c 0,73,74
 919 474 919 474 848 537.5 c 128,-1,75
 777 601 777 601 758 636 c 0,76,77
 742 667 742 667 743 724 c 128,-1,78
 744 781 744 781 761 812 c 0,79,80
 779 845 779 845 839 891 c 128,-1,81
 899 937 899 937 956 963 c 0,82,83
 983 974 983 974 1001 986.5 c 128,-1,84
 1019 999 1019 999 1019 1005 c 0,85,86
 1019 1023 1019 1023 974.5 1051.5 c 128,-1,87
 930 1080 930 1080 902 1080 c 0,88,89
 888 1080 888 1080 847.5 1061 c 128,-1,90
 807 1042 807 1042 765 1016 c 0,91,92
 654 947 654 947 529 890 c 128,-1,93
 404 833 404 833 349 825 c 0,94,95
 282 816 282 816 288 834 c 0,96,97
 296 859 296 859 430 922 c 0,98,99
 556 983 556 983 649.5 1048.5 c 128,-1,100
 743 1114 743 1114 871 1233 c 0,101,102
 1011 1361 1011 1361 1062.5 1430.5 c 128,-1,103
 1114 1500 1114 1500 1115 1561 c 0,104,105
 1117 1628 1117 1628 1119 1639 c 0,17,18
EndSplineSet
EndChar

StartChar: uni304C
Encoding: 12364 12364 234
Width: 1700
GlyphClass: 2
Flags: W
LayerCount: 2
Fore
SplineSet
741 420 m 0,0,1
 772 438 772 438 781.5 434.5 c 128,-1,2
 791 431 791 431 782 404 c 0,3,4
 772 370 772 370 764 309 c 0,5,6
 761 284 761 284 753.5 263.5 c 128,-1,7
 746 243 746 243 738 240 c 0,8,9
 707 228 707 228 667 248.5 c 128,-1,10
 627 269 627 269 598.5 309 c 128,-1,11
 570 349 570 349 570 388 c 0,12,13
 570 414 570 414 580 418 c 128,-1,14
 590 422 590 422 642 414 c 0,15,16
 715 404 715 404 741 420 c 0,0,1
1282 1217 m 2,17,18
 1292 1221 1292 1221 1308 1228 c 0,19,20
 1357 1250 1357 1250 1369 1251.5 c 128,-1,21
 1381 1253 1381 1253 1405 1241 c 0,22,23
 1412 1237 1412 1237 1417 1234 c 0,24,25
 1459 1213 1459 1213 1482 1147 c 0,26,27
 1498 1101 1498 1101 1497 1085.5 c 128,-1,28
 1496 1070 1496 1070 1475 1044 c 0,29,30
 1458 1022 1458 1022 1440 1014.5 c 128,-1,31
 1422 1007 1422 1007 1388 1007 c 0,32,33
 1332 1007 1332 1007 1322.5 1029 c 128,-1,34
 1313 1051 1313 1051 1353 1088 c 0,35,36
 1377 1111 1377 1111 1381 1122 c 128,-1,37
 1385 1133 1385 1133 1375 1146 c 0,38,39
 1354 1170 1354 1170 1330 1164 c 128,-1,40
 1306 1158 1306 1158 1260 1117 c 0,41,42
 1237 1096 1237 1096 1213.5 1080.5 c 128,-1,43
 1190 1065 1190 1065 1181 1065 c 0,44,45
 1158 1065 1158 1065 1133.5 1095 c 128,-1,46
 1109 1125 1109 1125 1096 1167 c 0,47,48
 1082 1218 1082 1218 1097 1229.5 c 128,-1,49
 1112 1241 1112 1241 1154 1212 c 2,50,-1
 1197 1181 l 1,51,-1
 1282 1217 l 2,17,18
1019 1641 m 0,52,53
 1031 1652 1031 1652 1078.5 1639 c 128,-1,54
 1126 1626 1126 1626 1162 1601 c 0,55,56
 1255 1539 1255 1539 1277.5 1491.5 c 128,-1,57
 1300 1444 1300 1444 1257 1402 c 0,58,59
 1239 1383 1239 1383 1187 1363 c 128,-1,60
 1135 1343 1135 1343 1104 1343 c 0,61,62
 1089 1343 1089 1343 980 1261 c 0,63,64
 816 1138 816 1138 882 1138 c 0,65,66
 901 1138 901 1138 974.5 1084 c 128,-1,67
 1048 1030 1048 1030 1118 964 c 0,68,69
 1237 853 1237 853 1138 805 c 0,70,71
 1112 792 1112 792 1095 794 c 128,-1,72
 1078 796 1078 796 1039 816 c 0,73,74
 983 845 983 845 911 846 c 128,-1,75
 839 847 839 847 782 822 c 128,-1,76
 725 797 725 797 711 755 c 0,77,78
 696 713 696 713 731.5 677.5 c 128,-1,79
 767 642 767 642 867 598 c 0,80,81
 970 553 970 553 1027 522 c 128,-1,82
 1084 491 1084 491 1118.5 458 c 128,-1,83
 1153 425 1153 425 1161 393 c 128,-1,84
 1169 361 1169 361 1162 313 c 0,85,86
 1147 197 1147 197 1071 109 c 128,-1,87
 995 21 995 21 865 -31 c 0,88,89
 815 -51 815 -51 744 -58.5 c 128,-1,90
 673 -66 673 -66 621.5 -58.5 c 128,-1,91
 570 -51 570 -51 570 -31 c 0,92,93
 570 -25 570 -25 587 -21 c 128,-1,94
 604 -17 604 -17 628 -17 c 0,95,96
 680 -17 680 -17 755 9.5 c 128,-1,97
 830 36 830 36 873 70 c 0,98,99
 925 111 925 111 959.5 171 c 128,-1,100
 994 231 994 231 993 281 c 0,101,102
 993 334 993 334 974.5 360.5 c 128,-1,103
 956 387 956 387 884 436 c 0,104,105
 766 517 766 517 710.5 571.5 c 128,-1,106
 655 626 655 626 642 672 c 0,107,108
 620 757 620 757 666 825 c 128,-1,109
 712 893 712 893 830 947 c 0,110,111
 901 980 901 980 904 1008 c 128,-1,112
 907 1036 907 1036 843 1069 c 0,113,114
 837 1072 837 1072 827 1078 c 0,115,116
 799 1094 799 1094 771.5 1084 c 128,-1,117
 744 1074 744 1074 605 1000 c 0,118,119
 555 974 555 974 526 959 c 0,120,121
 417 901 417 901 317.5 863.5 c 128,-1,122
 218 826 218 826 206 838 c 0,123,124
 200 844 200 844 208 851 c 0,125,126
 218 859 218 859 314 910 c 0,127,128
 624 1078 624 1078 820 1280 c 0,129,130
 933 1396 933 1396 971 1455 c 128,-1,131
 1009 1514 1009 1514 1009 1572.5 c 128,-1,132
 1009 1631 1009 1631 1019 1641 c 0,52,53
EndSplineSet
EndChar

StartChar: uni304D
Encoding: 12365 12365 235
Width: 1700
GlyphClass: 2
Flags: W
LayerCount: 2
Fore
SplineSet
398 790 m 0,0,1
 407 799 407 799 446.5 783.5 c 128,-1,2
 486 768 486 768 509 747 c 0,3,4
 530 728 530 728 566.5 733.5 c 128,-1,5
 603 739 603 739 673 774 c 0,6,7
 731 802 731 802 737 798 c 0,8,9
 740 796 740 796 740 781 c 0,10,11
 740 761 740 761 651 665 c 128,-1,12
 562 569 562 569 535 561 c 0,13,14
 506 552 506 552 478 560 c 0,15,16
 462 566 462 566 442 598.5 c 128,-1,17
 422 631 422 631 409 669.5 c 128,-1,18
 396 708 396 708 391 743.5 c 128,-1,19
 386 779 386 779 398 790 c 0,0,1
667 1496 m 0,20,21
 667 1500 667 1500 677 1501 c 128,-1,22
 687 1502 687 1502 700 1498 c 0,23,24
 733 1489 733 1489 787 1480 c 0,25,26
 837 1472 837 1472 891.5 1427.5 c 128,-1,27
 946 1383 946 1383 975 1328 c 0,28,29
 1003 1273 1003 1273 991.5 1237 c 128,-1,30
 980 1201 980 1201 936 1196.5 c 128,-1,31
 892 1192 892 1192 824 1219 c 0,32,33
 753 1243 753 1243 689 1236 c 128,-1,34
 625 1229 625 1229 589.5 1192 c 128,-1,35
 554 1155 554 1155 578 1110 c 0,36,37
 604 1062 604 1062 774 1044 c 0,38,39
 842 1037 842 1037 905 1005 c 128,-1,40
 968 973 968 973 988 935 c 0,41,42
 1004 906 1004 906 1004 827 c 0,43,44
 1004 736 1004 736 958.5 634.5 c 128,-1,45
 913 533 913 533 833 446 c 0,46,47
 806 418 806 418 789 392 c 128,-1,48
 772 366 772 366 774 359 c 0,49,50
 780 338 780 338 910.5 250.5 c 128,-1,51
 1041 163 1041 163 1128 120 c 0,52,53
 1199 85 1199 85 1305.5 59.5 c 128,-1,54
 1412 34 1412 34 1530 24 c 2,55,-1
 1581 19 l 1,56,-1
 1516 -13 l 2,57,58
 1439 -50 1439 -50 1332.5 -71 c 128,-1,59
 1226 -92 1226 -92 1160 -83 c 0,60,61
 935 -53 935 -53 761 212 c 0,62,63
 711 288 711 288 696 297 c 0,64,65
 690 301 690 301 664 291 c 128,-1,66
 638 281 638 281 606 263 c 0,67,68
 519 213 519 213 416 185.5 c 128,-1,69
 313 158 313 158 222 159 c 2,70,-1
 119 160 l 1,71,-1
 214 195 l 2,72,73
 385 258 385 258 526 356.5 c 128,-1,74
 667 455 667 455 749 565.5 c 128,-1,75
 831 676 831 676 834 775 c 0,76,77
 835 815 835 815 825.5 833.5 c 128,-1,78
 816 852 816 852 778 884 c 0,79,80
 753 905 753 905 719 924 c 128,-1,81
 685 943 685 943 660 950 c 0,82,83
 573 973 573 973 520 1039 c 128,-1,84
 467 1105 467 1105 487 1166 c 0,85,86
 511 1239 511 1239 557.5 1296 c 128,-1,87
 604 1353 604 1353 682 1404 c 0,88,89
 708 1421 708 1421 709.5 1428.5 c 128,-1,90
 711 1436 711 1436 693 1456 c 0,91,92
 667 1485 667 1485 667 1496 c 0,20,21
EndSplineSet
EndChar

StartChar: uni304E
Encoding: 12366 12366 236
Width: 1700
GlyphClass: 2
Flags: W
LayerCount: 2
Fore
SplineSet
403 778 m 0,0,1
 418 793 418 793 443.5 785.5 c 128,-1,2
 469 778 469 778 501 751 c 0,3,4
 536 721 536 721 561.5 722.5 c 128,-1,5
 587 724 587 724 660 760 c 0,6,7
 718 789 718 789 723 783 c 0,8,9
 736 770 736 770 688.5 710.5 c 128,-1,10
 641 651 641 651 587 612 c 0,11,12
 538 577 538 577 517 569 c 128,-1,13
 496 561 496 561 478 570.5 c 128,-1,14
 460 580 460 580 441 610 c 128,-1,15
 422 640 422 640 410.5 673 c 128,-1,16
 399 706 399 706 395 737 c 128,-1,17
 391 768 391 768 403 778 c 0,0,1
1206 1105 m 0,18,19
 1366 1191 1366 1191 1415 1039 c 0,20,21
 1450 932 1450 932 1358 912 c 0,22,23
 1319 903 1319 903 1287.5 911.5 c 128,-1,24
 1256 920 1256 920 1256 939 c 0,25,26
 1256 947 1256 947 1266.5 962.5 c 128,-1,27
 1277 978 1277 978 1291.5 991 c 128,-1,28
 1306 1004 1306 1004 1314.5 1020 c 128,-1,29
 1323 1036 1323 1036 1319 1045 c 0,30,31
 1309 1071 1309 1071 1272 1062 c 128,-1,32
 1235 1053 1235 1053 1193 1014 c 0,33,34
 1171 993 1171 993 1149.5 978 c 128,-1,35
 1128 963 1128 963 1120 963 c 0,36,37
 1097 963 1097 963 1071.5 995.5 c 128,-1,38
 1046 1028 1046 1028 1037 1071 c 0,39,40
 1026 1116 1026 1116 1040.5 1122 c 128,-1,41
 1055 1128 1055 1128 1107 1098 c 0,42,43
 1137 1081 1137 1081 1151.5 1082 c 128,-1,44
 1166 1083 1166 1083 1206 1105 c 0,18,19
705 1454 m 0,45,46
 686 1483 686 1483 693 1486 c 0,47,48
 700 1490 700 1490 770 1472 c 0,49,50
 829 1458 829 1458 883 1418 c 128,-1,51
 937 1378 937 1378 966 1330 c 128,-1,52
 995 1282 995 1282 985 1244 c 0,53,54
 979 1219 979 1219 967.5 1215 c 128,-1,55
 956 1211 956 1211 908 1217 c 0,56,57
 756 1236 756 1236 707 1237.5 c 128,-1,58
 658 1239 658 1239 625 1226 c 0,59,60
 585 1209 585 1209 567.5 1180.5 c 128,-1,61
 550 1152 550 1152 561 1122.5 c 128,-1,62
 572 1093 572 1093 609 1074 c 0,63,64
 626 1065 626 1065 668 1056 c 128,-1,65
 710 1047 710 1047 754 1043 c 0,66,67
 845 1034 845 1034 910 997 c 128,-1,68
 975 960 975 960 987 910 c 0,69,70
 1012 811 1012 811 965 677 c 128,-1,71
 918 543 918 543 821 435 c 0,72,73
 795 405 795 405 779 379 c 128,-1,74
 763 353 763 353 767 347 c 0,75,76
 780 326 780 326 924 234 c 128,-1,77
 1068 142 1068 142 1149 103 c 0,78,79
 1254 53 1254 53 1361 38 c 0,80,81
 1516 18 1516 18 1526 6 c 0,82,83
 1531 -1 1531 -1 1511 -9 c 0,84,85
 1486 -20 1486 -20 1382 -47 c 0,86,87
 1295 -69 1295 -69 1226 -72 c 128,-1,88
 1157 -75 1157 -75 1095 -59.5 c 128,-1,89
 1033 -44 1033 -44 976 -4 c 128,-1,90
 919 36 919 36 863.5 97 c 128,-1,91
 808 158 808 158 747 249 c 0,92,93
 720 288 720 288 704.5 300.5 c 128,-1,94
 689 313 689 313 674 307 c 0,95,96
 649 296 649 296 520 233 c 0,97,98
 442 195 442 195 395 181 c 128,-1,99
 348 167 348 167 282 162 c 0,100,101
 173 154 173 154 173 169 c 0,102,103
 173 176 173 176 186.5 183 c 128,-1,104
 200 190 200 190 220 195 c 0,105,106
 319 217 319 217 438 289 c 128,-1,107
 557 361 557 361 656.5 457.5 c 128,-1,108
 756 554 756 554 801 642 c 0,109,110
 836 713 836 713 843 761.5 c 128,-1,111
 850 810 850 810 831 847 c 0,112,113
 816 874 816 874 761 908.5 c 128,-1,114
 706 943 706 943 646 962 c 0,115,116
 504 1007 504 1007 504 1135 c 0,117,118
 504 1273 504 1273 650 1367 c 0,119,120
 709 1405 709 1405 716 1416 c 128,-1,121
 723 1427 723 1427 705 1454 c 0,45,46
EndSplineSet
EndChar

StartChar: uni304F
Encoding: 12367 12367 237
Width: 1700
GlyphClass: 2
Flags: W
LayerCount: 2
Fore
SplineSet
629 729 m 0,0,1
 727 785 727 785 726 765 c 0,2,3
 726 752 726 752 685 705 c 0,4,5
 647 662 647 662 635.5 637.5 c 128,-1,6
 624 613 624 613 624 574 c 0,7,8
 624 529 624 529 606.5 497 c 128,-1,9
 589 465 589 465 563 465 c 0,10,11
 534 465 534 465 485.5 496.5 c 128,-1,12
 437 528 437 528 418 559 c 0,13,14
 404 583 404 583 396 631.5 c 128,-1,15
 388 680 388 680 390.5 719 c 128,-1,16
 393 758 393 758 407 758 c 0,17,18
 423 758 423 758 466 721 c 0,19,20
 496 696 496 696 514 690.5 c 128,-1,21
 532 685 532 685 555.5 692.5 c 128,-1,22
 579 700 579 700 629 729 c 0,0,1
771 1365 m 0,23,24
 771 1376 771 1376 776.5 1381.5 c 128,-1,25
 782 1387 782 1387 796 1386 c 128,-1,26
 810 1385 810 1385 833 1378 c 128,-1,27
 856 1371 856 1371 892 1358 c 0,28,29
 1062 1295 1062 1295 1074 1179 c 0,30,31
 1081 1116 1081 1116 1059 1087 c 0,32,33
 1051 1076 1051 1076 1047 1073 c 128,-1,34
 1043 1070 1043 1070 1038 1066.5 c 128,-1,35
 1033 1063 1033 1063 1022.5 1067 c 128,-1,36
 1012 1071 1012 1071 1002 1075.5 c 128,-1,37
 992 1080 992 1080 967 1092 c 0,38,39
 900 1124 900 1124 830.5 1132 c 128,-1,40
 761 1140 761 1140 706 1122 c 0,41,42
 624 1093 624 1093 626 1056 c 0,43,44
 628 1020 628 1020 709 1000 c 0,45,46
 742 992 742 992 782 988 c 0,47,48
 878 980 878 980 949.5 946.5 c 128,-1,49
 1021 913 1021 913 1057 864 c 128,-1,50
 1093 815 1093 815 1092.5 752 c 128,-1,51
 1092 689 1092 689 1049 625 c 0,52,53
 983 525 983 525 708 305 c 0,54,55
 610 227 610 227 610 221 c 0,56,57
 610 219 610 219 626 219 c 128,-1,58
 642 219 642 219 670 220.5 c 128,-1,59
 698 222 698 222 731 225 c 0,60,61
 853 234 853 234 1064 236.5 c 128,-1,62
 1275 239 1275 239 1322 260 c 0,63,64
 1369 280 1369 280 1429.5 262.5 c 128,-1,65
 1490 245 1490 245 1533 198 c 0,66,67
 1570 157 1570 157 1573 128.5 c 128,-1,68
 1576 100 1576 100 1546 70 c 0,69,70
 1515 40 1515 40 1466.5 43.5 c 128,-1,71
 1418 47 1418 47 1343 85 c 0,72,73
 1261 126 1261 126 1160.5 142 c 128,-1,74
 1060 158 1060 158 889 158 c 0,75,76
 521 158 521 158 317 -3 c 0,77,78
 267 -43 267 -43 245 -44 c 128,-1,79
 223 -45 223 -45 177 -10 c 0,80,81
 133 23 133 23 127.5 59.5 c 128,-1,82
 122 96 122 96 154 119.5 c 128,-1,83
 186 143 186 143 244 143 c 0,84,85
 297 143 297 143 352.5 176 c 128,-1,86
 408 209 408 209 667 395 c 0,87,88
 713 428 713 428 796.5 520.5 c 128,-1,89
 880 613 880 613 910 664 c 0,90,91
 927 694 927 694 928 728.5 c 128,-1,92
 929 763 929 763 915 793.5 c 128,-1,93
 901 824 901 824 877.5 849 c 128,-1,94
 854 874 854 874 819.5 889 c 128,-1,95
 785 904 785 904 747 904 c 0,96,97
 690 904 690 904 630 945.5 c 128,-1,98
 570 987 570 987 560 1033 c 0,99,100
 546 1095 546 1095 585 1146 c 128,-1,101
 624 1197 624 1197 724 1248 c 0,102,103
 773 1272 773 1272 784 1284 c 128,-1,104
 795 1296 795 1296 785 1314 c 0,105,106
 771 1342 771 1342 771 1365 c 0,23,24
EndSplineSet
EndChar

StartChar: uni3050
Encoding: 12368 12368 238
Width: 1700
GlyphClass: 2
Flags: W
LayerCount: 2
Fore
SplineSet
636 729 m 0,0,1
 741 790 741 790 734 764 c 0,2,3
 730 748 730 748 680 699 c 0,4,5
 648 668 648 668 638.5 647.5 c 128,-1,6
 629 627 629 627 629 590 c 0,7,8
 629 564 629 564 623.5 539 c 128,-1,9
 618 514 618 514 610 503 c 0,10,11
 587 472 587 472 534.5 485.5 c 128,-1,12
 482 499 482 499 440 547 c 0,13,14
 411 580 411 580 403 603.5 c 128,-1,15
 395 627 395 627 395 679 c 0,16,17
 395 747 395 747 409 754.5 c 128,-1,18
 423 762 423 762 471 722 c 0,19,20
 512 687 512 687 540.5 688 c 128,-1,21
 569 689 569 689 636 729 c 0,0,1
1141 995 m 2,22,-1
 1141 1036 l 1,23,-1
 1194 1007 l 2,24,25
 1233 986 1233 986 1279 990 c 128,-1,26
 1325 994 1325 994 1352 1021 c 0,27,28
 1371 1041 1371 1041 1413 1035 c 128,-1,29
 1455 1029 1455 1029 1485 1003 c 0,30,31
 1518 975 1518 975 1528.5 922.5 c 128,-1,32
 1539 870 1539 870 1518 843 c 256,33,34
 1497 816 1497 816 1452.5 809.5 c 128,-1,35
 1408 803 1408 803 1382 822 c 0,36,37
 1362 837 1362 837 1364 844.5 c 128,-1,38
 1366 852 1366 852 1396 879 c 0,39,40
 1438 914 1438 914 1429 939 c 0,41,42
 1418 968 1418 968 1382.5 960.5 c 128,-1,43
 1347 953 1347 953 1301 912 c 0,44,45
 1278 891 1278 891 1254 875.5 c 128,-1,46
 1230 860 1230 860 1222 860 c 0,47,48
 1199 860 1199 860 1170 909 c 128,-1,49
 1141 958 1141 958 1141 995 c 2,22,-1
775 1360 m 0,50,51
 775 1379 775 1379 782.5 1382.5 c 128,-1,52
 790 1386 790 1386 815 1380 c 0,53,54
 932 1350 932 1350 1010 1280 c 128,-1,55
 1088 1210 1088 1210 1075 1146 c 0,56,57
 1066 1097 1066 1097 1049 1086.5 c 128,-1,58
 1032 1076 1032 1076 990 1093 c 0,59,60
 880 1139 880 1139 845 1145.5 c 128,-1,61
 810 1152 810 1152 752 1139 c 0,62,63
 658 1118 658 1118 635 1073 c 0,64,65
 614 1034 614 1034 666 1008 c 0,66,67
 678 1002 678 1002 695 997 c 0,68,69
 753 980 753 980 853 965 c 0,70,71
 932 953 932 953 987.5 920.5 c 128,-1,72
 1043 888 1043 888 1068.5 842.5 c 128,-1,73
 1094 797 1094 797 1088.5 740 c 128,-1,74
 1083 683 1083 683 1043 625 c 0,75,76
 1017 586 1017 586 902 478 c 128,-1,77
 787 370 787 370 726 327 c 0,78,79
 683 297 683 297 631 248 c 2,80,-1
 578 199 l 1,81,-1
 629 209 l 2,82,83
 680 220 680 220 973 225 c 0,84,85
 1139 228 1139 228 1213.5 233.5 c 128,-1,86
 1288 239 1288 239 1318 252 c 0,87,88
 1419 294 1419 294 1517 199 c 0,89,90
 1585 134 1585 134 1560 90 c 0,91,92
 1537 51 1537 51 1461 60 c 0,93,94
 1407 66 1407 66 1346 97 c 0,95,96
 1265 139 1265 139 1134 155 c 0,97,98
 1018 168 1018 168 971.5 168.5 c 128,-1,99
 925 169 925 169 768 159 c 0,100,101
 668 152 668 152 616 141 c 128,-1,102
 564 130 564 130 495 100 c 0,103,104
 448 81 448 81 399 54.5 c 128,-1,105
 350 28 350 28 328 10 c 0,106,107
 277 -29 277 -29 239.5 -30 c 128,-1,108
 202 -31 202 -31 167 7 c 0,109,110
 136 41 136 41 134 60 c 128,-1,111
 132 79 132 79 156 113 c 0,112,113
 171 134 171 134 185.5 138.5 c 128,-1,114
 200 143 200 143 234 138 c 0,115,116
 269 132 269 132 299 143 c 128,-1,117
 329 154 329 154 404 199 c 0,118,119
 560 293 560 293 714 429 c 128,-1,120
 868 565 868 565 908 644 c 0,121,122
 959 743 959 743 914.5 819 c 128,-1,123
 870 895 870 895 752 912 c 0,124,125
 681 922 681 922 626.5 957.5 c 128,-1,126
 572 993 572 993 563 1036 c 0,127,128
 540 1140 540 1140 702 1223 c 0,129,130
 837 1292 837 1292 791 1320 c 0,131,132
 785 1324 785 1324 780 1336 c 128,-1,133
 775 1348 775 1348 775 1360 c 0,50,51
EndSplineSet
EndChar

StartChar: uni3051
Encoding: 12369 12369 239
Width: 1700
GlyphClass: 2
Flags: W
LayerCount: 2
Fore
SplineSet
484 1105 m 0,0,1
 484 1132 484 1132 492.5 1136 c 128,-1,2
 501 1140 501 1140 541 1135 c 0,3,4
 591 1128 591 1128 648 1088.5 c 128,-1,5
 705 1049 705 1049 719 1011 c 0,6,7
 733 975 733 975 722.5 940.5 c 128,-1,8
 712 906 712 906 685 899 c 0,9,10
 672 896 672 896 643 900 c 128,-1,11
 614 904 614 904 587 912 c 0,12,13
 526 931 526 931 479.5 921 c 128,-1,14
 433 911 433 911 415 875 c 0,15,16
 391 828 391 828 422.5 790 c 128,-1,17
 454 752 454 752 530 737 c 0,18,19
 545 733 545 733 566.5 723 c 128,-1,20
 588 713 588 713 601 702 c 0,21,22
 638 673 638 673 636.5 601.5 c 128,-1,23
 635 530 635 530 596 449 c 0,24,25
 567 388 567 388 514 330 c 128,-1,26
 461 272 461 272 407.5 240.5 c 128,-1,27
 354 209 354 209 323 219 c 0,28,29
 311 223 311 223 362 283 c 0,30,31
 368 290 368 290 375 297 c 0,32,33
 440 370 440 370 465 448 c 0,34,35
 482 499 482 499 482.5 522 c 128,-1,36
 483 545 483 545 469 585 c 0,37,38
 443 658 443 658 409 667 c 0,39,40
 381 674 381 674 371 631 c 0,41,42
 368 615 368 615 368 594 c 0,43,44
 367 529 367 529 340 514 c 128,-1,45
 313 499 313 499 252 531 c 0,46,47
 216 549 216 549 204 573 c 128,-1,48
 192 597 192 597 192 650 c 0,49,50
 192 674 192 674 200 688.5 c 128,-1,51
 208 703 208 703 220 702.5 c 128,-1,52
 232 702 232 702 243 685 c 0,53,54
 252 669 252 669 293 670.5 c 128,-1,55
 334 672 334 672 357 689 c 0,56,57
 376 703 376 703 375.5 710.5 c 128,-1,58
 375 718 375 718 354 742 c 0,59,60
 324 777 324 777 317.5 826.5 c 128,-1,61
 311 876 311 876 325 921.5 c 128,-1,62
 339 967 339 967 373 1005 c 128,-1,63
 407 1043 407 1043 452 1057 c 0,64,65
 484 1067 484 1067 484 1105 c 0,0,1
726 1590 m 0,66,67
 779 1619 779 1619 800 1618.5 c 128,-1,68
 821 1618 821 1618 866 1588 c 0,69,70
 918 1553 918 1553 937 1506.5 c 128,-1,71
 956 1460 956 1460 952 1381 c 0,72,73
 949 1310 949 1310 948.5 1264 c 128,-1,74
 948 1218 948 1218 953.5 1177.5 c 128,-1,75
 959 1137 959 1137 968 1112.5 c 128,-1,76
 977 1088 977 1088 996.5 1065.5 c 128,-1,77
 1016 1043 1016 1043 1040.5 1027.5 c 128,-1,78
 1065 1012 1065 1012 1103 994 c 0,79,80
 1194 951 1194 951 1268 929 c 0,81,82
 1399 891 1399 891 1453.5 837 c 128,-1,83
 1508 783 1508 783 1508 694 c 0,84,85
 1508 666 1508 666 1504.5 647 c 128,-1,86
 1501 628 1501 628 1489 609.5 c 128,-1,87
 1477 591 1477 591 1459.5 577.5 c 128,-1,88
 1442 564 1442 564 1407.5 547.5 c 128,-1,89
 1373 531 1373 531 1331 516 c 128,-1,90
 1289 501 1289 501 1223 478 c 0,91,92
 1096 436 1096 436 1018.5 379.5 c 128,-1,93
 941 323 941 323 873 224 c 2,94,-1
 813 136 l 1,95,-1
 813 -20 l 2,96,97
 813 -159 813 -159 802 -162 c 0,98,99
 799 -163 799 -163 794 -158 c 0,100,101
 774 -138 774 -138 759.5 -32.5 c 128,-1,102
 745 73 745 73 752 151 c 0,103,104
 759 236 759 236 798.5 313.5 c 128,-1,105
 838 391 838 391 919 474 c 0,106,107
 989 547 989 547 1035 582 c 128,-1,108
 1081 617 1081 617 1170 663 c 0,109,110
 1205 681 1205 681 1223.5 693 c 128,-1,111
 1242 705 1242 705 1251.5 718.5 c 128,-1,112
 1261 732 1261 732 1257.5 743 c 128,-1,113
 1254 754 1254 754 1235 770.5 c 128,-1,114
 1216 787 1216 787 1188 803.5 c 128,-1,115
 1160 820 1160 820 1112 846 c 0,116,117
 1009 902 1009 902 955 961.5 c 128,-1,118
 901 1021 901 1021 881.5 1101 c 128,-1,119
 862 1181 862 1181 871 1302 c 0,120,121
 880 1407 880 1407 867 1470 c 128,-1,122
 854 1533 854 1533 825 1533 c 0,123,124
 798 1533 798 1533 757.5 1505 c 128,-1,125
 717 1477 717 1477 699 1445 c 0,126,127
 674 1404 674 1404 674 1314.5 c 128,-1,128
 674 1225 674 1225 660 1197 c 0,129,130
 643 1165 643 1165 604.5 1169.5 c 128,-1,131
 566 1174 566 1174 521 1213 c 0,132,133
 488 1242 488 1242 479 1261.5 c 128,-1,134
 470 1281 470 1281 470 1323 c 0,135,136
 470 1366 470 1366 475.5 1376.5 c 128,-1,137
 481 1387 481 1387 506 1387 c 0,138,139
 543 1387 543 1387 555 1419 c 0,140,141
 570 1457 570 1457 623 1510.5 c 128,-1,142
 676 1564 676 1564 726 1590 c 0,66,67
EndSplineSet
EndChar

